<svg width="301" height="53" viewBox="0 0 301 53" fill="none" xmlns="http://www.w3.org/2000/svg">
<path d="M81.8361 38.1457C78.5573 38.1457 75.7977 37.0391 73.5573 34.826C71.3441 32.5855 70.2375 29.8259 70.2375 26.5471C70.2375 23.2411 71.3441 20.4815 73.5573 18.2683C75.7977 16.0552 78.571 14.9486 81.8771 14.9486C84.582 14.9486 86.9318 15.7136 88.9264 17.2437C90.9209 18.7738 92.2188 20.8093 92.8199 23.3504H88.3116C87.7378 22.0935 86.8771 21.1099 85.7296 20.3995C84.582 19.6618 83.2842 19.2929 81.8361 19.2929C80.5519 19.2929 79.377 19.6071 78.3114 20.2356C77.2459 20.864 76.3988 21.7383 75.7704 22.8586C75.1693 23.9515 74.8688 25.181 74.8688 26.5471C74.8688 28.5963 75.5382 30.3177 76.877 31.7112C78.2158 33.1046 79.8688 33.8013 81.8361 33.8013C83.2842 33.8013 84.5684 33.4325 85.6886 32.6948C86.8362 31.9571 87.7105 30.9051 88.3116 29.539H92.9018C92.2734 32.1347 90.9482 34.2248 88.9264 35.8096C86.9318 37.367 84.5684 38.1457 81.8361 38.1457Z" fill="white"></path>
<path d="M106.511 38.1457C103.233 38.1457 100.473 37.0391 98.2327 34.826C96.0195 32.5855 94.9129 29.8259 94.9129 26.5471C94.9129 23.2411 96.0195 20.4815 98.2327 18.2683C100.473 16.0552 103.246 14.9486 106.552 14.9486C109.257 14.9486 111.607 15.7136 113.602 17.2437C115.596 18.7738 116.894 20.8093 117.495 23.3504H112.987C112.413 22.0935 111.553 21.1099 110.405 20.3995C109.257 19.6618 107.96 19.2929 106.511 19.2929C105.227 19.2929 104.052 19.6071 102.987 20.2356C101.921 20.864 101.074 21.7383 100.446 22.8586C99.8447 23.9515 99.5442 25.181 99.5442 26.5471C99.5442 28.5963 100.214 30.3177 101.552 31.7112C102.891 33.1046 104.544 33.8013 106.511 33.8013C107.96 33.8013 109.244 33.4325 110.364 32.6948C111.512 31.9571 112.386 30.9051 112.987 29.539H117.577C116.949 32.1347 115.624 34.2248 113.602 35.8096C111.607 37.367 109.244 38.1457 106.511 38.1457Z" fill="white"></path>
<path d="M133.113 14.9486C135.299 14.9486 137.266 15.4541 139.015 16.465C140.764 17.4486 142.13 18.8284 143.113 20.6044C144.097 22.3804 144.589 24.3613 144.589 26.5471C144.589 29.8805 143.496 32.6538 141.31 34.8669C139.151 37.0528 136.419 38.1457 133.113 38.1457C130.272 38.1457 127.826 37.2577 125.777 35.4817V45.5638H121.228V15.4814H124.302L125.162 18.1864C127.293 16.0279 129.944 14.9486 133.113 14.9486ZM127.58 31.7521C128.946 33.1183 130.668 33.8013 132.744 33.8013C134.848 33.8013 136.583 33.1183 137.949 31.7521C139.315 30.3587 139.998 28.6237 139.998 26.5471C139.998 24.4706 139.315 22.7493 137.949 21.3831C136.583 19.9897 134.862 19.2929 132.785 19.2929C131.419 19.2929 130.176 19.6071 129.056 20.2356C127.935 20.864 127.061 21.7383 126.433 22.8586C125.832 23.9515 125.531 25.181 125.531 26.5471C125.531 28.6237 126.214 30.3587 127.58 31.7521Z" fill="white"></path>
<path d="M167.19 15.4814H170.714V37.6129H167.026L166.575 34.9079C164.444 37.0664 161.78 38.1457 158.583 38.1457C155.277 38.1457 152.517 37.0391 150.304 34.826C148.118 32.6128 147.025 29.8532 147.025 26.5471C147.025 23.2138 148.118 20.4541 150.304 18.2683C152.517 16.0552 155.277 14.9486 158.583 14.9486C161.834 14.9486 164.526 16.0415 166.657 18.2273L167.19 15.4814ZM153.706 31.7521C155.099 33.1183 156.834 33.8013 158.911 33.8013C161.015 33.8013 162.736 33.1183 164.075 31.7521C165.441 30.3587 166.124 28.6237 166.124 26.5471C166.124 24.4433 165.441 22.7083 164.075 21.3421C162.736 19.976 161.015 19.2929 158.911 19.2929C157.545 19.2929 156.301 19.6071 155.181 20.2356C154.088 20.864 153.228 21.7383 152.599 22.8586C151.971 23.9515 151.657 25.181 151.657 26.5471C151.657 28.6237 152.34 30.3587 153.706 31.7521Z" fill="white"></path>
<path d="M192.161 15.4814H197.038L186.874 38.0227C185.59 40.837 184.278 42.7906 182.939 43.8835C181.628 45.0037 179.866 45.5638 177.652 45.5638H175.398V41.4654H177.284C178.732 41.4654 179.797 41.1785 180.48 40.6047C181.163 40.0309 181.915 38.8424 182.734 37.0391L183.226 36.0145L173.595 15.4814H178.554L185.562 30.9324L192.161 15.4814Z" fill="white"></path>
<path d="M224.611 14.9896C226.934 14.9896 228.819 15.7819 230.267 17.3667C231.715 18.9514 232.439 21.0143 232.439 23.5553V37.6129H227.89V24.6619C227.89 23.487 227.712 22.476 227.357 21.629C227.029 20.782 226.537 20.1399 225.882 19.7028C225.253 19.2656 224.488 19.047 223.586 19.047C222.084 19.047 220.841 19.6618 219.857 20.8913C218.873 22.0935 218.381 23.6373 218.381 25.5225V37.6129H213.914V24.6619C213.914 22.8586 213.545 21.4788 212.808 20.5225C212.07 19.5388 211.004 19.047 209.611 19.047C208.135 19.047 206.892 19.6618 205.881 20.8913C204.898 22.0935 204.406 23.6373 204.406 25.5225V37.6129H199.857V15.4814H203.094L203.873 18.3503C204.72 17.2847 205.745 16.465 206.947 15.8912C208.149 15.2901 209.42 14.9896 210.758 14.9896C212.234 14.9896 213.545 15.3311 214.693 16.0142C215.84 16.6973 216.742 17.6399 217.398 18.8421C218.19 17.6399 219.228 16.6973 220.513 16.0142C221.797 15.3311 223.163 14.9896 224.611 14.9896Z" fill="white"></path>
<path d="M258.805 26.5881C258.805 26.998 258.777 27.5034 258.723 28.1045H240.772C241.045 29.8805 241.783 31.2876 242.985 32.3259C244.214 33.3642 245.731 33.8833 247.534 33.8833C248.408 33.8833 249.228 33.7604 249.993 33.5145C250.758 33.2412 251.428 32.8724 252.001 32.4079C252.602 31.9161 253.094 31.3286 253.477 30.6456H258.272C257.398 32.9953 256.004 34.8396 254.092 36.1784C252.179 37.4899 249.993 38.1457 247.534 38.1457C244.283 38.1457 241.564 37.0391 239.378 34.826C237.22 32.6128 236.14 29.8532 236.14 26.5471C236.14 23.2411 237.22 20.4815 239.378 18.2683C241.564 16.0552 244.283 14.9486 247.534 14.9486C249.747 14.9486 251.714 15.4814 253.436 16.547C255.157 17.5853 256.482 18.9924 257.411 20.7684C258.34 22.517 258.805 24.4569 258.805 26.5881ZM247.534 19.047C245.84 19.047 244.392 19.5252 243.19 20.4815C242.015 21.4378 241.236 22.7493 240.854 24.416H254.255C253.982 23.2957 253.531 22.3394 252.903 21.5471C252.275 20.7274 251.496 20.1126 250.567 19.7028C249.665 19.2656 248.654 19.047 247.534 19.047Z" fill="white"></path>
<path d="M274.537 14.9896C277.105 14.9896 279.141 15.8503 280.644 17.5716C282.174 19.2929 282.939 21.5334 282.939 24.293V37.6129H278.389V25.1947C278.389 23.2001 277.952 21.6837 277.078 20.6454C276.231 19.5798 274.974 19.047 273.307 19.047C271.586 19.047 270.165 19.6754 269.045 20.9323C267.925 22.1891 267.365 23.8012 267.365 25.7684V37.6129H262.815V15.4814H265.971L266.873 18.5552C267.72 17.435 268.799 16.5606 270.111 15.9322C271.449 15.3038 272.925 14.9896 274.537 14.9896Z" fill="white"></path>
<path d="M297.968 33.4735H300.468V37.6129H297.108C295.496 37.6129 294.102 37.2987 292.927 36.6702C291.752 36.0418 290.851 35.1402 290.222 33.9653C289.594 32.7631 289.28 31.356 289.28 29.7439V19.3749H285.304V18.5142L293.009 10.3174H293.788V15.4814H300.345V19.3749H293.829V29.375C293.829 30.6865 294.184 31.6975 294.895 32.4079C295.605 33.1183 296.63 33.4735 297.968 33.4735Z" fill="white"></path>
<path d="M0 15.5006C0 6.97286 6.91307 0.0598145 15.4408 0.0598145H24.5045V52.1805H15.4408C6.91306 52.1805 0 45.2674 0 36.7397V15.5006Z" fill="#3C6FF5"></path>
<path d="M27.2272 43.1168C27.2272 34.5891 34.1402 27.676 42.6679 27.676H52.8985V36.7398C52.8985 45.2675 45.9855 52.1805 37.4578 52.1805H27.2272V43.1168Z" fill="#3C6FF5"></path>
<path d="M27.2167 9.65054C27.2167 18.1782 34.1297 25.0913 42.6574 25.0913H52.9513V15.4408C52.9513 6.91313 46.0382 6.29425e-05 37.5105 6.29425e-05H27.2167V9.65054Z" fill="#3C6FF5"></path>
</svg>