<svg width="40" height="40" viewBox="0 0 40 40" fill="none" xmlns="http://www.w3.org/2000/svg">
<g clip-path="url(#clip0_76939_67356)">
<circle cx="20" cy="20" r="20" fill="#9898FF"></circle>
<path d="M15.753 20.6908C16.6163 20.6908 17.4442 20.3479 18.0546 19.7375C18.665 19.127 19.008 18.2991 19.008 17.4359C19.008 16.5726 18.665 15.7447 18.0546 15.1343C17.4442 14.5238 16.6163 14.1809 15.753 14.1809C14.8897 14.1809 14.0618 14.5238 13.4514 15.1343C12.841 15.7447 12.498 16.5726 12.498 17.4359C12.498 18.2991 12.841 19.127 13.4514 19.7375C14.0618 20.3479 14.8897 20.6908 15.753 20.6908ZM24.2597 20.6908C25.1229 20.6908 25.9509 20.3479 26.5613 19.7375C27.1717 19.127 27.5146 18.2991 27.5146 17.4359C27.5146 16.5726 27.1717 15.7447 26.5613 15.1343C25.9509 14.5238 25.1229 14.1809 24.2597 14.1809C23.3964 14.1809 22.5685 14.5238 21.9581 15.1343C21.3477 15.7447 21.0047 16.5726 21.0047 17.4359C21.0047 18.2991 21.3477 19.127 21.9581 19.7375C22.5685 20.3479 23.3964 20.6908 24.2597 20.6908Z" fill="white"></path>
<path d="M20 4C11.1625 4 3.99791 11.3011 4 20.3051H8.08758C8.08758 13.5577 13.3787 8.08688 20 8.08688C26.6213 8.08688 31.9124 13.5577 31.9124 20.3051H36C36.0014 11.3011 28.8361 4 20 4Z" fill="white"></path>
</g>
<defs>
<clipPath id="clip0_76939_67356">
<rect width="40" height="40" fill="white"></rect>
</clipPath>
</defs>
</svg>