<svg width="40" height="40" viewBox="0 0 40 40" fill="none" xmlns="http://www.w3.org/2000/svg">
<g clip-path="url(#clip0_67187_18381)">
<circle cx="20" cy="20" r="20" fill="#F6DC0B"></circle>
<circle cx="20" cy="20" r="18" fill="#242329"></circle>
<path d="M11.8186 21.3985C10.7244 22.5502 7.73725 22.8502 8.01861 21.0985C8.81734 16.1357 12.6686 13.1002 16.5686 13.3547C20.0686 13.5831 22.7497 15.1057 24.9186 18.7985C25.2826 19.7105 24.9915 20.0167 23.3686 20.0985C21.1734 19.9924 19.9717 19.2065 17.8427 17.8142L17.8186 17.7985C16.9734 17.0199 16.5097 17.0219 15.7186 17.5485C13.7612 18.7939 12.9434 19.6583 11.8186 21.3985Z" fill="#F7DD0C"></path>
<path d="M27.822 17.6386C28.9162 16.4869 31.9034 16.1869 31.622 17.9386C30.8233 22.9014 26.972 25.9369 23.072 25.6824C19.572 25.454 16.8909 23.9314 14.722 20.2386C14.358 19.3266 14.6491 19.0204 16.272 18.9386C18.4672 19.0447 19.6689 19.8306 21.798 21.2229L21.822 21.2386C22.6672 22.0172 23.131 22.0152 23.922 21.4886C25.8794 20.2432 26.6972 19.3788 27.822 17.6386Z" fill="#F7DD0C"></path>
</g>
<defs>
<clipPath id="clip0_67187_18381">
<rect width="40" height="40" fill="white"></rect>
</clipPath>
</defs>
</svg>