<svg width="40" height="40" viewBox="0 0 40 40" fill="none" xmlns="http://www.w3.org/2000/svg">
<g clip-path="url(#clip0_73754_159483)">
<circle cx="20" cy="20" r="20" fill="#1F2025"></circle>
<path d="M11.9219 6C16.4566 6.00002 16.7207 8.47344 16.7207 11.626L16.7119 11.6445L18.7451 10.4717C19.8186 9.85205 21.1413 9.85208 22.2148 10.4717L30.2656 15.1201C31.339 15.7401 32 16.8854 32 18.125V27.4209C31.9998 28.6604 31.339 29.8059 30.2656 30.4258L22.2148 35.0732C21.1412 35.693 19.8187 35.6931 18.7451 35.0732L10.6953 30.4258C9.62175 29.806 8.96012 28.6605 8.95996 27.4209V18.125C8.95996 17.9599 8.97224 17.7965 8.99512 17.6357V9.85449C8.99511 8.15449 8.44307 6.87203 8.03906 6.4834C7.63507 6.09496 10.4694 6.00001 11.9219 6ZM20.4805 14.6777C16.0086 14.6777 12.383 18.3026 12.3828 22.7744C12.3829 27.2463 16.0086 30.8721 20.4805 30.8721C24.7572 30.8719 28.2563 27.5555 28.5537 23.3545H23.7598L20.4189 26.6953L16.4346 22.7109L20.4189 18.7275L23.8896 22.1973H28.5537C28.2575 17.995 24.758 14.6779 20.4805 14.6777Z" fill="#34EC7E"></path>
</g>
<defs>
<clipPath id="clip0_73754_159483">
<rect width="40" height="40" fill="white"></rect>
</clipPath>
</defs>
</svg>