<svg width="40" height="40" viewBox="0 0 40 40" fill="none" xmlns="http://www.w3.org/2000/svg">
<circle cx="20" cy="20" r="18.5" fill="#161616" stroke="url(#paint0_linear_64446_159108)" stroke-width="3"></circle>
<path fill-rule="evenodd" clip-rule="evenodd" d="M29.5 8.00008V11.5001H24.5V14.5001H29.5V18.0001H24.5V27.0001C24.5 31.5001 21.5 33.0001 16.5 32.0001V28.5001C16.5 28.5001 17.6855 29.2716 18.5 29.0001C20 28.5001 20 28.0001 20 27.0001V24.5001H18C16.5 24.5001 12 23.325 12 20.0001C12 17.0001 13.5 16.5001 15 16.0001C15 16.0001 12 14.5001 12 12.0001C12 8.00008 16 7.99809 18 8.00008C22.491 8.00455 29.5 8.00008 29.5 8.00008ZM18 10.9981H19.5V13.9981H18C18 13.9981 16.5 13.9981 16.5 12.4981C16.5 10.9981 18 10.9981 18 10.9981ZM19.5 16.9981V20.4981H18C18 20.4981 16 20.4981 16 18.9981C16 17.4981 16.8954 16.9981 18 16.9981H19.5Z" fill="url(#paint1_linear_64446_159108)"></path>
<path d="M29.5 11.5001V11.5501H29.55V11.5001H29.5ZM29.5 8.00008H29.55V7.95005L29.5 7.95008L29.5 8.00008ZM24.5 11.5001V11.4501H24.45V11.5001H24.5ZM24.5 14.5001H24.45V14.5501H24.5V14.5001ZM29.5 14.5001H29.55V14.4501H29.5V14.5001ZM29.5 18.0001V18.0501H29.55V18.0001H29.5ZM24.5 18.0001V17.9501H24.45V18.0001H24.5ZM24.5 27.0001H24.55V27.0001H24.5ZM16.5 32.0001H16.45V32.0411L16.4902 32.0491L16.5 32.0001ZM16.5 28.5001L16.5273 28.4582L16.45 28.4079V28.5001H16.5ZM18.5 29.0001L18.5158 29.0475V29.0475L18.5 29.0001ZM20 24.5001H20.05V24.4501H20V24.5001ZM12 20.0001L11.95 20.0001L12 20.0001ZM15 16.0001L15.0158 16.0475L15.1303 16.0093L15.0224 15.9554L15 16.0001ZM18 8.00008L18 7.95008L18 8.00008ZM19.5 10.9981H19.55V10.9481H19.5V10.9981ZM19.5 13.9981V14.0481H19.55V13.9981H19.5ZM19.5 20.4981V20.5481H19.55V20.4981H19.5ZM19.5 16.9981H19.55V16.9481H19.5V16.9981ZM29.55 11.5001V8.00008H29.45V11.5001H29.55ZM24.5 11.5501H29.5V11.4501H24.5V11.5501ZM24.55 14.5001V11.5001H24.45V14.5001H24.55ZM29.5 14.4501H24.5V14.5501H29.5V14.4501ZM29.55 18.0001V14.5001H29.45V18.0001H29.55ZM24.5 18.0501H29.5V17.9501H24.5V18.0501ZM24.55 27.0001V18.0001H24.45V27.0001H24.55ZM16.4902 32.0491C18.9947 32.55 21.0096 32.4275 22.4004 31.6056C23.7953 30.7814 24.55 29.2616 24.55 27.0001H24.45C24.45 29.2386 23.7047 30.7188 22.3496 31.5195C20.9904 32.3227 19.0053 32.4502 16.5098 31.9511L16.4902 32.0491ZM16.45 28.5001V32.0001H16.55V28.5001H16.45ZM18.4842 28.9527C18.0949 29.0824 17.6096 28.9637 17.2131 28.8055C17.0164 28.7269 16.8446 28.64 16.722 28.5726C16.6608 28.5389 16.6119 28.5102 16.5784 28.4899C16.5617 28.4798 16.5488 28.4718 16.5401 28.4664C16.5358 28.4636 16.5325 28.4616 16.5304 28.4602C16.5293 28.4595 16.5285 28.459 16.528 28.4586C16.5277 28.4585 16.5275 28.4583 16.5274 28.4583C16.5274 28.4582 16.5273 28.4582 16.5273 28.4582C16.5273 28.4582 16.5273 28.4582 16.5273 28.4582C16.5273 28.4582 16.5273 28.4582 16.5 28.5001C16.4727 28.542 16.4727 28.542 16.4728 28.542C16.4728 28.542 16.4728 28.542 16.4728 28.5421C16.4729 28.5421 16.4729 28.5421 16.473 28.5422C16.4732 28.5423 16.4734 28.5424 16.4737 28.5427C16.4744 28.5431 16.4753 28.5436 16.4765 28.5444C16.4788 28.5459 16.4823 28.5481 16.4869 28.551C16.496 28.5567 16.5094 28.565 16.5267 28.5755C16.5612 28.5964 16.6113 28.6258 16.6739 28.6602C16.799 28.729 16.9745 28.8179 17.176 28.8983C17.5759 29.0579 18.0905 29.1893 18.5158 29.0475L18.4842 28.9527ZM19.95 27.0001C19.95 27.5042 19.9486 27.8636 19.7696 28.1619C19.5918 28.4583 19.2317 28.7035 18.4842 28.9527L18.5158 29.0475C19.2683 28.7967 19.6582 28.5419 19.8554 28.2133C20.0514 27.8866 20.05 27.4959 20.05 27.0001H19.95ZM19.95 24.5001V27.0001H20.05V24.5001H19.95ZM18 24.5501H20V24.4501H18V24.5501ZM11.95 20.0001C11.95 21.6892 13.094 22.8276 14.4137 23.5409C15.7333 24.2541 17.2415 24.5501 18 24.5501V24.4501C17.2585 24.4501 15.7667 24.1585 14.4613 23.4529C13.156 22.7475 12.05 21.6359 12.05 20.0001L11.95 20.0001ZM14.9842 15.9526C14.2363 16.2019 13.4744 16.455 12.9021 17.0272C12.3274 17.602 11.95 18.4916 11.95 20.0001L12.05 20.0001C12.05 18.5086 12.4226 17.6482 12.9729 17.0979C13.5256 16.5452 14.2637 16.2982 15.0158 16.0475L14.9842 15.9526ZM11.95 12.0001C11.95 13.2708 12.7122 14.2832 13.4662 14.9744C13.8439 15.3206 14.2213 15.588 14.5043 15.7688C14.6459 15.8592 14.7639 15.9281 14.8467 15.9744C14.8881 15.9975 14.9207 16.0151 14.943 16.0268C14.9541 16.0327 14.9627 16.0372 14.9686 16.0402C14.9715 16.0417 14.9737 16.0428 14.9752 16.0436C14.976 16.044 14.9766 16.0443 14.977 16.0445C14.9772 16.0446 14.9773 16.0447 14.9774 16.0447C14.9775 16.0447 14.9775 16.0448 14.9776 16.0448C14.9776 16.0448 14.9776 16.0448 15 16.0001C15.0224 15.9554 15.0224 15.9554 15.0224 15.9554C15.0223 15.9553 15.0223 15.9553 15.0223 15.9553C15.0222 15.9553 15.0221 15.9552 15.0219 15.9551C15.0216 15.955 15.0211 15.9547 15.0204 15.9544C15.0191 15.9537 15.017 15.9526 15.0142 15.9512C15.0087 15.9484 15.0005 15.9441 14.9896 15.9384C14.968 15.927 14.9361 15.9099 14.8955 15.8871C14.8142 15.8416 14.6979 15.7738 14.5582 15.6845C14.2787 15.5059 13.9061 15.242 13.5338 14.9007C12.7878 14.2169 12.05 13.2294 12.05 12.0001H11.95ZM18 7.95008C17.0017 7.94909 15.4919 7.94849 14.2314 8.45292C13.6001 8.70558 13.0289 9.08581 12.6157 9.65803C12.2023 10.2306 11.95 10.9914 11.95 12.0001H12.05C12.05 11.0088 12.2977 10.2693 12.6968 9.71657C13.0961 9.16349 13.6499 8.79334 14.2686 8.54576C15.5081 8.04968 16.9983 8.04909 18 8.05008L18 7.95008ZM29.5 8.00008C29.5 7.95008 29.4999 7.95008 29.4999 7.95008C29.4998 7.95008 29.4998 7.95008 29.4996 7.95008C29.4994 7.95008 29.4991 7.95008 29.4987 7.95008C29.4978 7.95008 29.4966 7.95009 29.4949 7.95009C29.4915 7.95009 29.4864 7.95009 29.4797 7.9501C29.4663 7.9501 29.4464 7.95012 29.4202 7.95013C29.3677 7.95016 29.2902 7.95021 29.19 7.95027C28.9896 7.95038 28.6983 7.95054 28.3347 7.95071C27.6074 7.95106 26.5909 7.95148 25.4341 7.95176C23.1205 7.95232 20.2455 7.95232 18 7.95008L18 8.05008C20.2455 8.05232 23.1205 8.05232 25.4341 8.05176C26.591 8.05148 27.6074 8.05106 28.3347 8.05071C28.6983 8.05054 28.9897 8.05038 29.1901 8.05027C29.2903 8.05021 29.3678 8.05016 29.4202 8.05013C29.4464 8.05012 29.4664 8.0501 29.4798 8.0501C29.4865 8.05009 29.4915 8.05009 29.4949 8.05009C29.4966 8.05009 29.4979 8.05008 29.4988 8.05008C29.4992 8.05008 29.4995 8.05008 29.4997 8.05008C29.4998 8.05008 29.4999 8.05008 29.5 8.05008C29.5 8.05008 29.5 8.05008 29.5 8.00008ZM19.5 10.9481H18V11.0481H19.5V10.9481ZM19.55 13.9981V10.9981H19.45V13.9981H19.55ZM18 14.0481H19.5V13.9481H18V14.0481ZM16.45 12.4981C16.45 12.8818 16.5461 13.173 16.6928 13.393C16.8393 13.6127 17.0342 13.7586 17.2276 13.8553C17.4209 13.9519 17.6135 14 17.7574 14.024C17.8295 14.036 17.8896 14.042 17.932 14.045C17.9532 14.0466 17.9699 14.0473 17.9815 14.0477C17.9873 14.0479 17.9918 14.048 17.9949 14.048C17.9964 14.0481 17.9977 14.0481 17.9985 14.0481C17.9989 14.0481 17.9993 14.0481 17.9995 14.0481C17.9997 14.0481 17.9998 14.0481 17.9998 14.0481C17.9999 14.0481 17.9999 14.0481 17.9999 14.0481C18 14.0481 18 14.0481 18 13.9981C18 13.9481 18 13.9481 18 13.9481C18 13.9481 18 13.9481 18 13.9481C18 13.9481 18 13.9481 17.9999 13.9481C17.9998 13.9481 17.9996 13.9481 17.9993 13.9481C17.9987 13.9481 17.9978 13.9481 17.9965 13.9481C17.9939 13.948 17.99 13.9479 17.9848 13.9478C17.9744 13.9474 17.9589 13.9467 17.9391 13.9453C17.8994 13.9425 17.8424 13.9368 17.7738 13.9253C17.6365 13.9024 17.4541 13.8568 17.2724 13.7659C17.0908 13.6751 16.9107 13.5397 16.776 13.3375C16.6414 13.1357 16.55 12.8643 16.55 12.4981H16.45ZM18 10.9981C18 10.9481 18 10.9481 17.9999 10.9481C17.9999 10.9481 17.9999 10.9481 17.9998 10.9481C17.9998 10.9481 17.9997 10.9481 17.9995 10.9481C17.9993 10.9481 17.9989 10.9481 17.9985 10.9481C17.9977 10.9481 17.9964 10.9481 17.9949 10.9481C17.9918 10.9482 17.9873 10.9483 17.9815 10.9485C17.9699 10.9489 17.9532 10.9496 17.932 10.9512C17.8896 10.9542 17.8295 10.9602 17.7574 10.9722C17.6135 10.9962 17.4209 11.0443 17.2276 11.1409C17.0342 11.2376 16.8393 11.3834 16.6928 11.6032C16.5461 11.8232 16.45 12.1143 16.45 12.4981H16.55C16.55 12.1318 16.6414 11.8605 16.776 11.6586C16.9107 11.4565 17.0908 11.3211 17.2724 11.2303C17.4541 11.1394 17.6365 11.0937 17.7738 11.0709C17.8424 11.0594 17.8994 11.0537 17.9391 11.0509C17.9589 11.0495 17.9744 11.0488 17.9848 11.0484C17.99 11.0483 17.9939 11.0482 17.9965 11.0481C17.9978 11.0481 17.9987 11.0481 17.9993 11.0481C17.9996 11.0481 17.9998 11.0481 17.9999 11.0481C18 11.0481 18 11.0481 18 11.0481C18 11.0481 18 11.0481 18 11.0481C18 11.0481 18 11.0481 18 10.9981ZM19.55 20.4981V16.9981H19.45V20.4981H19.55ZM18 20.5481H19.5V20.4481H18V20.5481ZM15.95 18.9981C15.95 19.3854 16.0795 19.6784 16.2751 19.8985C16.4698 20.1175 16.7278 20.2619 16.9824 20.3574C17.2373 20.453 17.4914 20.5005 17.6813 20.5243C17.7764 20.5362 17.8557 20.5421 17.9114 20.5451C17.9392 20.5466 17.9612 20.5473 17.9763 20.5477C17.9838 20.5479 17.9897 20.548 17.9937 20.548C17.9957 20.5481 17.9972 20.5481 17.9983 20.5481C17.9988 20.5481 17.9992 20.5481 17.9995 20.5481C17.9996 20.5481 17.9997 20.5481 17.9998 20.5481C17.9999 20.5481 17.9999 20.5481 17.9999 20.5481C18 20.5481 18 20.5481 18 20.4981C18 20.4481 18 20.4481 18 20.4481C18 20.4481 18 20.4481 18 20.4481C17.9999 20.4481 17.9999 20.4481 17.9998 20.4481C17.9996 20.4481 17.9993 20.4481 17.9988 20.4481C17.998 20.4481 17.9967 20.4481 17.9949 20.4481C17.9913 20.448 17.9859 20.4479 17.9788 20.4477C17.9646 20.4474 17.9436 20.4467 17.9167 20.4452C17.863 20.4424 17.7861 20.4366 17.6937 20.425C17.5086 20.4019 17.2627 20.3557 17.0176 20.2638C16.7722 20.1718 16.5302 20.0349 16.3499 19.8321C16.1705 19.6302 16.05 19.3608 16.05 18.9981H15.95ZM18 16.9481C17.4412 16.9481 16.9275 17.0745 16.5531 17.3977C16.1773 17.7222 15.95 18.2379 15.95 18.9981H16.05C16.05 18.2583 16.2704 17.774 16.6185 17.4734C16.9679 17.1717 17.4542 17.0481 18 17.0481V16.9481ZM19.5 16.9481H18V17.0481H19.5V16.9481Z" fill="black"></path>
<defs>
<linearGradient id="paint0_linear_64446_159108" x1="20" y1="0" x2="20" y2="40" gradientUnits="userSpaceOnUse">
<stop stop-color="#37BB98"></stop>
<stop offset="1" stop-color="#2A897D"></stop>
</linearGradient>
<linearGradient id="paint1_linear_64446_159108" x1="20.75" y1="7.99805" x2="20.75" y2="32.2942" gradientUnits="userSpaceOnUse">
<stop stop-color="#34C1CE"></stop>
<stop offset="1" stop-color="#01D596"></stop>
</linearGradient>
</defs>
</svg>