<svg width="40" height="40" viewBox="0 0 40 40" fill="none" xmlns="http://www.w3.org/2000/svg">
<path d="M40 20C40 23.9556 38.827 27.8224 36.6294 31.1114C34.4318 34.4004 31.3082 36.9638 27.6537 38.4776C23.9992 39.9913 19.9778 40.3874 16.0982 39.6157C12.2186 38.844 8.65492 36.9392 5.85787 34.1421C3.06082 31.3451 1.15601 27.7814 0.384303 23.9018C-0.387401 20.0222 0.0086656 16.0009 1.52242 12.3463C3.03617 8.69181 5.59962 5.56823 8.8886 3.37061C12.1776 1.17298 16.0444 0 20 0C25.3043 0 30.3914 2.10714 34.1421 5.85786C37.8929 9.60859 40 14.6957 40 20Z" fill="white"></path>
<path fill-rule="evenodd" clip-rule="evenodd" d="M14.6742 11.1223L18.4982 12.1278L19.3529 9L21.2649 9.50942L20.4435 12.508L22.0031 12.9194L22.826 9.88814L24.7712 10.399L23.9332 13.4466C23.9332 13.4466 27.1098 14.1372 27.8571 16.6739C28.6043 19.2106 26.2143 20.5428 25.4761 20.5933C25.4761 20.5933 28.2594 22.0919 27.3034 25.04C26.3474 27.9881 23.4129 28.5153 20.3255 27.8395L19.4875 31L17.5422 30.4891L18.3969 27.3776L16.854 26.9648L15.9993 30.0985L14.0692 29.5891L14.9253 26.4702L11 25.4306L11.9893 23.2741C11.9893 23.2741 13.0965 23.5711 13.5155 23.6691C13.9346 23.7672 14.2038 23.3394 14.3218 22.9117C14.4398 22.484 16.2172 15.3952 16.3851 14.8115C16.553 14.2278 16.4849 13.7719 15.78 13.5922C15.0751 13.4125 14.1161 13.1318 14.1161 13.1318L14.6742 11.1223ZM18.5315 20.5102L17.4727 24.6434C17.4727 24.6434 22.7231 26.5044 23.3947 23.886C24.0663 21.2676 18.5315 20.5102 18.5315 20.5102ZM19.0186 18.5497L20.0578 14.7625C20.0578 14.7625 24.5534 15.5526 23.9998 17.6601C23.4462 19.7676 20.796 18.9596 19.0186 18.5497Z" fill="#2152FF"></path>
<circle cx="20" cy="20" r="17.5" stroke="#2152FF"></circle>
</svg>