<svg width="40" height="40" viewBox="0 0 40 40" fill="none" xmlns="http://www.w3.org/2000/svg">
<circle cx="20" cy="20" r="20" fill="white"></circle>
<path fill-rule="evenodd" clip-rule="evenodd" d="M20 39.9999C31.0457 39.9999 40 31.0456 40 19.9999C40 10.1722 32.9116 2.00012 23.5686 0.317324L25.493 0.837575L23.4272 10.1046C23.4272 10.1046 32 10.5234 32 20.2617C32 28.9004 22.3944 29.3192 22.3944 29.3192L19.8124 39.999C19.8749 39.9996 19.9374 39.9999 20 39.9999ZM16.4775 39.6907L19.8122 25.7067H23.4272C25.6681 25.2238 28.4366 23.2998 28.4366 20.1046C28.4366 16.1255 26.1068 14.2461 23.6854 13.719C21.4131 13.719 19.1408 13.6648 19.1408 13.6648L22.3615 0.137835C21.6098 0.0494065 20.8453 0.00266988 20.0704 0L16.662 13.6648H13.7183V25.7067H17.4883L14.3166 39.1808C15.0215 39.3894 15.7425 39.5601 16.4775 39.6907ZM11.1828 37.9564L13.2019 29.3192H10V10.1046H14.2347L16.5925 0.288989C7.16998 1.90636 0 10.1158 0 19.9999C0 27.8811 4.55856 34.6975 11.1828 37.9564Z" fill="#FFA401"></path>
</svg>