<svg width="40" height="40" viewBox="0 0 40 40" fill="none" xmlns="http://www.w3.org/2000/svg">
<circle cx="20" cy="20" r="20" fill="#D3AF37"></circle>
<path d="M29.0947 9.00383C26.0947 4.00019 18.0947 2.00122 14.5947 9.00383V8.22554L13.5102 9.00383C11.4049 10.9044 11.0215 11.92 11.5102 13.5C11.8055 14.8161 11.9901 15.5 11.0001 16C9.99006 16.5 9.00012 18 9.50012 19C10.0801 20.16 10.4156 21 9.50012 22C8.1508 22.8573 7.8059 23.4646 8.09473 25C9.5 30.5 14 32.5 17 33C20 33.5 21 33.9445 25 33.5C29 33.0555 32.1402 31.464 34.0947 28.5C34.7558 26.4 34.4451 25.9444 33.5947 25.5C32.9323 24.5365 33.1274 23.8115 33.5947 22.5C34.2177 21.0203 34.4468 20.4397 33.5947 19.5C32.2849 17.6526 32.1163 16.7891 32.5947 15.5002C33.8787 12.6139 32.7743 10.9755 29.0947 8.00023V9.00383Z" fill="#AD7611"></path>
<path d="M28.0947 9.00383C25.0947 4.00019 17.0947 2.00122 13.5947 9.00383V8.22554L12.5102 9.00383C10.4049 10.9044 10.0215 11.92 10.5102 13.5C10.8055 14.8161 10.9901 15.5 10.0001 16C8.99006 16.5 8.00012 18 8.50012 19C9.08014 20.16 9.41559 21 8.50012 22C7.1508 22.8573 6.8059 23.4646 7.09473 25C8.5 30.5 13 32.5 16 33C19 33.5 20 33.9445 24 33.5C28 33.0555 31.1402 31.464 33.0947 28.5C33.7558 26.4 33.4451 25.9444 32.5947 25.5C31.9323 24.5365 32.1274 23.8115 32.5947 22.5C33.2177 21.0203 33.4468 20.4397 32.5947 19.5C31.2849 17.6526 31.1163 16.7891 31.5947 15.5002C32.8787 12.6139 31.7743 10.9755 28.0947 8.00023V9.00383Z" fill="#FFC911"></path>
<path d="M24 33.5C28 33.0555 31.1401 31.464 33.0947 28.5C33.7558 26.4 33.4451 25.9444 32.5947 25.5C31.9323 24.5365 32.1274 23.8115 32.5947 22.5C33.2177 21.0203 33.4468 20.4397 32.5947 19.5C31.2849 17.6526 31.1163 16.7891 31.5947 15.5002C32.8787 12.6139 31.7743 10.9755 28.0947 8.00023V9.00383C25.0947 4.00019 17.0947 2.00122 13.5947 9.00383V8.22554L12.5102 9.00383C10.4049 10.9044 10.0215 11.92 10.5102 13.5C10.8055 14.8161 10.9901 15.5 10.0001 16C8.99006 16.5 8.00012 18 8.50012 19C9.08014 20.16 9.41558 21 8.50012 22C7.1508 22.8573 6.8059 23.4646 7.09473 25C8.5 30.5 14 33 18 33.5" stroke="#020300" stroke-width="0.3"></path>
<path d="M18.1296 13.0049C19.7291 12.6095 20.674 12.4711 22.6296 12.5049M26.1296 14.0002C25.896 15.9097 25.9252 16.9392 26.1296 18.5002C24.3659 19.7188 22.5082 19 20.6296 19C16.9746 19 14.6309 19.2856 15.1296 17.5C15.2103 15.447 14.9309 14.6278 14.5082 14M17.0082 20.5C19.5564 21.8312 20.9764 22.1275 23.5082 21M28.0082 18C28.3617 20.8127 27.9655 21.7456 27.0082 23C25.8913 24.5904 26.548 25.2769 28.0082 26.5C29.3234 28.3954 29.0804 29.0739 28.0082 30M29.5082 25.5C31.0121 26.8847 31.7987 27.6682 31.0082 29.5M12.0082 22.5C9.57897 25.4541 10.7552 26.9966 12.0082 28C12.9034 29.6336 12.719 30.035 12.0082 30.5M13.5 14.5C12.5567 16.4221 12.464 17.4976 14 19.5C14.7405 21.3912 14.7934 22.32 13.5 23.5C12.7806 25.3137 13.0128 26.0185 14 27C15.7808 29.4142 15.6901 30.4532 14.5 32M17 24.5C16.6826 25.3377 17.2024 26.0194 19 27.5M18.5 25C19.9485 26.5983 20.5035 27.5688 20.5 29.5L21.5 27.5C21.9192 28.1606 22.051 28.6334 22 29.5C22.852 28.665 23.2288 28.1245 23.5082 27M25 27.5L24 28.5M26.5 30C26.3552 30.7779 26.3536 31.2802 25.5 32M25 31C25.0675 31.766 24.9271 32.2014 24 33M24.5 31.5L22.5 33M22.5 31.5L19.5 34L20 31.5L18.5 33.5C18.3677 31.6865 18.2035 30.8255 17.5 30C17.0579 29.563 16.9014 29.2631 17 28.5" stroke="#020300" stroke-width="0.3"></path>
<path d="M27 9.5C24.8762 9.5743 23.8045 9.69793 23 10.5C23 10.5 23.5 13 25.5 12.5C27.5 12 27 9.5 27 9.5Z" fill="white"></path>
<path d="M14 10C15.775 9.90745 16.9093 9.7291 18 10.5C17.9984 11.7424 17.5 12.5 16 12.5C14.2776 12.3 14.1495 11.5008 14 10Z" fill="white"></path>
<path d="M27 9.5C24.8762 9.5743 23.8045 9.69793 23 10.5C23 10.5 23.5 13 25.5 12.5C27.5 12 27 9.5 27 9.5Z" stroke="#020300" stroke-width="0.3"></path>
<path d="M14 10C15.775 9.90745 16.9093 9.7291 18 10.5C17.9984 11.7424 17.5 12.5 16 12.5C14.2776 12.3 14.1495 11.5008 14 10Z" stroke="#020300" stroke-width="0.3"></path>
<path d="M23.5 13.9953C22.5 12.9999 18.5 13.4985 18.5 14.4953C18.5 14.4953 19 16.4964 21 16.4964C23.258 16.4964 23.5 13.9953 23.5 13.9953Z" fill="#020300"></path>
<circle cx="16.5" cy="10.5" r="0.5" fill="#020300"></circle>
<circle cx="25.5" cy="10" r="0.5" fill="#020300"></circle>
</svg>