<svg width="40" height="40" viewBox="0 0 40 40" fill="none" xmlns="http://www.w3.org/2000/svg">
<g clip-path="url(#clip0_63792_111192)">
<rect width="40" height="40" rx="20" fill="#C9202A"></rect>
<path d="M14.9929 40.5424H14.8714C14.8556 40.5227 14.8368 40.5014 14.8365 40.4765C14.8331 40.1019 14.7286 39.7209 14.9042 39.3572C14.9452 39.2725 14.9492 39.1816 14.9461 39.0905C14.9285 38.5904 14.9486 38.0898 14.9881 37.5927C15.0063 37.363 14.9978 37.1634 14.9152 36.9483C14.8456 36.767 14.8608 36.558 14.8617 36.3635C14.8641 35.8279 14.8252 35.2938 14.8249 34.7588C14.8249 34.6579 14.8207 34.5565 14.8459 34.4574C14.8589 34.4055 14.8507 34.3562 14.828 34.3104C14.7784 34.2101 14.7508 34.1026 14.7152 33.9971C14.6985 33.368 14.6985 32.7388 14.7019 32.1099C14.7174 31.9197 14.7077 31.7289 14.7563 31.5384C14.7942 31.3899 14.7423 31.231 14.756 31.0718C14.8091 30.4493 14.9577 29.845 15.0789 29.2355C15.1011 29.1244 15.1485 29.0205 15.218 28.9345C15.3903 28.7212 15.5152 28.4757 15.6896 28.2643C15.7686 28.1689 15.7755 28.0644 15.7145 27.9535C15.6094 27.7627 15.5146 27.5667 15.4325 27.365C15.3891 27.2581 15.3466 27.2423 15.2457 27.3146C14.8763 27.5798 14.4789 27.7864 14.0195 27.8484C13.6832 27.8447 13.3466 27.8426 13.0124 27.7964C12.9015 27.7812 12.7973 27.7423 12.6904 27.7129C12.6041 27.6889 12.5479 27.7095 12.5196 27.8058C12.4087 28.1835 12.3209 28.5669 12.234 28.9503C12.2088 29.0618 12.2334 29.1265 12.3483 29.1708C12.4905 29.2258 12.6357 29.2693 12.7827 29.3006C12.9237 29.3306 13.0519 29.3829 13.1768 29.4494C13.6799 29.7897 13.7822 30.4143 13.4277 30.9098C13.263 31.1398 13.0564 31.3063 12.7979 31.4129C12.602 31.4989 12.3929 31.4767 12.1879 31.4862C12.1581 31.4877 12.128 31.478 12.0976 31.4767C11.8309 31.4643 11.8309 31.4898 11.809 31.718C11.7786 32.0385 11.6972 32.3532 11.692 32.678C11.6893 32.8466 11.7033 32.8679 11.8762 32.8721C12.108 32.8776 12.3401 32.8761 12.5707 32.8454C13.1616 32.8937 13.5927 33.1927 13.8916 33.6946C13.9654 33.8185 14.0043 33.9604 13.9958 34.1014C13.9724 34.489 13.8667 34.8457 13.572 35.1264C13.2977 35.3877 12.9936 35.5994 12.6396 35.7371C12.5731 35.7629 12.5063 35.7845 12.4342 35.786C12.1046 35.8966 11.765 35.9224 11.4204 35.9093C11.3211 35.9057 11.2792 35.967 11.2588 36.0561C11.164 36.4692 11.0866 36.8861 10.9696 37.2941C10.9334 37.4202 10.9085 37.5496 10.8699 37.6748C10.8411 37.7686 10.8669 37.8221 10.9532 37.8707C11.3032 38.067 11.6796 38.1675 12.077 38.1991C12.3632 38.2596 12.6536 38.2945 12.9386 38.3665C13.682 38.5549 14.0341 39.01 14.1292 39.7689C14.1553 39.9773 14.1523 40.1812 14.1243 40.3872C14.1161 40.4479 14.1161 40.5099 14.0511 40.5427H13.96C13.901 40.474 13.9338 40.399 13.9457 40.3258C14.021 39.8518 13.9296 39.4141 13.6604 39.0155C13.5653 38.8748 13.4447 38.7575 13.2886 38.6916C13.0285 38.5813 12.7618 38.4877 12.4783 38.4571C12.3331 38.4413 12.1939 38.3854 12.0454 38.3957C11.6629 38.3422 11.2944 38.2429 10.9456 38.0727C10.7991 38.0013 10.7791 38.012 10.7396 38.1712C10.5844 38.7982 10.4091 39.4204 10.2875 40.0563C10.2559 40.2216 10.2395 40.3981 10.1326 40.5424H10.0111C9.99375 40.512 10.0004 40.4807 10.0065 40.4494C10.1712 39.6784 10.365 38.9146 10.561 38.1511C10.7281 37.5001 10.9246 36.8551 11.0458 36.1937C11.1267 35.7526 11.219 35.3132 11.257 34.8624C11.2956 34.4058 11.3572 33.9494 11.4107 33.4934C11.4624 33.052 11.4958 32.6084 11.5511 32.1673C11.573 31.9923 11.6024 31.8188 11.624 31.6435C11.6747 31.2334 11.7315 30.8233 11.8014 30.4162C11.8868 29.9191 11.9418 29.4169 12.0466 28.9238C12.1168 28.593 12.2125 28.2673 12.2915 27.938C12.4816 27.1453 12.7435 26.3749 13.0051 25.6041C13.1436 25.1964 13.3299 24.8078 13.4885 24.408C13.7655 23.7102 14.1177 23.0503 14.5208 22.4178C14.5779 22.3282 14.6299 22.2337 14.7067 22.1595C14.8246 22.0459 14.848 21.8946 14.882 21.7473C14.8987 21.6747 14.8726 21.6175 14.8012 21.5869C14.3033 21.3715 13.8883 21.0288 13.455 20.7134C12.9398 20.3385 12.4023 19.9943 11.9081 19.5908C11.2925 19.0883 10.7897 18.4947 10.4404 17.7762C10.3228 17.535 10.1997 17.2971 10.1308 17.0355C10.0709 16.8082 10.0393 16.5758 10.0691 16.344C10.111 16.0196 10.3222 15.7981 10.5768 15.6197C10.8171 15.4514 11.0635 15.2904 11.349 15.2038C11.373 15.1965 11.3992 15.1865 11.4159 15.1686C11.597 14.9735 11.8467 14.8484 11.9837 14.6084C12.169 14.2836 12.4291 14.0351 12.7575 13.8564C12.8468 13.8078 12.9413 13.7343 13.0349 13.7425C13.2208 13.7589 13.3548 13.6663 13.51 13.5979C13.8518 13.4475 14.1404 13.6097 14.4051 13.8109C14.5761 13.9406 14.6955 14.1208 14.8094 14.3003C15.1108 14.7746 15.4052 15.2527 15.7294 15.7121C16.1234 16.2708 16.6578 16.6652 17.2423 17C17.4796 17.1358 17.716 17.2722 17.9614 17.3931C18.0945 17.4587 18.2179 17.4693 18.3524 17.4089C18.4816 17.3509 18.6146 17.3013 18.7483 17.2545C19.3392 17.0477 19.9499 16.9459 20.5727 16.8945C20.8713 16.8699 21.1691 16.8669 21.4671 16.8708C21.996 16.8784 22.5095 16.9872 23.012 17.1458C23.4513 17.2843 23.8872 17.4329 24.2986 17.6437C24.3785 17.6844 24.4535 17.665 24.5328 17.6376C25.0599 17.4551 25.5251 17.1637 25.9756 16.8411C26.2895 16.6162 26.6246 16.4273 27.0162 16.3671C27.1076 16.3531 27.1988 16.3459 27.2869 16.3738C27.3996 16.4093 27.4828 16.3762 27.5521 16.2848C27.6043 16.2158 27.6736 16.1636 27.7383 16.1064C27.941 15.9269 28.1758 15.8585 28.4416 15.9068C28.5164 15.9205 28.5783 15.9169 28.637 15.861C28.7974 15.7079 28.9985 15.6307 29.2121 15.6118C29.3689 15.5979 29.426 15.5198 29.4676 15.3861C29.563 15.0811 29.7617 14.8599 30.0491 14.7205C30.2961 14.6008 30.5358 14.6415 30.7302 14.8377C30.9228 15.0322 31.0052 15.2816 31.0717 15.538C31.2251 16.128 31.0927 16.6949 30.9171 17.253C30.5671 18.3647 29.9373 19.3119 29.1677 20.1735C28.6877 20.711 28.1652 21.2028 27.5852 21.6324C27.519 21.6816 27.4883 21.7491 27.4761 21.8253C27.4056 22.2662 27.364 22.6982 27.5132 23.1427C27.6675 23.6032 27.625 24.0848 27.488 24.5484C27.4388 24.7158 27.467 24.8513 27.5369 24.9983C27.6605 25.2584 27.8115 25.5084 27.8723 25.794C27.9425 26.1236 27.9349 26.4572 27.8793 26.7878C27.8623 26.8895 27.8601 26.9546 27.9759 26.9795C28.6148 27.1186 28.8733 27.5983 29.0006 28.1683C29.1392 28.7871 28.9876 29.3707 28.7117 29.9273C28.6689 30.0136 28.6154 30.0993 28.5395 30.1567C28.4383 30.2333 28.4137 30.3174 28.4602 30.4313C28.6157 30.8114 28.441 31.1337 28.2682 31.4497C28.1907 31.5913 28.1278 31.7228 28.15 31.8918C28.1685 32.0342 28.098 32.1676 28.0613 32.3037C28.0035 32.5173 27.8963 32.7202 27.9133 32.9502C27.958 33.5581 27.731 34.0925 27.4518 34.6075C27.1559 35.1534 26.7561 35.6259 26.3362 36.0785C26.1412 36.2888 25.9 36.4401 25.6083 36.4905C25.5834 36.4948 25.5561 36.5078 25.5336 36.5011C25.3157 36.4358 25.1523 36.5622 24.9691 36.6436C24.2254 36.9748 23.5382 36.8517 22.9129 36.3483C22.4499 35.9755 22.0477 35.5417 21.6713 35.083C21.3753 34.7226 21.0892 34.3562 20.8668 33.9446C20.8103 33.8398 20.7708 33.8948 20.7291 33.9561C20.4982 34.2964 20.2418 34.6142 19.9405 34.8958C19.6287 35.1872 19.2897 35.4421 18.9333 35.6751C18.8908 35.7027 18.8434 35.7213 18.7972 35.7422C18.6906 35.7908 18.5785 35.8151 18.484 35.7289C18.3816 35.635 18.3445 35.5174 18.3716 35.3716C18.4439 34.9815 18.6623 34.6643 18.8641 34.3371C19.1642 33.8498 19.5285 33.4056 19.8201 32.9129C19.9815 32.64 20.038 32.6625 19.6992 32.513C19.2104 32.2973 18.7939 31.9832 18.4178 31.6086C18.1741 31.3659 17.9198 31.1331 17.7193 30.8506C17.6731 30.7853 17.6197 30.7655 17.5565 30.8287C17.4665 30.9187 17.362 30.9904 17.2645 31.0709C17.1986 31.1252 17.1773 31.1839 17.2147 31.2702C17.2918 31.4476 17.2393 31.6405 17.2678 31.8258C17.3061 32.0716 17.3523 32.3143 17.4298 32.5501C17.551 32.9195 17.6087 33.2969 17.5856 33.6863C17.5753 33.8601 17.5486 34.0281 17.4589 34.1806C17.4383 34.2159 17.4182 34.2493 17.4322 34.294C17.5714 34.7387 17.5391 35.1911 17.4896 35.6441C17.4845 35.6903 17.4744 35.7386 17.5066 35.7753C17.6607 35.9519 17.6816 36.1721 17.6953 36.3881C17.7111 36.6439 17.7868 36.8852 17.8509 37.1285C17.9247 37.4089 17.9952 37.6981 17.9876 37.9786C17.9812 38.2098 18.0277 38.3875 18.1404 38.5765C18.2151 38.7016 18.1993 38.8617 18.2273 39.0057C18.3215 39.4903 18.333 39.9797 18.3041 40.4713C18.2962 40.5063 18.2701 40.5257 18.2425 40.5433H18.1513C18.1109 40.4944 18.1267 40.4385 18.1304 40.3838C18.1677 39.7798 18.0687 39.1892 17.9529 38.6008C17.9104 38.5391 17.8651 38.4455 17.7813 38.5342C17.5303 38.8001 17.1998 38.9103 16.8692 39.0209C16.5338 39.133 16.2085 39.274 15.867 39.3679C15.6525 39.4268 15.4383 39.4888 15.2117 39.4308C15.1129 39.4056 15.0671 39.4587 15.0333 39.5474C14.9458 39.7765 14.9869 40.0053 15.0178 40.2356C15.0318 40.3392 15.0616 40.4458 14.9923 40.5433L14.9929 40.5424Z" fill="#0E0707"></path>
<path d="M14.0206 27.8137C14.4517 27.7323 14.8412 27.5552 15.1982 27.3021C15.3905 27.166 15.3869 27.1712 15.485 27.3936C15.5682 27.5822 15.66 27.7679 15.7593 27.9486C15.8234 28.0653 15.8204 28.1586 15.7393 28.2664C15.5743 28.4858 15.4185 28.7118 15.262 28.9372C15.1654 29.0764 15.1195 29.2352 15.0855 29.4002C14.9615 29.9975 14.8394 30.5948 14.7847 31.2036C14.7802 31.2531 14.7789 31.306 14.7905 31.3534C14.8193 31.4701 14.8054 31.5734 14.765 31.6903C14.7258 31.8043 14.7492 31.9398 14.7452 32.0658C14.6374 32.0245 14.699 31.9203 14.672 31.862C14.6747 32.2238 14.6553 32.5975 14.6781 32.9691C14.6996 33.3203 14.7264 33.6706 14.723 34.023C14.723 34.0421 14.7373 34.0002 14.7543 34.0041C14.8114 34.1241 14.8269 34.263 14.9205 34.3669C14.929 34.3763 14.9339 34.3988 14.9284 34.4094C14.7993 34.6704 14.8746 34.9462 14.8865 35.2115C14.9038 35.6052 14.8841 35.9996 14.9138 36.3921C14.9302 36.6066 14.8813 36.8369 14.9934 37.0316C15.0885 37.1969 15.0557 37.339 15.0387 37.5171C14.987 38.0636 14.9925 38.6163 14.994 39.1662C14.9943 39.2871 14.9424 39.3767 14.909 39.4779C14.8497 39.6586 14.8282 39.8376 14.8582 40.0281C14.885 40.197 14.8865 40.3695 14.8716 40.5412H14.0513C14.1804 39.8831 14.109 39.2691 13.636 38.7542C13.547 38.6573 13.4282 38.5859 13.2982 38.5364C12.9403 38.3996 12.5721 38.3097 12.1917 38.2669C12.1528 38.2626 12.1151 38.2447 12.0772 38.2329C12.045 38.1949 12.0428 38.1508 12.0507 38.1043C12.1118 37.7465 12.1288 37.3834 12.1811 37.0243C12.2324 36.6707 12.2221 36.311 12.2713 35.9558C12.2874 35.8398 12.3181 35.7626 12.443 35.7495C13.0165 35.5812 13.4969 35.2722 13.7958 34.7482C13.9532 34.4723 14.0197 34.1518 13.9028 33.8307C13.8186 33.6004 13.6624 33.419 13.4823 33.2543C13.2301 33.0237 12.9224 32.9332 12.5964 32.8816C12.5432 32.7956 12.569 32.6996 12.5851 32.616C12.6556 32.2484 12.6836 31.875 12.7522 31.5074C12.7616 31.4576 12.7692 31.4072 12.8072 31.3686C13.1372 31.2231 13.3723 30.9803 13.5309 30.6604C13.6728 30.3739 13.5932 29.9039 13.3598 29.6575C13.3012 29.5956 13.2338 29.5424 13.1703 29.485C13.0788 29.423 13.0621 29.3392 13.0803 29.2337C13.1572 28.7911 13.2769 28.3582 13.3741 27.9204C13.396 27.8219 13.4577 27.8058 13.543 27.8174C13.7025 27.8389 13.8617 27.8253 14.0209 27.8128L14.0206 27.8137Z" fill="#C9202D"></path>
<path d="M12.0538 38.3577C12.5554 38.4094 13.054 38.4729 13.4845 38.7691C13.6504 38.8833 13.7579 39.0474 13.8357 39.2294C13.9955 39.603 14.066 39.9883 13.9742 40.3929C13.9633 40.4412 13.9636 40.4923 13.9587 40.5421H11.7716C11.696 40.4309 11.7181 40.3051 11.7373 40.1888C11.8312 39.6201 11.9132 39.0495 12.0062 38.4808C12.0134 38.437 12.011 38.3881 12.0535 38.3574L12.0538 38.3577Z" fill="#FB7B00"></path>
<path d="M17.9716 38.5628C17.9871 38.5816 18.0132 38.599 18.0165 38.6199C18.1177 39.2567 18.228 39.8932 18.152 40.5424H17.909C17.8607 40.4883 17.864 40.4215 17.8637 40.3562C17.8625 40.1496 17.8601 39.943 17.864 39.7364C17.8683 39.5177 17.7938 39.3099 17.7835 39.0933C17.7817 39.055 17.7689 39.013 17.7194 38.989C17.665 39.0492 17.6896 39.1197 17.6948 39.1865C17.72 39.5222 17.8011 39.8534 17.7723 40.1933C17.7619 40.313 17.7689 40.4361 17.6963 40.5421H15.1446C15.1352 40.5303 15.1206 40.5181 15.1203 40.5044C15.1091 40.2386 15.0614 39.9734 15.1021 39.7066C15.1228 39.5711 15.2051 39.5061 15.3406 39.4991C16.1034 39.4596 16.7758 39.1498 17.4369 38.8013C17.6091 38.7105 17.7732 38.5962 17.9719 38.5625L17.9716 38.5628Z" fill="#EEDF8C"></path>
<path d="M12.055 38.3583C12.0328 38.7004 11.956 39.0349 11.915 39.3742C11.8679 39.7637 11.75 40.1447 11.7731 40.5427H10.1328C10.2066 40.2045 10.2753 39.8655 10.3555 39.5288C10.4706 39.0446 10.5955 38.5624 10.7122 38.0785C10.7398 37.9642 10.7957 37.9433 10.8929 37.9967C11.2554 38.1966 11.6503 38.2933 12.055 38.358V38.3583Z" fill="#771F2B"></path>
<path d="M17.9683 38.5626C17.7498 38.716 17.4995 38.8102 17.2659 38.9354C16.7995 39.1854 16.3122 39.392 15.7872 39.4886C15.6441 39.515 15.4983 39.5336 15.3531 39.5396C15.2224 39.5451 15.1507 39.584 15.1352 39.7283C15.1061 40.0008 15.1632 40.2709 15.1416 40.5419H14.9897C14.9867 40.345 14.966 40.1497 14.9372 39.9549C14.9113 39.7802 14.9557 39.6144 15.021 39.4549C15.0405 39.4075 15.0635 39.3504 15.1425 39.3728C15.5132 39.4786 15.8501 39.3306 16.1885 39.2206C16.5197 39.1131 16.8445 38.9861 17.1723 38.8694C17.3898 38.792 17.5827 38.6774 17.744 38.5097C17.8644 38.3845 17.8853 38.3912 17.9686 38.5626H17.9683Z" fill="#9B945D"></path>
<path d="M17.6994 40.5423C17.7094 40.4122 17.7191 40.2825 17.7295 40.1525C17.7556 39.8238 17.6724 39.5042 17.6484 39.18C17.6414 39.0873 17.5697 38.9333 17.7185 38.9136C17.8565 38.895 17.8285 39.0597 17.8455 39.1447C17.9385 39.6062 17.9102 40.0753 17.9121 40.5423H17.6994Z" fill="#FDF1B7"></path>
<path d="M16.299 22.9016C16.3832 22.8852 16.4634 22.8673 16.5354 22.8099C16.6873 22.6889 16.8255 22.6889 16.9984 22.7919C17.2037 22.9141 17.318 23.1118 17.4228 23.3142C17.5109 23.4843 17.5902 23.6593 17.6661 23.8352C17.7026 23.9197 17.7552 23.9801 17.8393 24.0148C18.0094 24.0843 18.1325 24.2083 18.2334 24.3578C18.4682 24.7056 18.6368 25.0811 18.6945 25.4992C18.714 25.6389 18.7726 25.7295 18.9102 25.7756C19.2213 25.8795 19.3881 26.1375 19.5476 26.3972C19.7169 26.6725 19.8888 26.9468 20.0261 27.2403C20.0723 27.3387 20.1376 27.4168 20.2333 27.4742C20.8078 27.8191 21.1414 28.3513 21.369 28.9608C21.4161 29.0869 21.4762 29.1926 21.6017 29.2415C21.9316 29.37 22.1388 29.6249 22.3105 29.9169C22.4359 30.1301 22.5575 30.3458 22.6747 30.5637C22.7391 30.6831 22.8181 30.7742 22.9479 30.8325C23.4558 31.0604 23.6648 31.5188 23.8295 32.0068C23.8599 32.097 23.872 32.1936 23.8948 32.2869C23.9131 32.3607 23.9331 32.4351 24.0009 32.4822C24.2722 32.6715 24.4274 32.9489 24.5711 33.2348C24.6358 33.3633 24.7142 33.4787 24.8366 33.5586C25.2146 33.8053 25.5102 34.1368 25.7933 34.4819C25.8271 34.5232 25.855 34.6074 25.9276 34.5636C26.0008 34.5193 25.9449 34.4542 25.92 34.4032C25.6931 33.9408 25.8304 33.5082 26.0257 33.0798C26.0446 33.0385 26.071 33.0008 26.0883 32.9589C26.1372 32.8395 26.1123 32.8052 25.9835 32.8073C25.5822 32.814 25.3124 32.6013 25.2279 32.2061C25.2091 32.1177 25.1915 32.0247 25.1988 31.936C25.2371 31.4763 25.0046 31.1564 24.6708 30.8878C24.4654 30.7226 24.2597 30.5579 24.1321 30.3203C23.7666 29.6398 23.8623 28.9975 24.2995 28.3857C24.4487 28.1766 24.6392 28.015 24.857 27.8798C25.2969 27.607 25.6539 27.6486 26.0324 28.0673C26.3423 28.4097 26.5389 28.8465 26.517 29.3402C26.5055 29.6039 26.3782 29.8336 26.2943 30.0764C26.2648 30.162 26.2241 30.245 26.2342 30.3398C26.2375 30.3726 26.2457 30.3993 26.2861 30.3993C26.315 30.3993 26.3362 30.3862 26.342 30.3589C26.404 30.0557 26.5601 29.7838 26.6279 29.4818C26.7038 29.1434 26.5917 28.8435 26.4572 28.5464C26.4338 28.4947 26.4034 28.4452 26.4189 28.389C26.5365 27.9615 26.7166 27.5675 27.0885 27.3014C27.5648 26.9605 28.4356 27.0289 28.7485 27.8886C29.0006 28.5816 28.8834 29.2333 28.5589 29.8619C28.4328 30.1064 28.1965 30.2514 27.9555 30.3768C27.8838 30.4142 27.8112 30.45 27.7395 30.4871C27.7046 30.505 27.6526 30.5178 27.6636 30.5676C27.6773 30.6287 27.7328 30.612 27.7772 30.6083C27.8392 30.5843 27.906 30.5831 27.9704 30.5764C28.1302 30.5597 28.1989 30.6293 28.1761 30.7912C28.143 31.0276 28.0992 31.2618 27.9379 31.4529C27.8647 31.5398 27.8364 31.6388 27.8699 31.75C27.9713 32.0885 27.8374 32.3847 27.6982 32.6776C27.6697 32.7377 27.6308 32.79 27.6457 32.8602C27.7295 33.2524 27.6004 33.6215 27.5196 33.9952C27.5029 34.0727 27.4859 34.1529 27.4436 34.2234C27.1368 34.9513 26.6273 35.53 26.0798 36.0811C25.886 36.1562 25.6837 36.161 25.4816 36.1419C25.3516 36.1294 25.265 36.0483 25.2115 35.9259C25.1116 35.6971 25.0706 35.4523 25.0214 35.2119C24.8846 34.5451 24.4903 34.0605 23.9483 33.6902C23.6551 33.4897 23.4686 33.2463 23.4425 32.8915C23.434 32.7766 23.3823 32.711 23.2781 32.6645C23.0809 32.577 22.9497 32.4212 22.8488 32.2313C22.6908 31.9338 22.5724 31.6234 22.5143 31.2916C22.4894 31.15 22.4201 31.0586 22.2825 31.0005C22.0301 30.8942 21.7882 30.7651 21.6053 30.5515C21.3714 30.2784 21.2216 29.957 21.1004 29.6237C21.0436 29.4675 20.9564 29.3913 20.7899 29.3597C20.4961 29.3044 20.3169 29.0768 20.1501 28.8544C19.986 28.6354 19.8663 28.3878 19.7703 28.1305C19.7396 28.0481 19.702 27.9716 19.6242 27.9242C19.0743 27.5888 18.8258 27.0425 18.6083 26.4747C18.5937 26.437 18.58 26.3984 18.57 26.3596C18.5214 26.1712 18.4266 26.0211 18.2558 25.9142C17.8986 25.6906 17.8165 25.299 17.6935 24.939C17.6418 24.788 17.6227 24.6239 17.6014 24.4629C17.5865 24.3499 17.5437 24.2417 17.4246 24.1998C17.122 24.0935 16.9084 23.8896 16.7575 23.6125C16.748 23.5952 16.7344 23.5791 16.7186 23.566C16.7055 23.5387 16.6915 23.512 16.6797 23.4843C16.669 23.4597 16.656 23.44 16.625 23.4427C16.5855 23.446 16.5782 23.4734 16.5755 23.5059C16.5518 23.8082 16.4983 24.1062 16.4494 24.4049C16.4366 24.4826 16.4506 24.5555 16.4925 24.6227C16.7149 24.9772 16.824 25.367 16.8468 25.782C16.8513 25.8653 16.861 25.9218 16.9616 25.9446C17.0376 25.9619 17.0986 26.0248 17.1533 26.0867C17.5388 26.526 17.7643 27.034 17.8117 27.6179C17.8193 27.7118 17.8369 27.7954 17.9229 27.8534C18.3436 28.1387 18.611 28.5327 18.7267 29.0249C18.776 29.2336 18.8701 29.3679 19.0749 29.473C19.455 29.6683 19.6628 30.015 19.7433 30.4346C19.7567 30.5038 19.7779 30.5731 19.7807 30.643C19.7861 30.7751 19.8557 30.8401 19.9766 30.8757C20.2397 30.9532 20.4381 31.1175 20.5888 31.3451C20.6258 31.4013 20.6362 31.4462 20.6031 31.51C20.4709 31.7652 20.3442 32.0232 20.2154 32.2802C20.1279 32.2936 20.0869 32.2273 20.0483 32.1717C19.8241 31.8491 19.643 31.5046 19.5762 31.113C19.5461 30.9374 19.4732 30.8143 19.3219 30.7077C18.9774 30.4649 18.7556 30.1304 18.7049 29.7036C18.6879 29.562 18.6207 29.494 18.4892 29.4791C17.9763 29.4204 17.6962 28.9158 17.6555 28.458C17.651 28.4075 17.6506 28.3565 17.6549 28.3064C17.6637 28.2003 17.6172 28.1447 17.5191 28.1004C17.0725 27.8996 16.8042 27.5514 16.7043 27.0735C16.666 26.8912 16.6262 26.7105 16.6283 26.5209C16.6299 26.3881 16.5828 26.2687 16.46 26.1827C16.3276 26.0898 16.2647 25.9388 16.2015 25.7957C16.0392 25.4275 15.9369 25.0508 16.079 24.6491C16.1112 24.5586 16.0696 24.4829 16.0371 24.4027C15.8904 24.0412 15.822 23.6748 15.9849 23.2981C16.0541 23.1377 16.1456 22.9946 16.2996 22.9016H16.299Z" fill="#EEDF8D"></path>
<path d="M21.1073 20.5986C20.6844 20.4814 20.3004 20.6284 19.9091 20.6922C19.7189 20.7232 19.5366 20.6788 19.351 20.6667C19.2534 20.6603 19.1577 20.6639 19.0645 20.6831C18.8564 20.7256 18.7865 20.9076 18.9022 21.0844C18.9682 21.1853 19.0614 21.2542 19.1635 21.3101C19.2373 21.3506 19.2534 21.3888 19.2325 21.4769C19.0517 22.2337 18.881 22.9932 18.8703 23.7768C18.8567 24.7836 19.2395 25.6376 19.8984 26.3765C20.4517 26.9968 21.1334 27.4623 21.8185 27.9213C22.1424 28.1382 22.451 28.3707 22.702 28.6748C22.88 28.8908 23.1483 28.889 23.4162 28.676C23.4749 28.6295 23.5028 28.6101 23.5569 28.6766C23.607 28.7386 23.6833 28.7273 23.7462 28.7012C23.8118 28.9597 23.7844 29.2074 23.7838 29.4574C23.7823 30.0304 24.0029 30.5189 24.4662 30.8795C24.6585 31.029 24.8347 31.1903 24.9687 31.3993C25.0942 31.5953 25.0626 31.8095 25.0732 32.0179C25.0936 32.4241 25.3175 32.7656 25.6641 32.891C25.6878 32.8995 25.7112 32.9102 25.7355 32.9156C25.9403 32.9609 25.936 32.9588 25.8509 33.1572C25.7161 33.4719 25.6395 33.7979 25.6942 34.1913C25.4387 33.8444 25.1264 33.6241 24.825 33.3908C24.725 33.3133 24.6819 33.1961 24.6281 33.0885C24.5002 32.8324 24.3428 32.5994 24.1174 32.4189C24.05 32.3648 24.0205 32.3001 24.0014 32.2166C23.8947 31.7527 23.7249 31.3188 23.3789 30.9737C23.3029 30.898 23.2215 30.826 23.1224 30.7887C22.9207 30.7127 22.8031 30.569 22.7083 30.3798C22.5476 30.0592 22.3663 29.749 22.136 29.4705C22.0302 29.3425 21.9002 29.249 21.7498 29.1849C21.6019 29.1217 21.518 29.0193 21.4567 28.8656C21.2112 28.2494 20.867 27.7038 20.2745 27.3572C20.2004 27.3137 20.1612 27.2457 20.1238 27.173C19.934 26.8045 19.7307 26.4439 19.4922 26.1042C19.3531 25.9062 19.189 25.7379 18.9502 25.6616C18.857 25.6318 18.8257 25.5692 18.8105 25.4714C18.7339 24.9826 18.5346 24.5451 18.2281 24.1568C18.1552 24.0645 18.0698 23.9745 17.9613 23.9381C17.8213 23.8913 17.773 23.7883 17.7219 23.6701C17.6056 23.4016 17.4847 23.1342 17.2999 22.903C17.0599 22.6022 16.8476 22.5442 16.4967 22.6907C16.438 22.715 16.428 22.6989 16.4186 22.6481C16.3919 22.5038 16.3803 22.3583 16.3751 22.2115C16.3724 22.138 16.408 22.1286 16.4672 22.1323C16.9451 22.1602 17.2267 21.8938 17.4163 21.4936C17.4394 21.445 17.467 21.4061 17.5172 21.3879C17.906 21.2454 18.1348 20.9444 18.2976 20.585C18.3912 20.379 18.4973 20.1906 18.6923 20.0612C18.7907 19.9959 18.8488 19.8886 18.9007 19.785C18.9575 19.6717 19.0444 19.6258 19.1602 19.6556C19.4135 19.7209 19.5879 19.6119 19.7353 19.4205C19.8216 19.3083 19.92 19.2054 19.9826 19.0768C20.0066 19.0276 20.0342 19.0064 20.0892 19.0279C20.1169 19.0389 20.1488 19.0386 20.1779 19.0462C20.4015 19.1063 20.4 19.1066 20.3954 19.3339C20.3857 19.8166 20.6358 20.1648 20.9839 20.4613C21.0183 20.4905 21.0547 20.5178 21.0897 20.5464C21.0927 20.5491 21.093 20.5552 21.1082 20.5998L21.1073 20.5986Z" fill="#E6A07E"></path>
<path d="M13.2112 14.884C13.2295 14.5735 13.2829 14.2505 13.3847 13.937C13.4294 13.7997 13.5266 13.7207 13.6767 13.7155C14.0258 13.7031 14.2861 13.8635 14.4912 14.1317C14.7774 14.506 15.0137 14.9134 15.2568 15.3151C15.786 16.1894 16.53 16.8183 17.4223 17.2947C17.9121 17.5563 18.4118 17.7698 18.9648 17.8592C19.2792 17.9099 19.5508 18.0779 19.7908 18.286C20.0287 18.4923 20.0554 18.629 19.9327 18.9213C19.8388 19.1452 19.6863 19.3275 19.508 19.4867C19.384 19.5973 19.2397 19.5359 19.1036 19.5037C18.7311 19.4156 18.4049 19.2157 18.0576 19.0662C17.5758 18.8584 17.0602 18.7256 16.6078 18.4531C15.659 17.881 14.726 17.285 13.9459 16.485C13.5175 16.0457 13.227 15.5362 13.2109 14.884H13.2112Z" fill="#EEDF8C"></path>
<path d="M20.7374 18.9141C21.0874 18.6419 21.612 18.647 22.0431 18.9226C22.3342 19.1088 22.5186 19.3847 22.6899 19.673C22.8306 19.91 22.9883 20.1311 23.2392 20.2651C23.3061 20.3007 23.3723 20.3405 23.4437 20.3636C23.8183 20.4851 24.0303 20.7634 24.161 21.1134C24.2527 21.3591 24.3278 21.611 24.4077 21.861C24.4943 22.1323 24.6015 22.3963 24.7814 22.6175C25.1678 23.0924 25.3152 23.6511 25.3869 24.2414C25.4248 24.5522 25.4734 24.8593 25.5907 25.1546C25.7296 25.5043 25.7782 25.8774 25.8149 26.2489C25.8414 26.5172 25.7666 26.77 25.6266 27.0012C25.5819 27.075 25.5324 27.1455 25.4467 27.178C25.3568 27.1786 25.2966 27.1415 25.2799 27.0483C25.2872 27.0021 25.3082 26.9614 25.334 26.924C25.5776 26.5725 25.574 26.1867 25.4977 25.7884C25.4519 25.5493 25.385 25.3175 25.2954 25.0911C25.1787 24.7961 25.2006 24.471 25.1034 24.1724C25.0436 23.9877 25.0548 23.7923 24.9946 23.6088C24.9099 23.3515 24.7516 23.1413 24.6027 22.9177C24.4159 22.637 24.2035 22.3626 24.127 22.012C23.993 21.3977 23.6749 20.9104 23.1059 20.5948C22.6939 20.3663 22.3579 20.05 22.1276 19.625C22.017 19.4205 21.8372 19.261 21.6564 19.1158C21.5646 19.042 21.4304 19.035 21.3176 18.9906C21.2709 18.9721 21.2192 18.9654 21.1837 18.9247C21.1515 19.0569 21.1533 19.0775 21.2551 19.0961C21.671 19.1714 21.9043 19.4755 22.1042 19.7985C22.3035 20.1205 22.545 20.3863 22.8695 20.5802C23.0955 20.7154 23.3085 20.8691 23.5127 21.0359C23.6807 21.1732 23.7682 21.3616 23.8496 21.5511C23.9031 21.6757 23.9498 21.8057 23.9793 21.9394C24.0547 22.283 24.2181 22.5817 24.4381 22.8524C24.7604 23.2488 24.9302 23.7079 24.9955 24.2092C25.0527 24.6467 25.1754 25.0656 25.3082 25.4867C25.4467 25.9266 25.5251 26.3881 25.2626 26.825C25.2258 26.8863 25.2198 26.9599 25.1812 27.0203C25.1721 27.0267 25.1587 27.0325 25.1541 27.0267C24.9011 26.7138 24.6176 26.4191 24.5286 26.0062C24.5061 25.9023 24.4447 25.7832 24.6267 25.7498C24.6814 25.7398 24.6477 25.6954 24.6267 25.6671C24.5456 25.5569 24.4496 25.4596 24.3509 25.3655C24.0252 25.055 23.8411 24.6661 23.7293 24.2383C23.6782 24.0427 23.6235 23.8464 23.6169 23.6432C23.612 23.4885 23.6643 23.4463 23.7955 23.463C23.4528 23.1243 23.0524 22.8344 22.73 22.4626C22.5247 22.2256 22.3688 21.9631 22.3667 21.6335C22.3661 21.5202 22.3922 21.4232 22.4837 21.3512C22.5541 21.2956 22.5806 21.2106 22.6289 21.1404C22.6991 21.0383 22.6644 20.9851 22.5575 20.9529C22.2765 20.8682 22.0064 20.7521 21.7302 20.6537C21.0898 20.4249 20.7222 19.9665 20.645 19.2875C20.6301 19.1571 20.6514 19.0247 20.7365 18.9132L20.7374 18.9141Z" fill="#EEDF8D"></path>
<path d="M20.704 18.5844C20.724 18.2332 20.9573 18.036 21.2353 17.8868C21.6695 17.6541 22.165 17.5797 22.6113 17.3846C22.9233 17.2482 23.1739 17.3564 23.4446 17.4545C23.9632 17.6426 24.4578 17.878 24.9117 18.1937C24.9779 18.2399 25.1104 18.2736 24.9825 18.3988C24.9509 18.4297 24.9871 18.4744 25.0162 18.5042C25.334 18.8283 25.4829 19.2412 25.6287 19.6571C25.7022 19.8665 25.7879 20.0715 25.8714 20.2775C25.9137 20.3814 25.883 20.4227 25.7721 20.4246C25.406 20.4303 25.0496 20.4941 24.7036 20.6135C24.5553 20.6649 24.4113 20.7275 24.2886 20.8265C24.2263 20.8769 24.1956 20.8818 24.1534 20.8037C24.0164 20.55 23.8119 20.3687 23.5388 20.2711C23.1803 20.1432 22.9467 19.8835 22.7653 19.5608C22.559 19.1935 22.3002 18.8733 21.8967 18.7074C21.5528 18.5659 21.2028 18.5452 20.8531 18.6925C20.7037 18.7554 20.7018 18.7554 20.7034 18.5847L20.704 18.5844Z" fill="#FB7C00"></path>
<path d="M17.2747 21.5007C17.0857 21.8983 16.7995 22.0536 16.3535 21.998C16.1515 21.9728 15.9571 21.9175 15.7742 21.8285C15.5785 21.7331 15.3817 21.6413 15.1742 21.5757C14.7537 21.4426 14.3894 21.2066 14.0428 20.945C13.3732 20.4395 12.6595 19.995 12.0082 19.4645C11.2298 18.8308 10.6614 18.0488 10.3223 17.1027C10.2625 16.9359 10.2233 16.7634 10.213 16.5853C10.1984 16.3359 10.2613 16.1126 10.4454 15.9367C10.6471 15.7441 10.8826 15.5989 11.1311 15.4746C11.1748 15.5156 11.1669 15.5658 11.1551 15.6159C11.077 15.9479 11.0761 16.2758 11.2055 16.5972C11.2167 16.6254 11.2292 16.654 11.2338 16.6838C11.3234 17.2808 11.6737 17.738 12.0316 18.1946C12.6219 18.9471 13.341 19.5505 14.1291 20.0849C14.6346 20.4279 15.1647 20.7184 15.7265 20.9517C15.9689 21.0525 16.2308 21.0981 16.4821 21.1759C16.743 21.2567 16.9839 21.3925 17.2519 21.453C17.2747 21.4581 17.2808 21.4782 17.2744 21.5007H17.2747Z" fill="#EEDF8C"></path>
<path d="M26.6829 27.1785C26.2585 26.683 26.2336 26.1298 26.4487 25.5431C26.4885 25.4344 26.5313 25.325 26.5872 25.2241C26.6841 25.0488 26.6453 24.8969 26.5341 24.7468C26.4469 24.6293 26.3667 24.5065 26.2819 24.3868C26.0686 24.0857 26.0173 23.7534 26.1203 23.4049C26.2333 23.023 26.2309 22.6639 26.0155 22.3121C25.8666 22.0685 25.8669 21.7911 25.9058 21.5161C25.9462 21.2312 25.9936 20.9474 26.0379 20.663C26.0589 20.5294 26.0334 20.3999 25.9875 20.2766C25.8472 19.8977 25.7016 19.5207 25.5573 19.1434C25.4589 18.8858 25.3125 18.6573 25.125 18.4549C25.369 18.2967 25.8645 18.3033 26.1048 18.4644C26.5341 18.6679 26.6954 19.0361 26.7249 19.4821C26.7407 19.7209 26.7215 19.9573 26.6361 20.1845C26.5942 20.2966 26.6039 20.4024 26.6787 20.4999C26.8017 20.6603 26.9035 20.8371 27.042 20.9851C27.1383 21.0878 27.1797 21.2081 27.1803 21.3436C27.1815 21.7224 27.1985 22.1019 27.1326 22.4783C27.1064 22.6284 27.1077 22.7818 27.1742 22.9252C27.3395 23.2831 27.3592 23.6546 27.2872 24.0374C27.2526 24.2212 27.2353 24.4108 27.1772 24.5873C27.1025 24.8143 27.1654 25.0048 27.2778 25.1916C27.3853 25.3706 27.4613 25.5626 27.5378 25.7555C27.6487 26.0347 27.5804 26.3139 27.5549 26.5934C27.5479 26.6705 27.4996 26.7222 27.4209 26.7392C27.1636 26.7951 26.9579 26.9343 26.7856 27.129C26.7592 27.1591 26.7309 27.1907 26.6829 27.1785Z" fill="#EEDF8D"></path>
<path d="M15.419 26.8758C15.2777 26.593 15.2054 26.2867 15.1234 25.9844C15.0948 25.879 15.0486 25.776 15.0523 25.663C15.0435 25.6168 15.0368 25.5688 15.1052 25.6165C15.1437 25.6436 15.155 25.6916 15.1686 25.7347C15.2188 25.8933 15.2674 26.0522 15.3236 26.1953C15.2777 26.0139 15.244 25.818 15.254 25.6165C15.2656 25.3838 15.2331 25.1526 15.2264 24.9208C15.2145 24.5019 15.2492 24.0829 15.2665 23.6649C15.275 23.4595 15.2962 23.2438 15.354 23.0393C15.3649 23.0001 15.3786 22.9594 15.3725 22.9202C15.3242 22.5949 15.5347 22.3606 15.6587 22.096C15.7061 21.9948 15.7787 21.9669 15.8805 22.0094C15.9892 22.0276 16.0877 22.0908 16.2031 22.0832C16.2672 22.079 16.2733 22.1258 16.2739 22.175C16.2763 22.346 16.2611 22.5183 16.3243 22.6842C16.3468 22.7434 16.3131 22.7829 16.2542 22.7932C15.8632 22.861 15.6854 23.2663 15.6623 23.6047C15.6402 23.9286 15.6912 24.2372 15.8167 24.535C15.8474 24.6079 15.8522 24.6817 15.8297 24.7571C15.7286 25.0925 15.8197 25.4057 15.944 25.7128C16.0451 25.9635 16.194 26.1828 16.4052 26.3557C16.4486 26.3912 16.4535 26.4386 16.4614 26.49C16.5203 26.8725 16.5489 27.262 16.7226 27.6186C16.8475 27.875 17.0289 28.0762 17.2743 28.2205C17.353 28.267 17.4141 28.3192 17.4238 28.4259C17.4733 28.9642 17.6875 29.4081 18.2064 29.6356C18.4021 29.7213 18.4036 29.8844 18.4428 30.0366C18.5431 30.428 18.7712 30.7184 19.1166 30.9183C19.2096 30.9721 19.2476 31.0353 19.2564 31.1452C19.2689 31.2984 19.3099 31.45 19.3475 31.5997C19.3636 31.6642 19.3785 31.7267 19.3734 31.793C19.3327 31.8215 19.291 31.8057 19.261 31.7814C19.12 31.6663 18.9599 31.5757 18.8292 31.4484C18.5184 31.1452 18.2131 30.8357 17.9224 30.5136C17.7577 30.331 17.6274 30.1184 17.4636 29.9324C17.1768 29.6071 16.9198 29.2577 16.6588 28.9116C16.5771 28.8032 16.5224 28.6753 16.4416 28.5647C16.4088 28.5197 16.3845 28.4644 16.3325 28.441C16.242 28.4003 16.2554 28.3371 16.2839 28.2667C16.1992 28.3107 16.1606 28.2509 16.1317 28.1913C16.1044 28.1348 16.1071 28.0734 16.1518 28.0142C16.0697 28.057 16.0187 28.0595 16.0023 27.9477C15.9832 27.8161 15.9336 27.6934 15.8045 27.6238C15.7665 27.6034 15.7386 27.5643 15.7368 27.5269C15.7249 27.2975 15.536 27.1356 15.5071 26.9147C15.4977 26.843 15.4673 26.8451 15.4184 26.8755L15.419 26.8758Z" fill="#C9202D"></path>
<path d="M18.8262 19.68C18.701 19.916 18.5464 20.1208 18.249 20.1269C18.0245 20.1317 17.8054 20.0834 17.6025 19.9859C16.8609 19.6298 16.0819 19.354 15.3607 18.9545C14.6844 18.5799 14.0938 18.0923 13.5311 17.5661C13.0307 17.0979 12.6182 16.5677 12.3341 15.9428C12.1846 15.6138 12.0968 15.2662 12.0655 14.9056C12.0616 14.8616 12.0583 14.809 12.0774 14.7722C12.2952 14.353 12.6167 14.051 13.0748 13.9082C13.1347 13.9872 13.0839 14.0647 13.0654 14.1388C12.9621 14.5559 12.9162 14.9743 13.0201 15.3984C13.1231 15.8192 13.3036 16.1965 13.6204 16.5015C13.8207 16.6944 14.0084 16.8992 14.1971 17.1037C14.599 17.5396 15.0915 17.8598 15.6028 18.1491C16.2624 18.5218 16.9143 18.9104 17.6131 19.2085C17.967 19.3594 18.3453 19.439 18.7092 19.5612C18.7657 19.58 18.8529 19.5764 18.8262 19.6803V19.68Z" fill="#EEDF8C"></path>
<path d="M20.6959 31.2864C20.5115 31.0245 20.2888 30.8422 20.002 30.7453C19.9173 30.7167 19.8945 30.6481 19.8848 30.5682C19.8155 29.9864 19.5494 29.5422 18.997 29.297C18.9202 29.263 18.8965 29.1907 18.8798 29.1132C18.7768 28.6308 18.565 28.1994 18.1743 27.8962C17.9841 27.7485 17.9346 27.5914 17.9003 27.3721C17.8143 26.8216 17.5907 26.3179 17.1669 25.9478C16.9965 25.799 16.9585 25.6474 16.9339 25.4548C16.9035 25.2181 16.8367 24.9848 16.7097 24.7855C16.566 24.5603 16.562 24.337 16.624 24.0949C16.6477 24.0026 16.6574 23.9069 16.6766 23.7969C16.8361 24.0919 17.0712 24.2866 17.3811 24.3896C17.4549 24.4142 17.4497 24.4753 17.4561 24.5376C17.4981 24.9298 17.5536 25.318 17.7724 25.6617C17.8465 25.7777 17.9188 25.8995 18.0382 25.967C18.2819 26.1043 18.3557 26.3352 18.4307 26.5801C18.572 27.04 18.7455 27.4869 19.1158 27.8223C19.1717 27.8731 19.2258 27.9311 19.2911 27.966C19.509 28.0827 19.6244 28.2717 19.7025 28.4965C19.8933 29.0455 20.284 29.3909 20.8229 29.5814C20.8718 29.5987 20.9183 29.6212 20.9338 29.6756C20.9873 29.8621 21.055 30.0465 21.0842 30.237C21.0979 30.3269 21.0399 30.4296 21.0077 30.5241C20.9208 30.7787 20.8351 31.0342 20.6959 31.2861V31.2864Z" fill="#4D3B39"></path>
<path d="M18.1313 20.6533C18.0383 20.8414 17.9141 21.0009 17.746 21.1318C17.6014 21.2445 17.4495 21.2473 17.2894 21.2026C17.1682 21.1689 17.0455 21.1312 16.9334 21.075C16.4901 20.8535 16.0329 20.6676 15.5705 20.4896C14.8562 20.2146 14.2471 19.758 13.6349 19.3102C13.2187 19.0058 12.8125 18.6874 12.4576 18.3125C11.95 17.776 11.5666 17.1616 11.4125 16.4301C11.3326 16.0512 11.312 15.6724 11.5745 15.3288C11.6413 15.2413 11.6954 15.1392 11.7753 15.0581C11.8297 15.0481 11.8327 15.0927 11.8364 15.1237C11.9062 15.7413 12.1833 16.2785 12.4744 16.8144C12.9954 17.7747 13.7403 18.5179 14.6253 19.1434C15.4745 19.7434 16.4211 20.1068 17.4134 20.3741C17.6136 20.4282 17.8102 20.4944 18.0125 20.5415C18.0696 20.5549 18.1361 20.5683 18.1307 20.6527L18.1313 20.6533Z" fill="#EEDF8C"></path>
<path d="M30.2764 14.8191C30.5031 14.7796 30.6264 14.9242 30.7242 15.0879C30.9457 15.4577 30.9995 15.8666 30.9533 16.2868C30.7987 17.6931 30.0841 18.8321 29.2052 19.8863C28.7188 20.4696 28.1668 20.9888 27.5658 21.4543C27.5355 21.4777 27.5121 21.5156 27.4501 21.515C27.4668 21.251 27.43 20.997 27.2891 20.768C27.5415 20.541 27.746 20.2691 27.9666 20.0145C28.2336 19.7068 28.4581 19.361 28.6629 19.0062C28.7537 18.8488 28.8312 18.6835 28.9205 18.5252C29.1216 18.1692 29.2435 17.7809 29.3158 17.3844C29.4659 16.5602 29.7906 15.8004 30.1251 15.0424C30.1613 14.9603 30.1983 14.8747 30.2764 14.8191Z" fill="#EEDF8C"></path>
<path d="M17.0889 31.459C17.1472 31.6149 17.1041 31.7786 17.1275 31.9384C17.1828 32.3145 17.3341 32.6651 17.4012 33.0376C17.4516 33.3174 17.4623 33.5966 17.4182 33.8776C17.3653 34.2173 17.1654 34.371 16.7872 34.4056C16.3388 34.4464 15.8916 34.409 15.4444 34.3731C15.3344 34.3643 15.2247 34.3516 15.115 34.3409C15.0789 34.3072 15.0704 34.2629 15.0676 34.2167C15.0251 33.5103 14.9804 32.804 15.0579 32.0973C15.0664 32.0204 15.0491 31.946 15.0446 31.8707C15.0364 31.73 15.0831 31.6747 15.222 31.6607C15.2925 31.6537 15.3639 31.6534 15.4343 31.6589C15.9545 31.7002 16.4643 31.6607 16.9558 31.4702C16.9977 31.4538 17.0421 31.4386 17.0883 31.459H17.0889Z" fill="#EEDF8C"></path>
<path d="M24.4727 27.0538C24.5954 27.1617 24.7099 27.2722 24.8786 27.3212C25.3312 27.4527 25.6338 27.3236 25.8073 26.932C25.9559 26.5972 25.9477 26.2511 25.8927 25.8933C25.8319 25.4974 25.6925 25.1271 25.5867 24.7455C25.5387 24.572 25.5299 24.3876 25.5011 24.2086C25.4178 23.6922 25.3467 23.1617 25.0077 22.7428C24.6158 22.2588 24.4912 21.6709 24.2883 21.1113C24.2585 21.0293 24.2758 20.9764 24.3511 20.922C24.5684 20.7659 24.8151 20.6826 25.07 20.6249C25.3209 20.5681 25.5764 20.5322 25.8359 20.5566C25.8848 20.6295 25.8517 20.7048 25.8359 20.7759C25.7839 21.0065 25.7617 21.2441 25.7149 21.4725C25.6268 21.9027 25.7468 22.2725 25.9431 22.6304C26.0801 22.8801 26.0099 23.1134 25.9492 23.3586C25.8766 23.6518 25.8902 23.9507 25.9422 24.2448C25.9701 24.4022 26.0646 24.5322 26.1925 24.6318C26.2569 24.682 26.3107 24.7415 26.3633 24.8035C26.452 24.908 26.4581 25.011 26.3967 25.138C26.171 25.6052 26.0777 26.0941 26.2023 26.6084C26.2475 26.795 26.3113 26.9776 26.4025 27.1459C26.5103 27.3449 26.5 27.525 26.3772 27.7116C26.2913 27.8419 26.1843 27.8756 26.0601 27.7784C25.8182 27.5891 25.5512 27.508 25.2422 27.5192C25.0399 27.5265 24.8667 27.5982 24.6981 27.6873C24.5307 27.7757 24.3414 27.8395 24.239 28.0205C24.226 28.0436 24.1974 28.0464 24.171 28.0385C24.1111 27.9819 24.1239 27.909 24.1321 27.841C24.1676 27.5454 24.308 27.2941 24.4727 27.0538Z" fill="#C9202D"></path>
<path d="M21.1976 22.4327C21.1174 22.3385 20.9971 22.3111 20.895 22.254C20.7644 22.1808 20.6341 22.1082 20.5168 22.014C20.5396 21.9791 20.6091 21.9782 20.5338 21.8986C20.336 21.6895 20.0769 21.5714 19.8596 21.3955C19.6725 21.2439 19.5388 21.0358 19.3657 20.8671C19.3471 20.8492 19.3462 20.8213 19.3669 20.7988C19.7038 20.824 20.0386 20.8231 20.3682 20.7347C20.4585 20.7092 20.5511 20.6952 20.6435 20.6797C20.6735 20.6797 20.7039 20.6803 20.734 20.6806C21.0712 20.6739 21.2936 20.9039 21.5403 21.0792C21.6254 21.1397 21.6937 21.2262 21.7749 21.2934C21.9796 21.4629 22.0853 21.6823 22.1391 21.9378C22.2318 22.3771 22.4311 22.7587 22.8081 23.0193C23.008 23.1579 23.0466 23.3875 23.1706 23.5677C23.313 23.7752 23.2872 24.0222 23.3516 24.2476C23.4294 24.5201 23.4996 24.7902 23.7025 25.0056C23.845 25.1572 23.8395 25.3696 23.8994 25.5549C23.979 25.801 23.9608 26.0641 24.0246 26.3135C24.0358 26.3576 24.0379 26.4053 24.0631 26.4432C24.1716 26.6055 24.1285 26.758 24.071 26.9315C23.9699 27.2383 23.8341 27.5327 23.7514 27.8459C23.7098 28.0033 23.6819 28.1589 23.7059 28.3244C23.7174 28.4049 23.7353 28.4961 23.6803 28.5745C23.571 28.5462 23.5688 28.4526 23.5552 28.367C23.5066 28.0653 23.553 27.7636 23.5582 27.4619C23.5658 27.002 23.5883 26.5408 23.5385 26.0835C23.492 25.6597 23.3981 25.2429 23.2374 24.8446C23.2304 24.8273 23.211 24.8151 23.1973 24.8009C23.1037 24.6508 23.0478 24.4828 22.9728 24.3239C22.7559 23.8651 22.4332 23.4808 22.1002 23.1096C21.8894 22.8744 21.6154 22.7 21.3389 22.5393C21.2875 22.5095 21.2241 22.4952 21.1973 22.4327H21.1976Z" fill="#CA202D"></path>
<path d="M17.3329 35.8967C17.3922 35.8779 17.4259 35.9043 17.4529 35.9565C17.4952 36.0386 17.5304 36.1252 17.5325 36.2148C17.5398 36.5465 17.6273 36.8628 17.709 37.18C17.7698 37.4148 17.8075 37.6524 17.84 37.8927C17.8822 38.202 17.7583 38.4183 17.51 38.5848C17.2242 38.7765 16.8927 38.8552 16.5755 38.9694C16.2577 39.084 15.9466 39.2179 15.6115 39.2811C15.4958 39.303 15.3819 39.3091 15.2658 39.2963C15.1877 39.255 15.1744 39.179 15.1677 39.1028C15.1236 38.6091 15.1464 38.1142 15.1473 37.6199C15.1473 37.461 15.2445 37.3586 15.3904 37.3055C15.7088 37.1891 16.0193 37.0572 16.3091 36.8786C16.6904 36.6438 17.0625 36.4016 17.263 35.9766C17.2782 35.9444 17.3071 35.9216 17.3326 35.897L17.3329 35.8967Z" fill="#EEDF8C"></path>
<path d="M17.3289 34.4977C17.3991 34.8833 17.3894 35.2694 17.3362 35.6555C17.3301 35.699 17.3183 35.7564 17.2879 35.7795C16.9741 36.0189 16.7641 36.3658 16.4354 36.5907C16.0885 36.8279 15.7163 37.0133 15.3262 37.1658C15.2402 37.1278 15.2469 37.0427 15.2317 36.9716C15.1925 36.7881 15.202 36.5983 15.1707 36.4145C15.0771 35.8658 15.061 35.3098 15.009 34.7572C14.9969 34.6278 15.075 34.564 15.2275 34.5843C15.3827 34.605 15.5389 34.6192 15.6935 34.6408C16.1392 34.7025 16.5694 34.6129 17.0029 34.5396C17.1108 34.5214 17.2147 34.4664 17.3289 34.4977Z" fill="#EEDF8D"></path>
<path d="M16.0504 28.5491C16.308 28.9404 16.5541 29.3396 16.8467 29.7069C17.0636 29.9789 17.275 30.2553 17.4968 30.5233C17.5627 30.6029 17.5448 30.636 17.4798 30.7037C17.3164 30.8754 17.114 31.0012 16.9506 31.1746C16.8564 31.2746 16.7027 31.305 16.5632 31.3345C16.167 31.418 15.7633 31.4308 15.362 31.4645C15.3285 31.4818 15.2924 31.4706 15.2581 31.4757C15.1438 31.493 15.1058 31.4365 15.1034 31.3308C15.0955 30.9869 15.1113 30.6466 15.1821 30.307C15.2702 29.8835 15.4324 29.4861 15.5932 29.0893C15.6831 28.8669 15.8322 28.6734 16.0504 28.5488V28.5491Z" fill="#EEDF8D"></path>
<path d="M20.9726 33.492C21.1178 33.2091 21.263 32.9263 21.421 32.6191C21.5571 32.9233 21.7063 33.1955 21.8643 33.4625C22.2337 34.0865 22.6387 34.6869 23.1816 35.1736C23.5887 35.5384 23.9961 35.5324 24.3303 35.1994C24.4579 35.0724 24.5469 34.9214 24.6004 34.7239C24.7663 34.9448 24.8738 35.1678 24.92 35.4184C24.9674 35.6767 25.0099 35.9358 25.0543 36.1944C25.0597 36.2323 25.0351 36.2548 25.0057 36.2603C24.6858 36.3201 24.3901 36.4918 24.0481 36.4559C23.7898 36.4289 23.5589 36.3375 23.3399 36.2068C23.3089 36.1883 23.2846 36.1628 23.2773 36.1254C23.3356 36.0382 23.4225 36.0643 23.4948 36.085C23.6987 36.1427 23.9059 36.1266 24.1125 36.1281C24.1428 36.1281 24.1738 36.1281 24.2027 36.119C24.2747 36.0959 24.3844 36.0659 24.3637 35.9905C24.3379 35.896 24.2431 35.9714 24.1842 35.989C23.9074 36.0704 23.6406 36.0224 23.3839 35.9212C22.9279 35.7417 22.6041 35.3902 22.2826 35.0393C22.2279 34.9797 22.1793 34.915 22.1149 34.8649C22.0988 34.8524 22.0788 34.8415 22.0596 34.8527C22.0305 34.8698 22.0399 34.8986 22.0526 34.919C22.1061 35.0046 22.169 35.0839 22.2371 35.1584C22.2817 35.2067 22.317 35.2526 22.2641 35.3157C22.1869 35.3452 22.1535 35.2778 22.1146 35.2395C21.7853 34.9144 21.5043 34.5508 21.277 34.1473C21.1752 33.9665 21.0941 33.7748 20.9954 33.5922C20.9787 33.5616 20.9611 33.53 20.9723 33.4923L20.9726 33.492Z" fill="#EDE08C"></path>
<path d="M18.9844 23.8742C19.016 23.1326 19.1366 22.442 19.2958 21.7576C19.297 21.7527 19.2988 21.7478 19.3012 21.7433C19.3514 21.647 19.3037 21.451 19.3924 21.4531C19.5306 21.4565 19.6686 21.5613 19.8019 21.6321C19.8569 21.6613 19.8162 21.7135 19.8013 21.7536C19.5145 22.5301 19.4328 23.3346 19.4936 24.154C19.5592 25.0408 19.8998 25.7912 20.6192 26.3469C20.7872 26.4766 20.9254 26.6398 21.0615 26.8029C21.6339 27.4901 22.3658 27.9033 23.2389 28.0801C23.2948 28.0914 23.403 28.0181 23.4118 28.1503C23.4221 28.3089 23.5057 28.4821 23.32 28.6027C23.0554 28.7743 22.9445 28.7643 22.7352 28.5216C22.4542 28.1953 22.1042 27.9565 21.7496 27.7225C21.2086 27.3659 20.6869 26.9828 20.2191 26.5337C19.4544 25.7994 19.0242 24.9068 18.9844 23.8745V23.8742Z" fill="#EEE08D"></path>
<path d="M29.3338 15.9407C29.16 16.6043 29.0813 17.29 28.865 17.9438C28.6399 18.6243 28.2279 19.1872 27.7616 19.7168C27.565 19.9401 27.3669 20.1622 27.1667 20.3824C27.1266 20.4268 27.0637 20.5164 27.0224 20.4742C26.9507 20.401 26.8252 20.3429 26.8681 20.1929C26.9553 19.8863 27.0139 19.5746 26.9863 19.2532C26.9841 19.1025 27.081 19.0056 27.1728 18.9053C27.4526 18.6 27.7579 18.3174 27.9712 17.9547C28.1754 17.6071 28.3078 17.2301 28.4421 16.8543C28.512 16.6583 28.5806 16.4651 28.6861 16.2841C28.8079 16.0744 28.9838 15.9432 29.2098 15.8736C29.2657 15.8566 29.349 15.8159 29.3338 15.941V15.9407Z" fill="#EEDF8C"></path>
<path d="M21.1999 22.4339C21.6212 22.6302 21.9861 22.9024 22.2857 23.2575C22.6442 23.6822 22.9711 24.1282 23.1673 24.6563C23.1853 24.7043 23.202 24.7504 23.1998 24.8021C23.1704 24.8285 23.2554 24.9263 23.1394 24.8987C23.0926 24.8838 23.0759 24.8534 23.0896 24.8057C23.0583 24.9057 23.01 24.9983 22.958 25.0889C22.9027 25.1852 22.8526 25.2864 22.7803 25.3708C22.7204 25.4407 22.6746 25.5352 22.5615 25.5382C22.4795 25.4741 22.2857 25.5094 22.228 25.6038C22.1964 25.6555 22.1669 25.7044 22.1034 25.7193C22.0426 25.7381 22.0086 25.6938 21.9761 25.6585C21.7048 25.362 21.4356 25.0637 21.205 24.7334C21.1664 24.6781 21.0908 24.6031 21.2272 24.5636C21.4526 24.59 21.6143 24.481 21.7467 24.3151C21.8652 24.1668 21.9497 24.0016 21.9691 23.8095C21.9861 23.6428 21.9217 23.4829 21.8145 23.4422C21.6638 23.3851 21.5389 23.4438 21.4298 23.5483C21.195 23.7725 21.089 24.0538 21.0674 24.3719C21.0461 24.4226 21.0155 24.4287 20.9805 24.3865C20.9428 24.3409 20.8927 24.3011 20.8702 24.2482C20.8359 24.1668 20.7612 24.1279 20.7083 24.0669C20.694 24.0167 20.6968 23.9651 20.6974 23.9138C20.7296 23.6783 20.8936 23.5197 21.0358 23.352C21.1728 23.1901 21.3348 23.0512 21.5055 22.9236C21.5365 22.9005 21.6082 22.8881 21.5702 22.8276C21.5395 22.7787 21.4809 22.783 21.4338 22.8121C21.3004 22.8945 21.1674 22.9771 21.0464 23.0777C20.9106 23.191 20.7721 23.301 20.6682 23.4474C20.6418 23.4845 20.6062 23.5145 20.5567 23.5191C20.4546 23.4477 20.4488 23.403 20.5464 23.2952C20.7126 23.1111 20.8921 22.9407 21.0984 22.8006C21.1318 22.7778 21.1661 22.7562 21.1993 22.7332C21.3086 22.6563 21.3074 22.6532 21.1947 22.5849C21.1464 22.5557 21.0744 22.5496 21.0701 22.471C21.1036 22.423 21.1567 22.4445 21.2005 22.4336L21.1999 22.4339Z" fill="#010102"></path>
<path d="M13.532 27.7203C13.2361 27.6918 12.9456 27.6337 12.657 27.5636C12.5565 27.539 12.5416 27.4824 12.5634 27.3971C12.6169 27.189 12.6962 26.9891 12.7542 26.7819C12.8363 26.4884 12.9417 26.201 13.0432 25.913C13.1601 25.5818 13.2704 25.2485 13.4193 24.9292C13.5083 24.7384 13.5763 24.5382 13.6565 24.3432C13.6866 24.27 13.6948 24.2122 13.8021 24.3083C14.0603 24.5388 14.3392 24.7509 14.6925 24.8244C14.8317 24.8533 14.8037 24.9569 14.8004 25.0511C14.707 24.9611 14.6269 24.9812 14.5601 25.1112C14.1724 25.8604 13.8558 26.6391 13.593 27.4402C13.563 27.532 13.5645 27.6295 13.532 27.72V27.7203Z" fill="#771F2B"></path>
<path d="M18.1291 20.653C18.1091 20.5941 18.0574 20.5935 18.0076 20.5801C17.4811 20.44 16.9588 20.2866 16.4415 20.1147C15.5158 19.8072 14.7079 19.3002 13.9618 18.6855C13.3107 18.1496 12.7964 17.5031 12.3978 16.7588C12.1921 16.3748 11.9949 15.9899 11.8786 15.5691C11.8324 15.402 11.8078 15.2285 11.7734 15.0581C11.8108 15.004 11.8728 14.9955 11.9411 14.9551C11.9797 15.2483 12.0292 15.5226 12.1304 15.7848C12.3996 16.4817 12.8404 17.0583 13.3687 17.5773C14.2732 18.4659 15.3004 19.164 16.4879 19.6204C16.6809 19.6945 16.8668 19.7875 17.0564 19.8704C17.4601 20.0469 17.842 20.2945 18.3342 20.2417C18.2576 20.3954 18.1935 20.5245 18.1294 20.6533L18.1291 20.653Z" fill="#9A925B"></path>
<path d="M21.5034 30.7852C21.6228 30.8948 21.7434 31.006 21.891 31.0735C22.0044 31.1251 21.988 31.192 21.9466 31.2764C21.7674 31.644 21.5945 32.0147 21.408 32.3786C21.0972 32.985 20.808 33.6027 20.3933 34.1511C19.953 34.7332 19.3974 35.1801 18.7907 35.5714C18.7743 35.582 18.7536 35.5856 18.7348 35.5926C18.7014 35.5355 18.6992 35.534 18.7533 35.4605C18.9237 35.2287 19.0872 34.9917 19.2525 34.7559C19.8947 33.8406 20.4753 32.889 20.9459 31.8725C21.086 31.5702 21.2491 31.2788 21.3679 30.9662C21.3946 30.8957 21.4189 30.8158 21.5034 30.7852Z" fill="#FDFDFD"></path>
<path d="M23.2396 25.252C23.3955 25.7183 23.4416 26.1543 23.4501 26.5945C23.4583 27.0192 23.4465 27.4436 23.4149 27.8677C23.4091 27.9452 23.3949 27.9759 23.3131 27.9628C22.5703 27.8437 21.9457 27.4944 21.3906 26.9928C22.1389 26.5602 22.8601 26.1157 23.2393 25.2523L23.2396 25.252Z" fill="#FEFEFE"></path>
<path d="M13.5365 27.7207C13.4618 27.6438 13.5214 27.5602 13.5429 27.4934C13.8215 26.6245 14.1603 25.7802 14.5974 24.9776C14.6208 24.9347 14.623 24.8591 14.7026 24.8679C14.7825 24.8764 14.7633 24.9484 14.7816 24.9964C14.7885 25.0149 14.797 25.0332 14.8049 25.0514C14.8769 25.5983 15.0261 26.1263 15.1969 26.6491C15.2297 26.7497 15.2531 26.8557 15.3023 26.9478C15.3591 27.0538 15.3065 27.1106 15.2342 27.1617C14.7257 27.5204 14.1837 27.7814 13.5365 27.7207Z" fill="#FB7B00"></path>
<path d="M12.5918 33.0101C13.0466 32.9403 13.7281 33.471 13.8225 33.9322C13.9158 34.3876 13.7508 34.7774 13.4091 35.0864C13.1268 35.3416 12.8127 35.5482 12.4417 35.6551C12.3132 35.6955 12.3068 35.6025 12.305 35.5211C12.3017 35.3595 12.3242 35.1985 12.3378 35.0381C12.3907 34.4147 12.446 33.7912 12.5162 33.1693C12.5232 33.1065 12.5402 33.0509 12.5915 33.0104L12.5918 33.0101Z" fill="#FB7B01"></path>
<path d="M12.4448 35.7517C12.3518 35.7915 12.3312 35.8593 12.3178 35.961C12.254 36.4441 12.2674 36.9335 12.1793 37.4148C12.1297 37.6852 12.1443 37.9653 12.0793 38.2351C11.6342 38.2326 11.2378 38.0674 10.8507 37.8699C10.7656 37.8264 10.8033 37.7553 10.8176 37.6979C10.9045 37.3528 10.9993 37.0095 11.0849 36.6638C11.1381 36.4493 11.1882 36.2336 11.2229 36.0154C11.2417 35.8969 11.2964 35.8666 11.4042 35.8666C11.671 35.8666 11.9377 35.8732 12.202 35.811C12.2829 35.7918 12.3515 35.7162 12.4448 35.7514V35.7517Z" fill="#761F2B"></path>
<path d="M12.5987 33.0106C12.5607 33.3408 12.517 33.6708 12.486 34.0016C12.4389 34.5084 12.4003 35.016 12.3587 35.5237C12.3532 35.5902 12.3438 35.6625 12.4486 35.6552C12.3335 35.7029 12.2065 35.7105 12.0874 35.7306C11.8656 35.7683 11.6356 35.7555 11.4096 35.7716C11.2993 35.7795 11.2768 35.7297 11.2944 35.637C11.3813 35.1774 11.4157 34.711 11.4767 34.248C11.5253 33.8798 11.5639 33.5097 11.5937 33.1394C11.6022 33.0325 11.6314 33.0033 11.7356 33.006C12.023 33.0133 12.311 33.0097 12.5987 33.0103V33.0106Z" fill="#761F2B"></path>
<path d="M23.1953 34.0263C23.1926 34.3277 23.0841 34.393 22.8292 34.3059C22.5707 34.2174 22.43 34.0042 22.266 33.8164C21.9403 33.4442 21.7425 32.9943 21.5253 32.5571C21.5049 32.5161 21.4861 32.4787 21.5143 32.4298C21.7194 32.0762 21.8619 31.6919 22.0563 31.3331C22.0815 31.2863 22.0858 31.1982 22.1739 31.2231C22.2499 31.2447 22.3273 31.2669 22.3504 31.3665C22.3939 31.5527 22.444 31.7375 22.4972 31.9213C22.5567 32.1257 22.6357 32.3202 22.7751 32.4882C22.8751 32.6088 22.8748 32.7692 22.903 32.9153C22.9693 33.2574 23.1197 33.5758 23.1786 33.9194C23.1862 33.9641 23.1929 34.0087 23.1959 34.0263H23.1953Z" fill="#4D3B39"></path>
<path d="M21.062 22.4701C21.1601 22.5287 21.2585 22.5874 21.3706 22.6545C21.0577 22.8562 20.7724 23.068 20.5427 23.3454C20.4917 23.4067 20.4531 23.4578 20.5488 23.5091C20.6758 23.6048 20.7275 23.7336 20.7183 23.8898C20.7199 23.9493 20.7211 24.0086 20.7226 24.0681C20.7159 24.1076 20.7183 24.1517 20.67 24.1696C20.6324 24.2164 20.5598 24.2255 20.5385 24.2902C20.3987 24.2787 20.286 24.2191 20.2043 24.104C20.2013 24.0496 20.1685 24.0153 20.1214 23.9791C19.957 24.3066 19.8677 24.6511 19.8051 25.0409C19.7133 24.8331 19.6696 24.6432 19.642 24.4518C19.5134 23.5568 19.6101 22.6824 19.8908 21.8254C19.9263 21.7169 19.9564 21.7291 20.0296 21.7917C20.3453 22.0602 20.6761 22.3075 21.062 22.4701Z" fill="#FEFEFE"></path>
<path d="M20.6715 24.1708L20.7241 24.0694C20.8101 24.0508 20.8314 24.1237 20.8639 24.1736C20.9292 24.2741 20.9857 24.3431 21.0404 24.3732C21.1248 24.4263 21.1807 24.5029 21.2196 24.5931C21.1485 24.6065 21.178 24.6484 21.2005 24.6779C21.4779 25.0437 21.7592 25.4061 22.0979 25.719C22.0028 25.8494 21.8534 25.911 21.7282 26.001C21.5265 26.1462 21.3357 26.3017 21.1677 26.4834C21.0859 26.5718 21.0461 26.5928 20.9413 26.4883C20.7165 26.2647 20.4741 26.0584 20.2483 25.8342C20.2058 25.792 20.2028 25.7743 20.2231 25.7139C20.2957 25.496 20.355 25.2737 20.4215 25.0537C20.4941 24.8134 20.5725 24.5761 20.6582 24.3407C20.6776 24.2872 20.7089 24.2304 20.6722 24.1705L20.6715 24.1708Z" fill="#2D2D2D"></path>
<path d="M21.5027 30.7857C21.3669 31.0758 21.2335 31.3672 21.095 31.6561C20.6287 32.6307 20.1237 33.5832 19.4942 34.4651C19.2485 34.8097 19.0088 35.1584 18.7675 35.5063C18.7505 35.5309 18.701 35.5473 18.7341 35.5929C18.5764 35.6436 18.5388 35.6217 18.5391 35.4689C18.5397 35.2332 18.6378 35.0284 18.7523 34.8306C19.1142 34.2054 19.569 33.6403 19.9418 33.0233C20.4409 32.1975 20.8662 31.3341 21.1685 30.4141C21.1713 30.4062 21.1804 30.4005 21.1995 30.3789C21.2916 30.525 21.393 30.6587 21.5027 30.7857Z" fill="#B6B6B6"></path>
<path d="M20.9484 17.0322C21.6857 17.0063 22.2569 17.0856 22.7083 17.2354C22.4647 17.3135 22.2426 17.3846 22.0205 17.4563C21.6058 17.59 21.182 17.7021 20.849 18.012C20.6464 18.2006 20.5555 18.4251 20.5817 18.6992C20.5859 18.7444 20.5917 18.79 20.5893 18.8353C20.5826 18.9553 20.4984 19.0157 20.3875 18.9854C20.301 18.9617 20.2147 18.9358 20.1272 18.917C20.0719 18.9051 20.0543 18.8699 20.0807 18.831C20.263 18.5612 20.0503 18.4017 19.9054 18.2362C19.7936 18.1086 19.6441 18.0174 19.4919 17.9375C19.4062 17.871 19.4837 17.8376 19.522 17.8002C19.6669 17.6574 19.8452 17.5623 20.023 17.4715C20.1709 17.3958 20.3098 17.3059 20.4498 17.219C20.6057 17.1221 20.7634 17.0443 20.9487 17.0325L20.9484 17.0322Z" fill="#C9202D"></path>
<path d="M25.288 27.0584C25.34 27.0988 25.3922 27.1395 25.4442 27.1799C25.1932 27.3324 24.9526 27.2695 24.7378 27.1164C24.4143 26.8858 24.2839 26.5331 24.1983 26.1628C24.1597 25.9957 24.1338 25.8255 24.1423 25.6524C24.1457 25.5861 24.1469 25.5002 24.204 25.4762C24.2517 25.4561 24.3022 25.5281 24.3453 25.5685C24.3562 25.5788 24.3638 25.5925 24.3735 25.6041C24.3982 25.6326 24.4234 25.6545 24.4626 25.6235C24.5021 25.5919 24.4817 25.5621 24.4644 25.5308C24.424 25.4573 24.352 25.4163 24.2927 25.3622C23.9005 25.0062 23.5757 24.6073 23.4855 24.0641C23.453 23.8687 23.4542 23.6709 23.4834 23.4756C23.5162 23.2547 23.5098 23.2222 23.3136 23.1074C22.9833 22.9141 22.674 22.7015 22.4808 22.3557C22.3578 22.1355 22.2955 21.8979 22.256 21.6527C22.2341 21.5157 22.2806 21.3942 22.3629 21.2848C22.5158 21.0819 22.5009 21.0327 22.2542 20.9558C21.8316 20.8239 21.429 20.6495 21.0793 20.3743C20.8032 20.1568 20.5954 19.8858 20.5301 19.5297C20.4863 19.2912 20.5386 19.0782 20.7339 18.916C20.548 19.5634 20.9238 20.1954 21.4457 20.4897C21.7757 20.676 22.1518 20.7568 22.503 20.8962C22.5546 20.9166 22.606 20.9373 22.6582 20.9564C22.7384 20.9862 22.757 21.0238 22.6999 21.1013C22.6175 21.2128 22.5604 21.3377 22.4553 21.4395C22.3447 21.5464 22.3927 21.7059 22.4264 21.8414C22.506 22.1613 22.7005 22.4119 22.9365 22.6307C23.2577 22.9281 23.5852 23.2183 23.909 23.5105C23.8911 23.5388 23.872 23.5345 23.8519 23.5327C23.7945 23.5278 23.7441 23.4461 23.6891 23.4953C23.6332 23.5455 23.6459 23.6293 23.6556 23.698C23.7441 24.3341 23.9415 24.9238 24.4051 25.3932C24.4932 25.4825 24.5941 25.5594 24.6695 25.6609C24.6916 25.6906 24.746 25.708 24.719 25.7584C24.6992 25.7952 24.6628 25.824 24.6187 25.8122C24.5142 25.7836 24.5261 25.8438 24.5391 25.9088C24.6054 26.2399 24.7658 26.5222 24.9918 26.7689C25.0623 26.8457 25.1434 26.9141 25.1701 27.0213C25.2148 27.0162 25.257 27.0192 25.2874 27.059L25.288 27.0584Z" fill="#9B925D"></path>
<path d="M16.7191 23.5648C16.8078 23.6046 16.8542 23.6872 16.9019 23.7622C17.0153 23.9415 17.1736 24.066 17.3698 24.1268C17.5409 24.18 17.6053 24.2899 17.635 24.4525C17.6903 24.7545 17.756 25.0519 17.8744 25.3408C17.9878 25.6173 18.1597 25.8245 18.4079 25.9761C18.4678 26.0125 18.5015 26.0569 18.5258 26.1234C18.634 26.4172 18.7376 26.7119 18.8749 26.9954C19.0538 27.3648 19.3005 27.6692 19.6466 27.8892C19.7201 27.936 19.7614 27.9943 19.7924 28.073C19.9464 28.4655 20.1266 28.8428 20.4516 29.1296C20.5753 29.2387 20.7062 29.3262 20.8782 29.3374C21.004 29.3456 21.072 29.4222 21.1121 29.5407C21.2197 29.8575 21.3609 30.1595 21.5578 30.4308C21.7416 30.6842 21.9996 30.8458 22.2867 30.9549C22.455 31.0187 22.527 31.1278 22.5577 31.2988C22.6248 31.6743 22.7615 32.0255 22.9675 32.3491C23.0674 32.5059 23.2075 32.6104 23.3798 32.665C23.4469 32.6863 23.4685 32.7115 23.4703 32.7768C23.4812 33.177 23.6666 33.4537 24.0053 33.6807C24.437 33.9699 24.7922 34.3515 24.9629 34.861C25.041 35.0937 25.0887 35.3373 25.1376 35.5786C25.1652 35.7144 25.2218 35.8383 25.2728 35.9635C25.3132 36.0622 25.4107 36.0987 25.5207 36.1069C25.7088 36.1209 25.8932 36.0756 26.08 36.0793C25.9074 36.2394 25.7136 36.3366 25.4681 36.3232C25.2524 36.3114 25.1719 36.2512 25.1394 36.0328C25.1142 35.8629 25.0954 35.6922 25.0677 35.523C24.9918 35.0575 24.7557 34.6757 24.4464 34.3302C24.1827 34.0358 23.8905 33.7721 23.5967 33.5093C23.4445 33.3732 23.3655 33.2034 23.3691 33.0005C23.3722 32.8331 23.3199 32.7127 23.1577 32.6359C22.8563 32.4931 22.7096 32.2248 22.6193 31.9195C22.5719 31.7597 22.52 31.5999 22.4914 31.4364C22.4601 31.2569 22.362 31.1594 22.1976 31.0928C21.7911 30.9282 21.4685 30.6623 21.2716 30.2619C21.1896 30.0951 21.1808 29.9043 21.1006 29.7336C21.0374 29.5996 20.9699 29.5066 20.819 29.4514C20.3113 29.2663 19.9549 28.9179 19.7848 28.3974C19.711 28.172 19.5797 28.0098 19.3771 27.8773C18.9393 27.5908 18.7336 27.1388 18.5781 26.6597C18.5592 26.6019 18.5364 26.5451 18.5237 26.4862C18.4693 26.2368 18.3572 26.0411 18.1348 25.8856C17.773 25.6325 17.6606 25.2251 17.6119 24.8137C17.5761 24.5096 17.5366 24.2659 17.1833 24.1499C16.9363 24.0688 16.795 23.8233 16.7188 23.5645L16.7191 23.5648Z" fill="#9B935E"></path>
<path d="M15.879 22.0083C15.687 21.9901 15.6883 22.1748 15.6062 22.2714C15.5926 22.2875 15.6074 22.3288 15.5935 22.344C15.4221 22.529 15.4516 22.7636 15.4072 22.9869C15.2818 23.6176 15.2708 24.255 15.2796 24.889C15.2854 25.304 15.2486 25.7275 15.3559 26.1395C15.3732 26.2057 15.3583 26.2802 15.3349 26.3589C15.2824 26.2155 15.228 26.0727 15.1785 25.9284C15.146 25.8339 15.128 25.7333 15.0879 25.6422C15.0657 25.5914 15.0627 25.6516 15.0512 25.6619C14.9588 25.51 14.9685 25.3332 14.9388 25.1676C14.8157 24.4856 14.7817 23.7959 14.8191 23.1051C14.8437 22.6475 14.943 22.1994 15.0557 21.7556C15.0736 21.6848 15.111 21.6693 15.1788 21.6957C15.4176 21.7887 15.6509 21.8932 15.8797 22.0086L15.879 22.0083Z" fill="#771F2B"></path>
<path d="M17.2759 21.5021C16.9013 21.4037 16.5552 21.2238 16.1797 21.1254C15.0283 20.8231 14.0847 20.1493 13.1741 19.4213C12.8108 19.1309 12.4678 18.8113 12.1813 18.4473C11.8465 18.0217 11.4512 17.6234 11.3021 17.082C11.1906 16.6773 11.0144 16.2836 11.063 15.8428C11.077 15.7167 11.1578 15.6064 11.1322 15.4758C11.1982 15.4272 11.2726 15.4016 11.3865 15.3828C11.3088 15.5523 11.2559 15.7082 11.2456 15.8795C11.2261 16.2028 11.2769 16.513 11.378 16.8156C11.6703 17.6884 12.2424 18.355 12.946 18.9237C13.5749 19.4323 14.2232 19.9126 14.9247 20.3176C15.2009 20.4771 15.4916 20.6074 15.7933 20.7086C16.1396 20.8246 16.469 20.9738 16.7864 21.1534C16.9578 21.2503 17.1452 21.3123 17.3415 21.3466C17.3345 21.4098 17.3084 21.4572 17.2756 21.5018L17.2759 21.5021Z" fill="#9B935B"></path>
<path d="M12.931 31.1917C12.7982 31.2911 12.639 31.3215 12.4822 31.3345C12.2915 31.3503 12.0982 31.3345 11.9062 31.3373C11.8382 31.3385 11.8233 31.3187 11.8294 31.251C11.8555 30.9548 11.9156 30.6637 11.9588 30.3702C12.0071 30.0421 12.06 29.7146 12.1064 29.3862C12.121 29.282 12.1377 29.2282 12.2641 29.2896C12.5056 29.4069 12.7797 29.4266 13.0291 29.5235C13.0789 29.543 13.1421 29.5427 13.1667 29.6052C13.1284 29.639 13.0984 29.6745 13.0896 29.7298C13.02 30.1682 12.9474 30.6063 12.9012 31.048C12.8957 31.1009 12.9009 31.148 12.9313 31.1917H12.931Z" fill="#761F2B"></path>
<path d="M22.6429 34.3573C22.6879 34.3779 22.7319 34.401 22.7778 34.4193C22.9142 34.4733 23.0549 34.5046 23.1807 34.4044C23.3128 34.2986 23.3262 34.1467 23.3077 33.9903C23.2657 33.6366 23.1102 33.3128 23.0376 32.9674C23.0184 32.8765 23.0035 32.7848 22.985 32.6836C23.1819 32.7498 23.2645 32.8698 23.259 33.0621C23.2533 33.2785 23.3596 33.4498 23.5133 33.5917C23.7846 33.842 24.055 34.0927 24.3142 34.3558C24.5317 34.5769 24.5515 34.6893 24.3768 34.9455C24.0945 35.3598 23.712 35.4546 23.2992 35.1086C23.2059 35.0305 23.112 34.954 23.0327 34.8622C22.8948 34.7024 22.7608 34.5396 22.625 34.3776C22.6308 34.3709 22.6368 34.3643 22.6426 34.3573H22.6429Z" fill="#615B3B"></path>
<path d="M28.4245 16.2106C28.1471 16.947 27.891 17.6926 27.3982 18.326C27.2448 18.5232 27.0452 18.6717 26.8815 18.8716C26.7602 18.6155 26.5415 18.4755 26.2985 18.3637C26.2529 18.2971 26.3082 18.2583 26.3446 18.2233C26.8219 17.763 27.2166 17.2353 27.6067 16.7024C27.7637 16.488 27.9728 16.3288 28.2134 16.2145C28.2811 16.1823 28.3528 16.1483 28.4242 16.2106H28.4245Z" fill="#EEDF8D"></path>
<path d="M16.2997 22.9004C16.2089 23.0386 16.0862 23.1519 16.0199 23.3105C15.8632 23.6854 15.9303 24.0445 16.0816 24.3963C16.1308 24.5112 16.1412 24.6057 16.1004 24.7263C15.9813 25.0793 16.0846 25.4159 16.2192 25.7404C16.294 25.9206 16.3827 26.0949 16.5577 26.2143C16.6449 26.2742 16.6652 26.3966 16.6595 26.5051C16.6437 26.8056 16.7263 27.0884 16.836 27.3582C16.9788 27.7094 17.2318 27.9673 17.6019 28.0837C17.6994 28.1144 17.6985 28.1721 17.6948 28.2435C17.6827 28.4801 17.7179 28.7083 17.8255 28.9201C17.9643 29.1935 18.1603 29.3925 18.4869 29.435C18.6214 29.4523 18.7302 29.4888 18.7481 29.6872C18.7904 30.1465 19.0437 30.4911 19.4372 30.7332C19.5602 30.8088 19.5854 30.9364 19.6119 31.0701C19.7021 31.5273 19.8759 31.946 20.2161 32.2796C20.2037 32.3069 20.1921 32.3349 20.1788 32.3616C20.17 32.3792 20.1581 32.3953 20.1362 32.43C20.0363 32.2264 19.8464 32.1347 19.6945 32.0007C19.4925 31.8223 19.435 31.5744 19.3974 31.3211C19.3937 31.2962 19.3919 31.2706 19.3916 31.2454C19.3895 31.0209 19.2929 30.8781 19.0911 30.7535C18.7709 30.5561 18.5701 30.2492 18.5203 29.8649C18.4999 29.7084 18.4288 29.6036 18.2833 29.5435C17.8097 29.3478 17.607 28.9556 17.5408 28.4798C17.5171 28.3091 17.4727 28.1979 17.3072 28.1016C16.9256 27.8792 16.7433 27.5073 16.6677 27.0826C16.6306 26.8745 16.6066 26.6637 16.5799 26.4537C16.5689 26.3681 16.5288 26.3031 16.4653 26.2475C16.0968 25.9254 15.9382 25.5062 15.9033 25.0301C15.9018 25.01 15.8975 24.9869 15.9048 24.9699C16.0117 24.7248 15.9185 24.5006 15.8455 24.2681C15.7468 23.9537 15.7325 23.6304 15.8425 23.3145C15.9179 23.0979 16.0567 22.9387 16.2994 22.9004H16.2997Z" fill="#9B925C"></path>
<path d="M26.6872 27.1784C26.8434 26.9988 27.0074 26.8299 27.2402 26.7488C27.259 26.7421 27.2766 26.7309 27.2957 26.7254C27.5227 26.6604 27.5102 26.6467 27.5452 26.4189C27.6144 25.9644 27.4625 25.5743 27.2368 25.2003C27.108 24.987 27.0636 24.7734 27.1478 24.5258C27.235 24.2682 27.2614 23.9939 27.2885 23.7235C27.3088 23.5214 27.2961 23.3097 27.2076 23.1292C27.06 22.8281 27.0779 22.5265 27.1244 22.2123C27.1712 21.8961 27.1445 21.5765 27.1344 21.2587C27.1317 21.169 27.0834 21.0928 27.0223 21.019C26.8814 20.8479 26.7571 20.6635 26.624 20.4861C26.5566 20.3962 26.5526 20.3023 26.5909 20.2011C26.7434 19.8001 26.7158 19.3988 26.5879 18.9986C26.5292 18.8148 26.3789 18.7049 26.2409 18.587C26.1954 18.5478 26.1419 18.5177 26.1094 18.4648C26.4922 18.5046 26.7671 18.8009 26.8428 19.1439C26.9102 19.4504 26.8625 19.749 26.7796 20.0404C26.7234 20.237 26.7428 20.394 26.8944 20.5335C26.9388 20.5742 26.9688 20.6307 27.0144 20.6699C27.3197 20.9345 27.3529 21.2717 27.3158 21.6488C27.2872 21.9377 27.249 22.2263 27.2323 22.5167C27.2222 22.6917 27.2596 22.8579 27.314 23.022C27.4786 23.5175 27.4683 24.0163 27.3295 24.5134C27.2833 24.678 27.2891 24.8257 27.3568 24.9834C27.4865 25.2838 27.664 25.5655 27.7323 25.8905C27.8052 26.2375 27.7694 26.5817 27.6953 26.9247C27.6843 26.9757 27.6609 26.99 27.6151 26.9937C27.3064 27.018 27.0393 27.134 26.8279 27.3686C26.7765 27.2993 26.7319 27.2395 26.6869 27.1796L26.6872 27.1784Z" fill="#9B925D"></path>
<path d="M15.4141 26.874C15.4232 26.8284 15.4362 26.7722 15.4894 26.7777C15.5286 26.782 15.528 26.8391 15.5383 26.8777C15.5739 27.0092 15.5945 27.1438 15.6963 27.2526C15.7303 27.289 15.7956 27.3471 15.7483 27.4382C15.73 27.4731 15.7674 27.5628 15.8397 27.6023C15.9962 27.6873 16.0192 27.8459 16.0518 28.0103C16.1195 28.0343 16.1326 27.9568 16.1702 27.9188C16.2198 27.9398 16.2049 27.9753 16.1912 28.0069C16.1815 28.0294 16.1581 28.0467 16.1517 28.0695C16.132 28.1394 16.1478 28.2044 16.2125 28.2406C16.2902 28.284 16.2435 28.1518 16.3076 28.1673C16.3711 28.2409 16.2456 28.3423 16.306 28.3764C16.3787 28.4171 16.4182 28.4699 16.4592 28.531C16.7101 28.9044 16.9726 29.2668 17.2576 29.6171C17.4839 29.8948 17.7233 30.1658 17.929 30.4647C18.0523 30.6437 18.2307 30.7998 18.3911 30.9603C18.6642 31.2328 18.9325 31.5098 19.2481 31.7347C19.284 31.7602 19.3283 31.7739 19.3687 31.7927C19.5355 32.0685 19.8363 32.2168 20.0244 32.4747C19.5647 32.2739 19.129 32.0445 18.7529 31.7043C17.9688 30.9946 17.3366 30.157 16.7046 29.3182C16.272 28.7437 15.9342 28.1114 15.6355 27.4607C15.5496 27.2735 15.4463 27.0855 15.4141 26.8749V26.874Z" fill="#EA2532"></path>
<path d="M30.2697 14.8187C30.0878 15.2343 29.9046 15.6493 29.7241 16.0655C29.5467 16.4747 29.4616 16.9107 29.3629 17.3421C29.2498 17.8358 29.0834 18.3049 28.8415 18.7536C28.6179 19.1692 28.3563 19.5578 28.0774 19.9339C27.8712 20.2122 27.619 20.4561 27.3869 20.715C27.3592 20.7457 27.327 20.77 27.2821 20.7669C27.2693 20.7596 27.2553 20.7536 27.2441 20.7445C27.1241 20.6491 27.1299 20.5847 27.2441 20.4601C27.7521 19.9059 28.2743 19.3618 28.652 18.7013C28.9603 18.1621 29.111 17.5718 29.2328 16.9711C29.3355 16.4662 29.4333 15.9601 29.5989 15.4709C29.6971 15.1808 29.869 14.9514 30.167 14.8393C30.1993 14.8272 30.2351 14.825 30.2691 14.8184L30.2697 14.8187Z" fill="#9A935B"></path>
<path d="M18.8291 19.6809C18.8194 19.6131 18.7613 19.6165 18.7145 19.6022C18.175 19.436 17.6248 19.3005 17.1241 19.0262C16.6201 18.75 16.1115 18.4824 15.6108 18.2004C15.2107 17.975 14.8282 17.7219 14.4746 17.4266C14.1978 17.1954 13.9885 16.8992 13.7205 16.6601C13.2846 16.2706 13.0333 15.7824 12.9449 15.2085C12.8896 14.8485 12.941 14.4946 13.0236 14.144C13.0421 14.0656 13.0594 13.9872 13.0771 13.9088C13.2557 13.9061 13.253 13.9052 13.2104 14.0756C13.0835 14.5827 13.0248 15.0937 13.212 15.5968C13.3936 16.0856 13.7245 16.4757 14.1061 16.8202C14.8319 17.4755 15.6436 18.013 16.4761 18.52C16.8358 18.7391 17.2298 18.8849 17.6251 19.024C18.0398 19.1702 18.4195 19.395 18.8303 19.5493C18.9464 19.5928 18.8525 19.6374 18.8282 19.6812L18.8291 19.6809Z" fill="#9B935C"></path>
<path d="M14.0168 27.8152C13.8676 27.8811 13.7105 27.8407 13.5577 27.8419C13.4505 27.8428 13.4171 27.8696 13.4028 27.9832C13.3803 28.1606 13.3159 28.3323 13.2761 28.5082C13.2171 28.7695 13.1667 29.0326 13.1075 29.2935C13.0892 29.3737 13.1451 29.4233 13.1661 29.4871C12.8836 29.3279 12.5509 29.319 12.2589 29.1848C12.1836 29.1501 12.1517 29.1182 12.1684 29.042C12.2516 28.6659 12.3261 28.2876 12.443 27.9197C12.4491 27.9006 12.4585 27.8823 12.4631 27.8629C12.5229 27.6059 12.5217 27.6086 12.7787 27.6958C12.941 27.7508 13.1096 27.7803 13.2816 27.7866C13.5264 27.7958 13.7716 27.8055 14.0165 27.8152H14.0168Z" fill="#761F2B"></path>
<path d="M12.8039 31.3691C12.7568 31.7155 12.7213 32.064 12.6572 32.407C12.6277 32.5652 12.6423 32.7278 12.5931 32.8821C12.3336 32.9274 12.0724 32.9231 11.8108 32.9137C11.6458 32.9079 11.6416 32.8833 11.6407 32.7168C11.6385 32.3264 11.7549 31.9509 11.7716 31.5639C11.7762 31.4624 11.8223 31.429 11.9253 31.4281C12.0854 31.4266 12.2434 31.4563 12.4059 31.4372C12.5405 31.4217 12.6754 31.4174 12.8036 31.3691H12.8039Z" fill="#761F2B"></path>
<path d="M23.6813 28.5745C23.678 28.2901 23.6227 28.0033 23.7384 27.7253C23.8165 27.5373 23.8849 27.345 23.9508 27.1524C23.9973 27.0166 24.0289 26.8765 24.0975 26.7477C24.1164 26.7124 24.1176 26.6496 24.0985 26.6149C23.9587 26.3615 23.9675 26.0784 23.911 25.8077C23.8587 25.5577 23.8636 25.2733 23.6859 25.0643C23.5157 24.8644 23.4097 24.638 23.3468 24.3907C23.3128 24.2571 23.2678 24.1258 23.2526 23.9858C23.2162 23.6455 23.0752 23.3244 22.8307 23.1108C22.5035 22.8252 22.2671 22.5056 22.1264 22.1003C22.0948 22.0092 22.086 21.9135 22.0684 21.8248C22.0113 21.5362 21.7962 21.3827 21.6093 21.198C21.4216 21.0127 21.1831 20.9003 20.9799 20.7384C20.9066 20.68 20.8082 20.7332 20.7344 20.6803C21.0555 20.6563 21.3617 20.6746 21.6519 20.8535C21.8238 20.9595 22.0286 21.0145 22.2227 21.0807C22.3111 21.1111 22.3096 21.1591 22.2665 21.2111C22.0723 21.4447 22.1237 21.7002 22.1902 21.9588C22.3397 22.5418 22.7189 22.9328 23.239 23.2013C23.359 23.2633 23.376 23.3362 23.3596 23.4687C23.2766 24.1419 23.4841 24.7216 23.9599 25.2059C24.0447 25.2921 24.117 25.3593 24.0587 25.5218C24.0003 25.6844 24.0228 25.8834 24.0577 26.0623C24.093 26.2443 24.1212 26.4296 24.2106 26.5979C24.2923 26.7519 24.179 26.8798 24.1349 27.0114C24.0553 27.2502 23.9602 27.4844 23.8584 27.715C23.7573 27.9438 23.7533 28.1841 23.7421 28.4256C23.7397 28.4806 23.7712 28.5535 23.6813 28.5742V28.5745Z" fill="#76202A"></path>
<path d="M27.2672 16.6663C26.8929 17.2463 26.4648 17.7785 25.9155 18.2051C25.8745 18.237 25.8362 18.247 25.7907 18.2391C25.6093 18.2078 25.4291 18.2133 25.252 18.2637C25.2058 18.2768 25.1797 18.2595 25.1448 18.233C25.0129 18.1319 24.8771 18.0359 24.7425 17.938C24.7377 17.8824 24.7848 17.873 24.8191 17.8588C25.4149 17.6087 25.9462 17.2457 26.4931 16.9097C26.6915 16.7875 26.8987 16.6794 27.1366 16.6538C27.1806 16.649 27.2265 16.6298 27.2669 16.6666L27.2672 16.6663Z" fill="#EEDF8D"></path>
<path d="M24.1718 28.0292C24.3398 27.7773 24.6093 27.6631 24.8694 27.5574C25.2236 27.4137 25.587 27.4331 25.9254 27.6306C25.977 27.6607 26.0342 27.6777 26.0788 27.7384C26.1587 27.8475 26.303 27.8132 26.3483 27.6816C26.372 27.6127 26.4103 27.5577 26.4443 27.4966C26.5005 27.3963 26.4249 27.3031 26.3878 27.2195C26.2799 26.9774 26.1836 26.7337 26.1393 26.4712C26.0749 26.09 26.1189 25.7202 26.2605 25.362C26.3036 25.2527 26.3352 25.139 26.4018 25.0376C26.4461 24.9695 26.3914 24.9063 26.3516 24.8456C26.2599 24.7061 26.0961 24.6387 26.0095 24.4935C25.9333 24.3659 25.8741 24.2331 25.8719 24.083C25.8692 23.8858 25.8753 23.6884 25.8728 23.4912C25.8716 23.3836 25.9063 23.2703 25.9461 23.1901C26.0737 22.9331 25.9394 22.7478 25.84 22.5372C25.7173 22.2772 25.5997 21.9961 25.6419 21.7109C25.6863 21.4095 25.6741 21.0966 25.7899 20.8055C25.8209 20.7277 25.8245 20.6393 25.8409 20.5558C25.9694 20.5433 25.9342 20.6396 25.926 20.6992C25.8856 20.9878 25.8236 21.2725 25.7969 21.5644C25.7714 21.8424 25.7665 22.1155 25.9114 22.3556C26.098 22.6645 26.1244 22.9805 26.0232 23.3141C25.864 23.8394 26.0135 24.2954 26.3532 24.6915C26.5412 24.9109 26.53 25.1029 26.4118 25.3459C26.1487 25.887 26.1198 26.4403 26.4027 26.9892C26.4789 27.1369 26.6002 27.2542 26.6816 27.4C26.7156 27.4608 26.7183 27.4917 26.681 27.5431C26.5288 27.7506 26.4121 27.9769 26.3404 28.2315C26.2751 28.1926 26.2532 28.1361 26.2225 28.0857C26.0439 27.7928 25.5502 27.5094 25.1522 27.613C24.9161 27.6746 24.7026 27.8095 24.5154 27.9751C24.3638 28.1094 24.239 28.2671 24.1171 28.4275C24.0363 28.2804 24.1335 28.1586 24.173 28.0283L24.1718 28.0292Z" fill="#75212A"></path>
<path d="M14.8046 22.3027C14.8197 22.4449 14.7593 22.5667 14.7435 22.6956C14.6639 23.3451 14.6657 23.9934 14.7453 24.6421C14.755 24.7201 14.7441 24.7724 14.6526 24.7244C14.3595 24.5701 14.0499 24.44 13.8357 24.1684C13.7996 24.1225 13.7613 24.0828 13.7932 24.0217C14.0985 23.4408 14.3683 22.8399 14.7714 22.3155C14.7739 22.3122 14.7802 22.3118 14.8042 22.303L14.8046 22.3027Z" fill="#74202B"></path>
<path d="M23.2781 36.1104C23.6785 36.3851 24.1018 36.5245 24.5803 36.327C24.7325 36.2641 24.9062 36.2805 25.0515 36.1943C25.1785 36.3292 25.0925 36.3902 24.9709 36.4552C24.3509 36.7861 23.5923 36.7107 23.0299 36.2356C22.2218 35.5526 21.5306 34.7667 20.9926 33.8519C20.926 33.7386 20.8309 33.621 20.9698 33.4922C21.1809 33.8337 21.3243 34.2128 21.5656 34.5382C21.7718 34.8165 21.9878 35.0845 22.2519 35.3108C22.2853 35.3035 22.3129 35.3187 22.3342 35.34C22.6034 35.611 22.9242 35.8148 23.2313 36.0366C23.2563 36.0545 23.2772 36.0764 23.2784 36.1104H23.2781Z" fill="#9B925D"></path>
<path d="M17.092 31.4583C16.8022 31.5959 16.4962 31.6725 16.1775 31.7016C15.8607 31.7305 15.5438 31.7205 15.2272 31.6989C15.1103 31.691 15.0659 31.7439 15.0869 31.852C15.1437 32.144 15.086 32.4356 15.0695 32.7243C15.0477 33.1095 15.0929 33.4896 15.1008 33.8717C15.1042 34.0273 15.1027 34.1844 15.1182 34.3399C15.0218 34.3703 14.9787 34.3028 14.9401 34.2372C14.8818 34.1385 14.8693 34.0285 14.8696 33.9152C14.8706 33.4546 14.8721 32.9943 14.8684 32.5338C14.8666 32.2965 14.859 32.0592 14.8447 31.8226C14.8356 31.6716 14.8894 31.6002 15.0455 31.5895C15.4177 31.5637 15.789 31.5257 16.1608 31.4957C16.4449 31.4726 16.7138 31.4045 16.9781 31.2906C17.1406 31.2204 17.0777 31.3835 17.0917 31.4583H17.092Z" fill="#9C925E"></path>
<path d="M16.0476 28.5492C15.979 28.6297 15.9073 28.7081 15.842 28.791C15.4984 29.2279 15.3784 29.7568 15.234 30.2754C15.1353 30.6306 15.1408 30.9946 15.1459 31.3585C15.1484 31.5366 15.2939 31.4178 15.3595 31.4643C15.2328 31.5047 15.101 31.4955 14.9722 31.4925C14.8649 31.4901 14.8728 31.385 14.8771 31.3184C14.8898 31.1179 14.9184 30.9183 14.9394 30.7181C14.9861 30.2764 15.1028 29.8474 15.1788 29.4108C15.2082 29.2407 15.2678 29.0806 15.3705 28.9384C15.5379 28.7063 15.7037 28.473 15.8796 28.2266C15.9386 28.3417 16.02 28.4301 16.0473 28.5489L16.0476 28.5492Z" fill="#9A935B"></path>
<path d="M20.9462 17.0332C20.6724 17.1246 20.4337 17.2772 20.1915 17.4327C20.0749 17.5078 19.9473 17.5874 19.8111 17.6357C19.679 17.6824 19.6149 17.8182 19.4879 17.8711C19.4612 17.8823 19.4791 17.9155 19.4894 17.9383C19.1528 17.7238 18.7548 17.7052 18.3438 17.5937C19.1981 17.2131 20.0609 17.0715 20.9462 17.0332Z" fill="#771F2B"></path>
<path d="M17.3307 34.4989C17.0564 34.6077 16.7632 34.6302 16.4761 34.6748C16.0532 34.7401 15.6324 34.7089 15.2144 34.6229C15.0761 34.5943 15.0366 34.6475 15.0552 34.7891C15.081 34.9884 15.1193 35.1904 15.1098 35.3891C15.0934 35.7315 15.197 36.0572 15.218 36.3938C15.232 36.6186 15.2435 36.8461 15.2964 37.0673C15.3046 37.101 15.3177 37.1339 15.3286 37.167C15.2572 37.2238 15.2089 37.2019 15.1521 37.1348C15.0457 37.009 15.0296 36.8595 15.0251 36.7085C15.009 36.1738 14.9999 35.6391 14.9859 35.1044C14.9822 34.9634 14.9716 34.8228 14.9631 34.6821C14.951 34.4798 14.985 34.429 15.1897 34.4482C15.6822 34.4944 16.175 34.5108 16.6693 34.505C16.8385 34.5032 16.9992 34.474 17.1575 34.4166C17.2371 34.3877 17.3295 34.3522 17.3307 34.4983V34.4989Z" fill="#9C945D"></path>
<path d="M29.3301 15.9414C29.3128 15.836 29.2453 15.898 29.2046 15.9101C28.8619 16.014 28.6775 16.2808 28.5709 16.5928C28.4387 16.9795 28.3038 17.365 28.1313 17.7345C28.0079 17.9985 27.8454 18.2428 27.6455 18.4609C27.4352 18.69 27.1943 18.8926 27.0263 19.16C27.0069 19.1906 26.9953 19.2216 26.9823 19.2535C26.9036 19.0676 26.9531 18.9297 27.1068 18.7939C27.7144 18.2567 28.0483 17.5476 28.3257 16.8054C28.4102 16.5791 28.4828 16.3476 28.6113 16.1398C28.748 15.9189 28.9494 15.7983 29.201 15.7612C29.3842 15.7342 29.3978 15.7582 29.3304 15.9414H29.3301Z" fill="#9A935D"></path>
<path d="M12.9358 31.1909C12.8793 31.1973 12.8316 31.211 12.8465 31.115C12.9203 30.6359 12.9884 30.1558 13.0531 29.6755C13.0649 29.5877 13.102 29.5786 13.1713 29.6044C13.6416 30.0292 13.6361 30.6769 13.0358 31.1229C13.0036 31.1469 12.9692 31.1681 12.9358 31.1909Z" fill="#F77C08"></path>
<path d="M28.4227 16.2114C28.2392 16.1917 28.1073 16.3017 27.9749 16.3992C27.7492 16.5657 27.5739 16.7799 27.4192 17.0126C27.12 17.4637 26.7521 17.8572 26.3784 18.2454C26.3453 18.2798 26.2912 18.3029 26.2966 18.3645C26.211 18.3372 26.1253 18.3099 26.0156 18.2749C26.1277 18.181 26.2268 18.1014 26.3222 18.0173C26.6959 17.6867 26.9884 17.2872 27.2813 16.8877C27.4742 16.6246 27.655 16.3491 27.9366 16.1659C28.0575 16.0872 28.1873 16.0328 28.3331 16.0352C28.4889 16.0377 28.5062 16.0762 28.4227 16.2114Z" fill="#9B9359"></path>
<path d="M27.2671 16.6667C26.8755 16.7041 26.5483 16.8991 26.2357 17.1121C25.7629 17.4345 25.2589 17.6966 24.7427 17.9385C24.6823 17.9029 24.6221 17.8674 24.562 17.8312C24.5592 17.8294 24.5595 17.8221 24.5547 17.8008C24.7306 17.7276 24.9114 17.6575 25.0882 17.5782C25.5059 17.3901 25.8559 17.093 26.2423 16.8548C26.51 16.6898 26.784 16.5379 27.1088 16.5197C27.1489 16.5176 27.1911 16.5148 27.2294 16.5239C27.3251 16.5467 27.3716 16.5883 27.2668 16.6664L27.2671 16.6667Z" fill="#9C925E"></path>
<path d="M22.5176 26.0463C22.4048 26.2061 22.2399 26.307 22.084 26.4139C21.8516 26.5734 21.6064 26.7144 21.3713 26.8705C21.2419 26.9565 21.2455 26.8095 21.1884 26.7736C21.1407 26.7438 21.1146 26.7053 21.179 26.6336C21.4798 26.2994 21.8474 26.0539 22.2183 25.8105C22.3572 25.8394 22.4547 25.9211 22.5179 26.046L22.5176 26.0463Z" fill="#E1F16E"></path>
<path d="M27.4456 34.222C27.5036 33.865 27.6097 33.5162 27.6297 33.1529C27.6346 33.0623 27.6355 32.973 27.6066 32.8831C27.5817 32.8053 27.6066 32.7397 27.6546 32.6616C27.8157 32.401 27.9202 32.116 27.8372 31.8034C27.7993 31.6603 27.7938 31.5397 27.9035 31.4266C28.0851 31.2398 28.0964 30.9901 28.1398 30.7537C28.159 30.6492 28.1088 30.5988 28.0028 30.6161C27.9268 30.6285 27.853 30.6267 27.7792 30.6067C27.8986 30.5429 28.0153 30.4724 28.1386 30.418C28.2386 30.3739 28.299 30.4268 28.3245 30.5277C28.3725 30.7157 28.3634 30.8989 28.2771 31.0742C28.2191 31.1918 28.1574 31.3078 28.0918 31.4215C28.0143 31.5551 27.96 31.6891 27.9806 31.8517C28.001 32.0103 27.9481 32.1655 27.8861 32.3071C27.8169 32.4651 27.8375 32.6595 27.6926 32.7865C27.6835 32.7944 27.6881 32.8269 27.696 32.8433C27.8442 33.145 27.7233 33.4369 27.6501 33.7237C27.606 33.8957 27.5523 34.0719 27.4453 34.222H27.4456Z" fill="#9B935F"></path>
<path d="M20.2098 24.1055C20.3213 24.1674 20.4325 24.2294 20.544 24.2917C20.3939 24.7356 20.2484 25.1806 20.1196 25.6667C20.0291 25.5197 19.913 25.414 19.9224 25.2539C19.9461 24.8541 20.0242 24.4658 20.2095 24.1055H20.2098Z" fill="#DFF16F"></path>
<path d="M17.3333 35.8965C17.2093 36.2787 16.9231 36.5251 16.6087 36.7405C16.2672 36.9741 15.9063 37.1731 15.5068 37.297C15.2361 37.3812 15.1732 37.4799 15.1723 37.7622C15.1707 38.1963 15.1604 38.6308 15.2054 39.064C15.2139 39.1448 15.2257 39.2238 15.2664 39.2955C15.0957 39.2946 15.0523 39.1864 15.0644 39.0439C15.1042 38.5755 15.1264 38.1058 15.1139 37.6361C15.1085 37.4292 15.2093 37.3274 15.3861 37.2548C15.8595 37.0604 16.3207 36.8438 16.7095 36.4995C16.8806 36.3479 17.0161 36.1638 17.178 36.0046C17.2224 35.9609 17.2549 35.8941 17.3329 35.8968L17.3333 35.8965Z" fill="#9A9360"></path>
<path d="M19.3674 20.7988C19.3698 20.8086 19.3692 20.8219 19.3753 20.8274C19.581 21.0133 19.7344 21.2494 19.9504 21.4265C20.0695 21.5243 20.2336 21.5395 20.3411 21.6623C20.4225 21.7552 20.497 21.8649 20.6288 21.9026C20.6549 21.9102 20.6607 21.9369 20.6486 21.9652C20.6215 22.0284 20.5638 22.005 20.5173 22.0138C20.3356 21.8728 20.1543 21.7321 19.9726 21.5912C19.9203 21.5137 19.8371 21.4921 19.7541 21.469C19.5485 21.3797 19.3492 21.2786 19.1578 21.1616C19.145 21.1537 19.1316 21.1458 19.1213 21.1355C19.052 21.065 18.949 20.9997 18.9834 20.8879C19.0183 20.7733 19.1386 20.7985 19.2313 20.7919C19.2763 20.7885 19.3218 20.7961 19.3671 20.7985L19.3674 20.7988Z" fill="#E72632"></path>
<path d="M24.169 28.0286C24.2094 28.1699 24.0906 28.289 24.1131 28.4278C24.0463 28.5609 23.9797 28.6939 23.9032 28.8462C23.7616 28.1167 24.0657 27.5103 24.3291 26.8848C24.4017 26.9264 24.4376 26.9899 24.4743 27.0528C24.4622 27.2123 24.3501 27.3274 24.2869 27.4638C24.203 27.6449 24.1611 27.8305 24.169 28.0286Z" fill="#E82434"></path>
<path d="M22.5183 26.0466C22.4184 25.9682 22.3187 25.8895 22.2188 25.8112C22.3254 25.7136 22.4633 25.6544 22.5551 25.5383C22.8045 25.3482 22.9178 25.0641 23.0633 24.7949C23.1189 24.8101 23.0946 24.8773 23.1326 24.8988C23.2183 25.0623 23.1606 25.1987 23.0682 25.3415C22.9051 25.5933 22.7683 25.8634 22.5183 26.0466Z" fill="#BBCA61"></path>
<path d="M14.7549 34.0053C14.7382 34.0703 14.7695 34.1432 14.7142 34.2356C14.6775 34.1165 14.693 34.0226 14.6911 33.9318C14.6878 33.7495 14.72 33.5608 14.6829 33.3861C14.5736 32.8706 14.6577 32.3523 14.6313 31.8361C14.6288 31.789 14.6131 31.7362 14.6577 31.6836C14.7528 31.8006 14.6881 31.9488 14.7458 32.0667C14.7489 32.7129 14.7519 33.3588 14.7549 34.005V34.0053Z" fill="#F32037"></path>
<path d="M19.75 21.4697C19.8542 21.4542 19.9402 21.4709 19.9684 21.5918C19.8955 21.5511 19.8229 21.5104 19.75 21.4697Z" fill="#CA202D"></path>
<path d="M20.6424 20.6808C20.5546 20.7194 20.465 20.7483 20.3672 20.7358C20.4501 20.6736 20.5449 20.6693 20.6424 20.6808Z" fill="#76202A"></path>
<path d="M26.1508 29.5292C26.1262 29.9688 26.0268 30.3798 25.6641 30.6733C25.3299 30.9437 24.9088 30.8766 24.6597 30.5251C24.2981 30.015 24.3568 29.1227 24.7815 28.6645C25.1768 28.238 25.7206 28.3106 25.9885 28.8274C26.1022 29.0464 26.1526 29.2813 26.1511 29.5292H26.1508Z" fill="#150A0A"></path>
<path d="M27.1519 29.5686C27.1838 29.1089 27.3196 28.6991 27.7212 28.4211C27.7583 28.3956 27.7993 28.3749 27.8406 28.3564C28.1575 28.2136 28.3611 28.3804 28.3775 28.689C28.4051 29.2098 28.2259 29.6877 27.8455 30.061C27.6243 30.2783 27.3245 30.199 27.2078 29.9125C27.1638 29.8043 27.1388 29.6901 27.1519 29.5689V29.5686Z" fill="#150A0A"></path>
<path d="M27.3529 31.1796C27.3091 31.9735 27.1448 32.7367 26.7687 33.4448C26.7444 33.4907 26.7237 33.5606 26.6575 33.5421C26.6031 33.5269 26.6073 33.464 26.6086 33.4114C26.6146 33.1392 26.6183 32.8667 26.6225 32.5942C26.6262 32.3745 26.58 32.1646 26.5135 31.9559C26.4363 31.7146 26.2887 31.5448 26.0575 31.4409C25.9034 31.3716 25.8995 31.3188 26.0356 31.224C26.203 31.1079 26.364 30.9888 26.436 30.7859C26.4594 30.72 26.5113 30.7048 26.57 30.737C26.7805 30.8533 26.9956 30.9108 27.2347 30.8239C27.3061 30.7977 27.3496 30.8482 27.352 30.922C27.3547 31.0077 27.3526 31.0937 27.3526 31.1796H27.3529Z" fill="#0C0806"></path>
<path d="M26.9557 28.3317C26.857 28.3271 26.8342 28.2855 26.8634 28.1919C26.9591 27.8817 27.1611 27.6697 27.4549 27.5457C27.5746 27.4953 27.7034 27.4652 27.8295 27.4303C27.9477 27.3975 28.0516 27.4276 28.0819 27.5527C28.1114 27.6752 28.0285 27.7332 27.9142 27.7581C27.7912 27.7848 27.6657 27.8082 27.5494 27.8538C27.3868 27.9176 27.2759 28.0501 27.1739 28.1871C27.1173 28.263 27.0529 28.3226 26.956 28.3317H26.9557Z" fill="#FCF3B2"></path>
<path d="M27.0647 34.1504C27.0766 34.3044 26.9599 34.3797 26.9128 34.484C26.7211 34.9069 26.4492 35.279 26.115 35.6035C26.0497 35.667 25.9634 35.763 25.8856 35.6928C25.7939 35.6105 25.9105 35.5245 25.9652 35.4704C26.1232 35.3152 26.2751 35.1572 26.3975 34.9716C26.544 34.7498 26.6819 34.5237 26.7974 34.284C26.8256 34.2251 26.8615 34.1698 26.8964 34.1145C26.9247 34.0699 26.9459 34.0009 27.017 34.0307C27.0753 34.0553 27.0975 34.1078 27.0647 34.1498V34.1504Z" fill="#FBF2AD"></path>
<path d="M18.9496 25.9649C18.9888 25.9637 19.0144 25.9883 19.0405 26.0126C19.2291 26.1867 19.388 26.3796 19.5059 26.6132C19.6159 26.8304 19.7569 27.0319 19.8538 27.2579C19.8832 27.3266 19.8814 27.3755 19.8137 27.4077C19.7389 27.4435 19.7104 27.3937 19.6776 27.3342C19.4552 26.9283 19.275 26.4944 18.9259 26.1703C18.8743 26.1223 18.8786 26.0621 18.8904 26.0016C18.8962 25.9719 18.9229 25.967 18.949 25.9652L18.9496 25.9649Z" fill="#FBF1AD"></path>
<path d="M25.1079 28.2229C25.1073 28.284 25.104 28.332 25.049 28.328C24.9645 28.3223 24.9123 28.3937 24.8461 28.4086C24.6714 28.4477 24.6082 28.589 24.5207 28.7121C24.5091 28.7285 24.497 28.7449 24.483 28.7592C24.4514 28.7914 24.4189 28.8327 24.3673 28.8075C24.3108 28.7801 24.3156 28.7297 24.329 28.6765C24.3861 28.4523 24.552 28.3241 24.7388 28.2181C24.816 28.1743 24.902 28.1524 24.9931 28.1382C25.0958 28.1218 25.1061 28.167 25.1079 28.2232V28.2229Z" fill="#FBF1AC"></path>
<path d="M13.8675 15.2606C13.8705 15.2105 13.8605 15.1637 13.9158 15.1525C13.9605 15.1433 13.989 15.1652 14.0151 15.2035C14.0996 15.3281 14.1336 15.4778 14.2257 15.6C14.3609 15.7789 14.4693 15.9803 14.617 16.1474C14.8266 16.3847 15.052 16.6086 15.2838 16.827C15.6199 17.1433 15.9938 17.4107 16.377 17.6555C16.7497 17.894 17.1447 18.1073 17.5551 18.2829C17.666 18.3303 17.7644 18.4008 17.8796 18.4427C17.9285 18.4603 17.9969 18.5269 17.9501 18.6019C17.9118 18.6633 17.844 18.6517 17.7869 18.6207C17.5269 18.4801 17.2641 18.3397 16.9964 18.2191C16.7424 18.1046 16.5128 17.956 16.2785 17.8147C15.9355 17.6081 15.6077 17.3757 15.3018 17.1144C15.0056 16.8611 14.7254 16.5904 14.4821 16.2875C14.2479 15.9961 13.996 15.7102 13.8866 15.3384C13.8781 15.3095 13.872 15.2801 13.8672 15.2609L13.8675 15.2606Z" fill="#FBF2AC"></path>
<path d="M25.2889 27.0582C25.2479 27.0521 25.1993 27.0685 25.1716 27.0205C25.1683 26.9546 25.1771 26.8959 25.2142 26.8343C25.4062 26.514 25.4056 26.1726 25.3439 25.8125C25.2886 25.4899 25.1461 25.1976 25.072 24.8823C24.9812 24.4955 24.949 24.0991 24.8454 23.7141C24.7551 23.379 24.5701 23.1053 24.3675 22.837C24.2025 22.6186 24.0618 22.3856 23.9859 22.1225C23.8953 21.809 23.8142 21.4942 23.6244 21.2208C23.5125 21.0598 23.3482 20.9601 23.1966 20.8471C22.9052 20.6293 22.5689 20.4749 22.3234 20.1906C22.1642 20.0059 22.0819 19.7713 21.9106 19.5984C21.8398 19.5267 21.7945 19.435 21.7122 19.3718C21.5597 19.2545 21.4072 19.1424 21.2054 19.1291C21.1112 19.1227 21.083 19.0729 21.1131 18.9844C21.1264 18.9446 21.1972 18.9301 21.2519 18.9374C21.3291 18.9474 21.395 18.9832 21.4664 19.0048C21.8638 19.1242 22.0619 19.4484 22.2569 19.7713C22.4036 20.0141 22.6099 20.1963 22.8269 20.3665C22.952 20.4649 23.096 20.5421 23.2321 20.6274C23.5876 20.8507 23.872 21.1448 24.0166 21.551C24.0782 21.7242 24.1463 21.8946 24.1855 22.076C24.239 22.3233 24.3921 22.5211 24.5303 22.7265C24.7424 23.0418 25.0097 23.3341 25.0638 23.7275C25.1142 24.0939 25.2254 24.4475 25.2613 24.8161C25.2841 25.0485 25.4041 25.2532 25.4685 25.4744C25.5064 25.605 25.5338 25.7396 25.5496 25.8688C25.5699 26.034 25.5909 26.202 25.5763 26.3764C25.5541 26.6441 25.4259 26.8488 25.2886 27.0582H25.2889Z" fill="#FCF2AC"></path>
<path d="M26.8082 25.8596C26.797 25.7357 26.8143 25.6008 26.8374 25.4662C26.8933 25.1402 26.7921 24.8504 26.615 24.5857C26.4853 24.3922 26.4242 24.1771 26.4188 23.9544C26.4133 23.7257 26.4054 23.4978 26.4525 23.2636C26.4978 23.0393 26.4981 22.8036 26.3863 22.5605C26.1551 22.059 26.0815 21.5243 26.2754 20.9823C26.2854 20.954 26.3021 20.9279 26.3155 20.9005C26.3367 20.8568 26.3641 20.8179 26.4197 20.837C26.4725 20.8553 26.4807 20.9051 26.4707 20.9507C26.4443 21.0737 26.4157 21.1952 26.4033 21.3216C26.3711 21.6482 26.3714 21.9584 26.5096 22.2771C26.6834 22.6781 26.7478 23.1022 26.622 23.5485C26.5218 23.9043 26.6251 24.2531 26.8219 24.5572C27.023 24.8671 27.1036 25.1873 27.0316 25.5509C26.9732 25.845 26.9808 26.1415 27.061 26.4317C27.0829 26.5104 27.0893 26.5833 27.0091 26.6109C26.9322 26.6371 26.8885 26.5614 26.8724 26.5012C26.8174 26.2962 26.7994 26.0853 26.8079 25.8599L26.8082 25.8596Z" fill="#FBF2AC"></path>
<path d="M30.5424 15.9648C30.57 16.2304 30.481 16.5287 30.4449 16.8328C30.4026 17.1895 30.289 17.5261 30.1666 17.8582C30.0639 18.1365 29.8947 18.3841 29.7227 18.6274C29.4496 19.0142 29.1379 19.3696 28.8399 19.7363C28.7794 19.8105 28.7107 19.8779 28.6442 19.9469C28.6096 19.9827 28.5746 20.0292 28.519 19.9739C28.4683 19.9232 28.461 19.8691 28.5081 19.8126C28.5695 19.7391 28.6296 19.6646 28.6946 19.5944C28.9547 19.3128 29.1783 19.0026 29.4119 18.6997C29.6185 18.4321 29.8078 18.1544 29.9503 17.8497C30.0584 17.6185 30.1186 17.3684 30.1803 17.1196C30.241 16.8751 30.2635 16.6262 30.3018 16.3789C30.3379 16.145 30.361 15.9102 30.3598 15.6732C30.3598 15.6379 30.3577 15.6021 30.3622 15.5672C30.3704 15.5061 30.4051 15.4581 30.4686 15.459C30.5342 15.4599 30.5421 15.5167 30.5421 15.5705C30.5421 15.6869 30.5421 15.8032 30.5421 15.9648H30.5424Z" fill="#FBF2AB"></path>
<path d="M17.0471 32.1634C17.0301 32.5553 17.1419 32.8925 17.1881 33.2383C17.23 33.5536 17.1568 33.8465 17.0122 34.1239C16.9863 34.1734 16.9417 34.2156 16.8754 34.1743C16.8165 34.1372 16.8223 34.0926 16.8463 34.0318C16.9347 33.8073 17.0322 33.5795 16.9915 33.3325C16.9605 33.1447 16.925 32.9566 16.8855 32.7707C16.818 32.4535 16.8135 32.1318 16.7746 31.8131C16.7673 31.7533 16.7958 31.7198 16.8396 31.7113C16.9189 31.6958 16.9727 31.7599 16.9833 31.8186C17.0064 31.9459 16.9912 32.0805 17.0468 32.1637L17.0471 32.1634Z" fill="#FBF1AE"></path>
<path d="M17.6339 37.9618C17.6567 38.066 17.613 38.1781 17.6023 38.293C17.5935 38.389 17.5167 38.4184 17.438 38.4096C17.3444 38.399 17.349 38.3155 17.3721 38.2553C17.4969 37.929 17.4018 37.603 17.3468 37.2877C17.3183 37.1239 17.249 36.9547 17.1989 36.7876C17.1661 36.6776 17.1867 36.5667 17.1803 36.4564C17.1776 36.4087 17.2031 36.3811 17.2448 36.365C17.2946 36.3456 17.3225 36.3802 17.3438 36.4133C17.3651 36.4464 17.386 36.4856 17.3894 36.5236C17.4197 36.8563 17.5437 37.1698 17.5881 37.4994C17.6081 37.6486 17.6455 37.7959 17.6342 37.9618H17.6339Z" fill="#FBF2AC"></path>
<path d="M23.28 36.1093C22.9215 35.8638 22.5585 35.6241 22.2534 35.3096C22.2817 35.1684 22.1252 35.1422 22.0845 35.0399C22.0523 34.959 21.9132 34.888 22.0107 34.8002C22.1094 34.7111 22.1662 34.8527 22.2179 34.9092C22.4315 35.1432 22.6408 35.381 22.8917 35.5764C23.2995 35.8939 23.7372 36.1011 24.2698 35.9151C24.33 35.8942 24.3923 35.8711 24.4275 35.9443C24.4606 36.0136 24.4126 36.0512 24.3582 36.0898C24.2853 36.1421 24.2094 36.1615 24.1203 36.1697C23.836 36.1959 23.5607 36.1193 23.2803 36.109L23.28 36.1093Z" fill="#FBF2AE"></path>
<path d="M21.2203 24.5932C21.1282 24.5464 21.0838 24.4601 21.041 24.3732C21.0216 24.0573 21.1495 23.7972 21.3476 23.5639C21.4174 23.4815 21.504 23.4214 21.6067 23.3889C21.7717 23.3369 21.9214 23.4159 21.978 23.58C22.1053 23.9494 21.754 24.5379 21.3679 24.6084C21.3138 24.6184 21.2698 24.5911 21.2203 24.5932Z" fill="#FDFDFD"></path>
<path d="M20.7242 23.89C20.7096 23.7445 20.6085 23.6372 20.5547 23.5093C20.788 23.242 21.0487 23.0086 21.3467 22.8121C21.4816 22.723 21.5694 22.7297 21.6675 22.8534C21.2817 23.1338 20.9104 23.4285 20.7245 23.89H20.7242Z" fill="#BCCA62"></path>
<path d="M25.1562 30.7227C25.3938 30.363 25.5287 30.0015 25.5339 29.5947C25.5384 29.2417 25.4029 28.9348 25.2355 28.6392C25.1724 28.5277 25.2082 28.515 25.3106 28.5104C25.5725 28.4989 25.7368 28.645 25.858 28.8501C26.1594 29.3599 26.0464 30.1309 25.6211 30.5435C25.4971 30.6638 25.3516 30.71 25.1562 30.7227Z" fill="#9B915D"></path>
<path d="M27.5547 30.0631C27.6306 29.9462 27.6914 29.8566 27.7485 29.7645C27.977 29.3966 28.0423 28.9874 28.0511 28.5635C28.052 28.5186 28.0168 28.4484 28.086 28.4347C28.1356 28.425 28.172 28.4797 28.1997 28.5225C28.2298 28.569 28.2641 28.6149 28.2635 28.6735C28.2589 29.1541 28.1119 29.5825 27.7901 29.945C27.7358 30.0063 27.6635 30.0358 27.5547 30.0631Z" fill="#999260"></path>
<path d="M26.7197 33.2469C26.7443 32.9221 26.7699 32.625 26.7267 32.3282C26.666 31.9105 26.5542 31.5219 26.1094 31.3308C26.271 31.1968 26.4478 31.0975 26.5204 30.8988C26.5387 30.8489 26.5782 30.8787 26.6094 30.8933C26.8063 30.9854 27.0096 31.0285 27.2234 30.9574C27.2951 31.5097 27.0214 32.7724 26.7194 33.2469H26.7197Z" fill="#9B925A"></path>
<path fill-rule="evenodd" clip-rule="evenodd" d="M27.6315 9.74884C27.5838 9.8092 27.5414 9.87064 27.4998 9.93109C27.4454 10.01 27.3922 10.0872 27.3298 10.1581C27.1679 10.3419 26.9892 10.478 26.7367 10.5175C26.5824 10.5418 26.4606 10.5087 26.3445 10.4017C26.1841 10.8687 26.0204 11.3244 25.7561 11.7348C25.4206 12.255 24.9634 12.5636 24.3233 12.532C23.9888 12.5156 23.6725 12.4333 23.431 12.179C23.2508 11.9891 23.1539 11.7594 23.1451 11.4963C23.1357 11.2071 23.133 10.9194 23.2931 10.6581C23.3654 10.54 23.4465 10.4312 23.5622 10.3552C23.6218 10.316 23.6877 10.2835 23.7184 10.402C23.8168 10.7836 24.0812 10.9847 24.4892 10.9938C25.0831 11.0072 25.4507 10.6669 25.7254 10.19C25.8247 10.0177 25.8833 9.82904 25.89 9.62822C25.8903 9.62123 25.8909 9.61374 25.8916 9.60603C25.8952 9.56386 25.8994 9.51489 25.8408 9.50154C25.7646 9.48422 25.7311 9.54346 25.7077 9.60027C25.6117 9.83299 25.4744 10.0356 25.2855 10.203C24.9747 10.4786 24.5864 10.5372 24.2361 10.3504C24.0295 10.2401 23.9138 10.052 23.8384 9.83694C23.8278 9.80667 23.8193 9.77559 23.8089 9.7377L23.8089 9.7375C23.8037 9.71878 23.7981 9.69839 23.7916 9.67562C23.6795 9.85456 23.579 10.0141 23.4574 10.1608C23.28 10.375 23.0634 10.5017 22.7875 10.5311C22.6627 10.5445 22.5703 10.4819 22.4749 10.3999C22.3203 10.8626 22.1489 11.3092 21.8968 11.7193C21.3894 12.5451 20.5345 12.7201 19.8038 12.3634C19.4845 12.2076 19.3205 11.9199 19.2798 11.5766C19.2302 11.1591 19.2722 10.7566 19.5918 10.4357C19.6234 10.4038 19.6598 10.375 19.6987 10.3528C19.7698 10.3124 19.8178 10.3033 19.8467 10.413C19.943 10.7824 20.2143 10.9826 20.6141 10.9954C21.1816 11.0133 21.5443 10.6931 21.8257 10.2492C21.9378 10.0727 21.9976 9.87249 22.0204 9.66407C22.0213 9.65637 22.0224 9.6482 22.0237 9.63977L22.0237 9.63974C22.0313 9.58735 22.0403 9.52499 21.9773 9.50275C21.8977 9.4745 21.8591 9.54437 21.8336 9.60544C21.7409 9.82752 21.6091 10.0204 21.4338 10.1863C21.1309 10.4734 20.7022 10.5485 20.3616 10.3501C20.107 10.2018 19.977 9.95907 19.9241 9.67288C19.8744 9.67511 19.8577 9.70653 19.8411 9.7378L19.8411 9.73783L19.8411 9.73785L19.8411 9.73788C19.8373 9.745 19.8335 9.75211 19.8293 9.75886C19.6744 10.0098 19.4939 10.2392 19.2403 10.3972C19.0246 10.5314 18.787 10.5694 18.5424 10.4971C18.2802 10.42 18.1657 10.2121 18.1028 9.96393C18.0779 9.86561 18.0765 9.76616 18.075 9.65804C18.0742 9.59713 18.0733 9.53346 18.0682 9.46569C18.0409 9.50847 18.0156 9.54899 17.9914 9.58778L17.9914 9.58789C17.9416 9.66776 17.8964 9.74029 17.8473 9.81021C17.675 10.0548 17.4855 10.2845 17.2084 10.4172C16.6315 10.694 16.1429 10.4522 16.0096 9.82813C15.9998 9.78264 15.9911 9.737 15.9809 9.6836L15.9809 9.68357L15.9679 9.61607C15.9202 9.67564 15.8762 9.73579 15.8328 9.79503L15.8328 9.79504L15.8327 9.79506L15.8327 9.79507C15.7548 9.9014 15.6791 10.0048 15.5882 10.0967C15.3448 10.3428 15.0702 10.5144 14.7159 10.5305C14.1937 10.5542 13.837 10.2845 13.8218 9.73851C13.8109 9.34859 13.9557 9.00285 14.1007 8.65665L14.1008 8.65649L14.1009 8.65637L14.1009 8.6563C14.1176 8.61634 14.1344 8.57638 14.1509 8.53634C14.1658 8.50024 14.1811 8.46434 14.1964 8.42845L14.1964 8.4284L14.1964 8.42833L14.1964 8.42832C14.2482 8.30684 14.2999 8.18547 14.3356 8.05723C14.3878 7.86826 14.1973 7.58268 14.0026 7.5602C13.9468 7.55372 13.9374 7.58744 13.9287 7.61864C13.926 7.6284 13.9233 7.63791 13.9194 7.64587C13.8052 7.87768 13.6921 8.11 13.579 8.3423L13.579 8.34235L13.579 8.3424L13.579 8.34245L13.5789 8.34253L13.5789 8.34261L13.5789 8.34269C13.4003 8.70942 13.2218 9.07612 13.0392 9.44077C12.8572 9.80383 12.6467 10.1505 12.2967 10.3805C12.1199 10.4965 11.9242 10.5491 11.7067 10.5211C11.3722 10.4783 11.2319 10.2498 11.1498 9.96241C11.1034 9.80018 11.1037 9.63309 11.1225 9.42528C11.0902 9.47586 11.0603 9.52349 11.0317 9.56894C10.9705 9.66624 10.9157 9.75355 10.8573 9.83846C10.7224 10.0338 10.5768 10.2203 10.3748 10.3543C9.77874 10.7499 9.11462 10.4594 9.0253 9.74853C8.93051 8.99569 9.10611 8.29086 9.48466 7.63949C9.69823 7.27219 9.97804 6.96473 10.3818 6.79247C10.6406 6.68219 10.912 6.67004 11.1851 6.69039C11.3406 6.70194 11.4764 6.77546 11.5746 6.90093L11.5853 6.91487C11.6337 6.97768 11.6885 7.04878 11.7611 7.03522C11.8354 7.02153 11.8519 6.94689 11.8675 6.87615L11.8675 6.87614L11.8675 6.87613L11.8675 6.87613C11.8713 6.85894 11.8751 6.84199 11.8796 6.8262C12.0011 6.4039 12.1238 5.98191 12.3247 5.58787C12.4261 5.38888 12.5392 5.20143 12.7381 5.08081C12.8223 5.02886 12.9101 5 13.0091 5C13.1863 5 13.2883 5.09509 13.3047 5.27434C13.3219 5.46188 13.2544 5.62776 13.1871 5.79319C13.1747 5.82366 13.1623 5.85412 13.1504 5.88469C12.8888 6.55763 12.6254 7.22996 12.3605 7.90168C12.3474 7.93488 12.3337 7.96785 12.3201 8.0008L12.3201 8.00081L12.3201 8.00081L12.3201 8.00082C12.272 8.1168 12.2241 8.23261 12.2004 8.358C12.1737 8.49927 12.1709 8.63629 12.2858 8.73503C12.4061 8.83863 12.5543 8.81341 12.6895 8.76632C12.8089 8.7247 12.9122 8.64966 12.993 8.54697C13.2403 8.23222 13.3825 7.86492 13.5232 7.4967C13.5384 7.4569 13.5387 7.42865 13.4989 7.3928C13.2962 7.2096 13.2501 6.97719 13.3582 6.72685C13.4934 6.41393 13.7492 6.25655 14.1111 6.28845C14.4902 6.32187 14.8405 6.44309 15.1422 6.68492C15.4633 6.94225 15.5298 7.17709 15.3928 7.56384C15.3659 7.63984 15.3355 7.71453 15.3051 7.78923L15.3051 7.78924L15.3051 7.78926L15.3051 7.78927C15.2406 7.94777 15.1761 8.10632 15.1443 8.27749C15.1097 8.46312 15.1291 8.62292 15.2983 8.72956C15.4609 8.83194 15.6471 8.83225 15.8054 8.74688C15.964 8.6612 16.0749 8.51537 16.1347 8.33157C16.3292 7.73215 16.6318 7.20535 17.1914 6.87025C17.5286 6.66821 17.8996 6.64786 18.2769 6.71166C18.3702 6.72746 18.4516 6.78548 18.5275 6.84716C18.7238 7.00696 18.777 7.00848 18.9775 6.85566C19.1172 6.74903 19.2597 6.66518 19.4478 6.6831C19.5802 6.69586 19.6495 6.75845 19.6723 6.88483C19.7048 7.06529 19.6349 7.22297 19.565 7.38034C19.53 7.45937 19.4933 7.5377 19.4567 7.61602L19.4567 7.61605L19.4566 7.6161L19.4566 7.61615C19.3649 7.8121 19.2733 8.008 19.2068 8.2146C19.1898 8.26716 19.1777 8.32154 19.1689 8.37592C19.1479 8.5093 19.1385 8.65634 19.2564 8.73898C19.3861 8.83012 19.5459 8.8204 19.6917 8.75295C19.9329 8.64115 20.0551 8.44094 20.1374 8.19212C20.3194 7.64131 20.6284 7.17527 21.1369 6.86934C21.4684 6.66973 21.8339 6.64513 22.2067 6.70953C22.3218 6.72958 22.4187 6.79764 22.5083 6.87541C22.6514 6.99937 22.728 6.99997 22.8838 6.88331L22.9077 6.86536C23.0453 6.76184 23.1797 6.66073 23.3727 6.68371C23.5325 6.70254 23.5954 6.76088 23.6106 6.91886C23.6282 7.10084 23.5553 7.257 23.4796 7.41012C23.3119 7.75008 23.1594 8.09612 23.03 8.45248C22.9865 8.57218 22.9595 8.69523 22.9647 8.82252C22.9735 9.03884 23.1235 9.13454 23.3168 9.0437C23.4343 8.9884 23.527 8.89878 23.6215 8.80733C23.8348 8.60125 23.9406 8.34197 24.048 8.07851C24.0624 8.0433 24.0768 8.00801 24.0915 7.97277C24.2665 7.55321 24.529 7.19168 24.9106 6.92706C25.2414 6.69768 25.613 6.65758 25.9979 6.68948C26.1231 6.69981 26.2385 6.76088 26.3394 6.84169C26.5475 7.00878 26.6003 7.01213 26.8094 6.8426C26.9354 6.74022 27.0646 6.66882 27.2353 6.6831C27.4027 6.69708 27.4786 6.76756 27.4893 6.9386C27.499 7.09719 27.4376 7.23694 27.3699 7.37184C27.2025 7.70633 27.0564 8.04933 26.9193 8.39719C26.8683 8.52661 26.8422 8.65999 26.8285 8.79366C26.806 9.01058 26.9962 9.14547 27.187 9.04187C27.4878 8.87873 27.7117 8.62657 27.8314 8.31C27.8562 8.2446 27.8805 8.17905 27.9048 8.11352C28.0299 7.77664 28.1546 7.4405 28.339 7.1297C28.4463 6.94893 28.5748 6.78609 28.7802 6.70923C29.0378 6.61262 29.1876 6.71379 29.1927 6.98691C29.1975 7.23746 29.1177 7.46826 29.0379 7.69887L29.0379 7.69889C29.0154 7.76412 28.9928 7.82934 28.9722 7.89499C28.9647 7.91861 28.9571 7.94216 28.9495 7.9657C28.9042 8.10538 28.859 8.24457 28.8546 8.39355L28.8534 8.42653C28.8487 8.54967 28.8437 8.68163 28.9652 8.74991C29.1204 8.83711 29.2903 8.80581 29.4437 8.72439C29.6454 8.61715 29.7317 8.42301 29.8016 8.21916L29.8365 8.11684L29.8365 8.11681C29.9665 7.73445 30.0969 7.35123 30.3284 7.01486C30.4456 6.84442 30.5821 6.68553 30.8193 6.6828C31.1028 6.67946 31.2459 6.85566 31.1815 7.13456C31.1269 7.3709 31.0373 7.59482 30.9477 7.81879L30.9477 7.81884L30.9477 7.81888L30.9476 7.81891C30.908 7.91793 30.8684 8.01696 30.8318 8.11708C30.8183 8.15387 30.8044 8.19051 30.7904 8.22714C30.7308 8.38381 30.6712 8.54036 30.6486 8.70829C30.631 8.83893 30.6386 8.96896 30.7643 9.044C30.8919 9.11995 31.0037 9.05919 31.1104 8.97807C31.2936 8.83832 31.4333 8.66059 31.5667 8.47618C31.6712 8.33157 31.7417 8.31516 31.883 8.39871C32.0151 8.47679 31.9951 8.5734 31.9383 8.69401C31.9042 8.76619 31.8705 8.83852 31.8368 8.91085L31.8367 8.91116L31.8365 8.91153L31.8363 8.91202C31.6932 9.21895 31.5502 9.52585 31.3829 9.82084C31.252 10.0517 31.0891 10.2626 30.8652 10.4014C30.6683 10.5232 30.4456 10.612 30.2151 10.4458C30.1304 10.3845 30.1239 10.4461 30.1188 10.4938L30.1188 10.4938L30.1188 10.4938L30.1188 10.4939C30.1175 10.5067 30.1162 10.5185 30.1136 10.5266C29.972 10.965 29.8055 11.3924 29.5585 11.7834C29.2404 12.2875 28.7941 12.5667 28.1844 12.532C27.633 12.5004 27.1317 12.2601 27.0293 11.6081C26.9604 11.1688 27.0126 10.7502 27.3544 10.4187C27.5063 10.2714 27.5503 10.2845 27.6066 10.4828C27.6953 10.7964 27.9508 10.9762 28.2755 10.9969C29.0615 11.047 29.6211 10.2942 29.6831 9.65921C29.6892 9.59784 29.6913 9.52402 29.6205 9.50488C29.5517 9.4863 29.526 9.54707 29.5048 9.59751L29.4978 9.61395C29.3893 9.86185 29.2502 10.0852 29.0314 10.2538C28.7124 10.4995 28.1953 10.5175 27.9019 10.2884C27.7302 10.1544 27.681 9.95907 27.6321 9.74914L27.6315 9.74884ZM21.7028 7.82418C22.0197 7.8257 22.1813 8.02075 22.1148 8.31848C22.05 8.60771 21.8975 8.8307 21.5955 8.90878C21.2817 8.9899 21.0484 8.76022 21.1012 8.43818C21.1383 8.21397 21.2331 8.02804 21.4269 7.90074C21.5141 7.84363 21.6086 7.81355 21.7025 7.82449L21.7028 7.82418ZM25.9953 8.30803C26.0518 8.01516 25.8923 7.82285 25.5943 7.82346C25.1863 7.7949 24.9217 8.28676 24.9757 8.59665C25.0186 8.84122 25.2042 8.96365 25.4533 8.91504C25.7155 8.864 25.9355 8.61761 25.9953 8.30803ZM17.1641 8.50684C17.1653 8.11767 17.4618 7.81386 17.8306 7.82449C18.0454 7.83057 18.1827 7.9685 18.1925 8.18724C18.2064 8.50016 17.9552 8.83283 17.6514 8.90392C17.3539 8.97349 17.1632 8.81794 17.1644 8.50684H17.1641ZM11.2192 8.17847C11.197 7.93846 11.0694 7.82544 10.8197 7.82423H10.8194C10.4864 7.8224 10.2105 8.12439 10.1959 8.48714C10.1801 8.88087 10.4642 8.98356 10.7525 8.89242C11.0168 8.80887 11.2447 8.45372 11.2192 8.17847Z" fill="#FEFEFE"></path>
</g>
<defs>
<clipPath id="clip0_63792_111192">
<rect width="40" height="40" rx="20" fill="white"></rect>
</clipPath>
</defs>
</svg>