<svg width="40" height="40" viewBox="0 0 40 40" fill="none" xmlns="http://www.w3.org/2000/svg">
<circle cx="20" cy="20" r="20" fill="#3B92F8"></circle>
<path d="M27.9121 32.5735H20.3441C17.0715 32.5702 13.9338 31.2221 11.6195 28.825C9.30529 26.4279 8.00356 23.1776 8 19.7874V19.1139C8 15.9011 9.23204 12.8198 11.4251 10.548C13.6181 8.2762 16.5925 7 19.6939 7C22.7953 7 25.7697 8.2762 27.9628 10.548C30.1558 12.8198 31.3879 15.9011 31.3879 19.1139V19.7874C31.3879 20.6517 31.0564 21.4807 30.4664 22.0918C29.8765 22.703 29.0763 23.0463 28.2419 23.0463H15.1776C15.718 23.9642 16.4768 24.7228 17.3815 25.2495C18.2862 25.7762 19.3063 26.0533 20.3441 26.0543H27.9121C28.7354 26.0719 29.5192 26.4231 30.0954 27.0325C30.6716 27.6418 30.9943 28.4609 30.9943 29.3139C30.9943 30.1669 30.6716 30.9859 30.0954 31.5953C29.5192 32.2047 28.7354 32.5559 27.9121 32.5735ZM14.9057 16.5271H24.4821C24.0259 15.62 23.3382 14.86 22.494 14.3295C21.6498 13.7991 20.6813 13.5187 19.6939 13.5187C18.7066 13.5187 17.7381 13.7991 16.8939 14.3295C16.0497 14.86 15.362 15.62 14.9057 16.5271Z" fill="#CEE8F4"></path>
</svg>