<svg width="40" height="40" viewBox="0 0 40 40" fill="none" xmlns="http://www.w3.org/2000/svg">
<g clip-path="url(#clip0_76939_68331)">
<path d="M20.0085 0.360962H20.0092C30.8051 0.360962 39.5568 9.13508 39.5568 19.9586V19.9593C39.5568 30.7827 30.8051 39.5568 20.0092 39.5568H20.0085C9.21267 39.5568 0.460938 30.7827 0.460938 19.9593V19.9586C0.460938 9.13508 9.21267 0.360962 20.0085 0.360962Z" fill="url(#paint0_linear_76939_68331)"></path>
<path d="M20.0098 0.365479H20.0105C30.8038 0.365479 39.5535 9.13755 39.5535 19.9585V19.9592C39.5535 30.7801 30.8038 39.5522 20.0105 39.5522H20.0098C9.21649 39.5522 0.466797 30.7801 0.466797 19.9592V19.9585C0.466797 9.13755 9.21649 0.365479 20.0098 0.365479Z" stroke="url(#paint1_linear_76939_68331)" stroke-width="0.729223"></path>
<path fill-rule="evenodd" clip-rule="evenodd" d="M15.6542 10.6764H15.23L14.9549 11.0002L7.8545 19.3615L7.34766 19.9584L7.8545 20.5553L14.9549 28.9166L15.23 29.2405H15.6542H28.4375H29.3558V28.3198V23.0043H27.5191V27.399H17.6626L23.5619 20.5607L24.0815 19.9584L23.5619 19.3561L17.6626 12.5178H27.5191V16.9126H29.3558V11.5971V10.6764H28.4375H15.6542ZM15.6596 13.011L9.75989 19.9584L15.6596 26.9059L21.653 19.9584L15.6596 13.011Z" fill="white"></path>
</g>
<defs>
<linearGradient id="paint0_linear_76939_68331" x1="20.0089" y1="0.360962" x2="20.0089" y2="39.5568" gradientUnits="userSpaceOnUse">
<stop stop-color="#2C2C2C"></stop>
<stop offset="1" stop-color="#1E1E1E"></stop>
</linearGradient>
<linearGradient id="paint1_linear_76939_68331" x1="20.0101" y1="-0.376651" x2="20.0101" y2="40.2944" gradientUnits="userSpaceOnUse">
<stop stop-color="white"></stop>
<stop offset="1" stop-color="#111111"></stop>
</linearGradient>
<clipPath id="clip0_76939_68331">
<rect width="40" height="40" fill="white"></rect>
</clipPath>
</defs>
</svg>