<svg width="40" height="40" viewBox="0 0 40 40" fill="none" xmlns="http://www.w3.org/2000/svg">
<circle cx="20" cy="20" r="20" fill="#EAE9E9"></circle>
<path d="M31.1998 27.3559H25.846V29.0355H32.9844C33.7297 29.0356 33.8718 28.7206 33.5618 28.0382L30.36 22.5794L28.1555 23.7867C25.846 24.8364 23.9039 23.1043 24.2713 21.0573L25.0587 16.5433L28.1555 21.7921L29.5727 21.0573L24.1614 11.6093L22.5343 21.1622C22.1608 24.6265 25.8447 27.4609 29.8351 24.8364L31.1998 27.3559Z" fill="#212121"></path>
<path d="M8.81059 27.1673L11.4875 22.5307L10.0329 21.6909L6.46369 27.873C6.09091 28.5184 6.29273 28.799 7.03867 28.8716L13.367 28.8282L13.4238 26.3154C13.6694 23.7905 16.1405 22.9746 17.7296 24.3164L21.2452 27.2552L15.1511 27.3127L15.0789 28.9074L25.9667 28.9452L18.5072 22.7596C15.6938 20.704 11.3972 22.4772 11.6748 27.2451L8.81059 27.1673Z" fill="#212121"></path>
<path d="M20.0484 7.8568L22.7253 12.4933L24.1799 11.6535L20.6107 5.47147C20.2381 4.82593 19.8942 4.86044 19.4583 5.47009L16.3317 10.9723L18.4795 12.2779C20.5434 13.7531 20.0143 16.301 18.0578 17.0063L13.7549 18.5815L16.7521 13.2752L15.4072 12.4153L9.93064 21.8255L19.0173 18.4582C22.2041 17.0495 22.8168 12.4419 18.5488 10.2984L20.0484 7.8568Z" fill="#212121"></path>
</svg>