<svg width="39" height="39" viewBox="0 0 39 39" fill="none" xmlns="http://www.w3.org/2000/svg">
<path fill-rule="evenodd" clip-rule="evenodd" d="M19.5 0C30.2679 0 39 8.7321 39 19.5C39 30.2679 30.2679 39 19.5 39C8.7321 39 0 30.2679 0 19.5C0 8.7321 8.7321 0 19.5 0Z" fill="#B41514"></path>
<path d="M19.3435 32.175C18.8267 32.175 18.3215 32.0217 17.8918 31.7346C17.4621 31.4475 17.1271 31.0394 16.9294 30.5619C16.7316 30.0845 16.6799 29.5591 16.7807 29.0522C16.8815 28.5453 17.1304 28.0797 17.4958 27.7143C17.8612 27.3489 18.3268 27.1 18.8337 26.9992C19.3406 26.8984 19.866 26.9501 20.3434 27.1479C20.8209 27.3457 21.229 27.6806 21.5161 28.1103C21.8032 28.54 21.9565 29.0452 21.9565 29.562C21.9565 30.255 21.6812 30.9196 21.1911 31.4096C20.7011 31.8997 20.0365 32.175 19.3435 32.175Z" fill="white"></path>
<path d="M19.3435 14.157C18.8267 14.157 18.3215 14.0038 17.8918 13.7167C17.4621 13.4295 17.1271 13.0214 16.9294 12.544C16.7316 12.0665 16.6799 11.5411 16.7807 11.0343C16.8815 10.5274 17.1304 10.0618 17.4958 9.69636C17.8612 9.33093 18.3268 9.08206 18.8337 8.98124C19.3406 8.88042 19.866 8.93216 20.3434 9.12993C20.8209 9.32771 21.229 9.66262 21.5161 10.0923C21.8032 10.522 21.9565 11.0272 21.9565 11.544C21.9565 12.237 21.6812 12.9017 21.1911 13.3917C20.7011 13.8817 20.0365 14.157 19.3435 14.157Z" fill="white"></path>
<path d="M8.6582 25.194V21.567H30.0302V25.194H8.6582Z" fill="white"></path>
<path d="M19.3433 19.773C13.2476 19.773 8.28678 14.937 8.08008 8.89197H11.945C12.1478 12.8037 15.3848 15.912 19.3433 15.912C23.3018 15.912 26.5388 12.8037 26.7416 8.89197H30.6065C30.3998 14.937 25.439 19.773 19.3433 19.773Z" fill="white"></path>
</svg>