<svg width="40" height="40" viewBox="0 0 40 40" fill="none" xmlns="http://www.w3.org/2000/svg">
<g clip-path="url(#clip0_2809_7173)">
<circle cx="20" cy="20" r="20" fill="black"></circle>
<path d="M18.906 35.7239C27.703 36.336 35.3306 29.7009 35.9426 20.9039C36.5547 12.1072 29.9197 4.47938 21.123 3.86729C12.326 3.2552 4.69841 9.89027 4.08604 18.687C3.47395 27.484 10.109 35.1115 18.906 35.7239Z" stroke="white" stroke-width="2"></path>
<path d="M22.0729 15.8902C20.7652 16.6598 19.4026 16.8601 17.9883 16.4901C16.5712 16.1217 15.483 15.2972 14.7207 14.0186L13.5866 12.1154L15.483 11L16.6171 12.9028C17.0684 13.6599 17.7075 14.1438 18.537 14.3536C19.3638 14.5649 20.1653 14.4424 20.9363 13.9889L24.2825 12.007C25.3457 11.3773 26.7221 11.7255 27.3532 12.784L22.0729 15.8902Z" fill="white"></path>
<path d="M24.093 22.092C23.3171 20.79 23.1133 19.4348 23.4829 18.029C23.8513 16.6208 24.6787 15.5397 25.9633 14.7841L27.8748 13.6595L29 15.547L27.0884 16.6716C26.3276 17.1188 25.8418 17.7537 25.6322 18.5782C25.4213 19.4002 25.5459 20.1974 26.0033 20.9646L28.0058 24.3026C28.6387 25.3574 28.2888 26.7221 27.2256 27.3478L24.093 22.092Z" fill="white"></path>
<path d="M17.8289 24.1095C19.1365 23.3402 20.4991 23.1396 21.9134 23.5099C23.3305 23.8783 24.4187 24.7028 25.1807 25.9814L26.3149 27.8843L24.4187 29L23.2846 27.0972C22.8333 26.3401 22.1943 25.8559 21.3647 25.6461C20.5379 25.4347 19.7364 25.5572 18.9655 26.0108L15.6192 27.9927C14.5557 28.6224 13.1796 28.2745 12.5486 27.216L17.8289 24.1095Z" fill="white"></path>
<path d="M15.907 18.0725C16.6826 19.3745 16.8867 20.7297 16.5168 22.1355C16.1487 23.544 15.3213 24.6245 14.0364 25.3804L12.1249 26.505L11 24.6178L12.9116 23.4928C13.6721 23.0454 14.1579 22.4108 14.3675 21.5863C14.5787 20.7643 14.4541 19.9671 13.9967 19.1999L11.9939 15.8619C11.361 14.8071 11.7109 13.4424 12.7744 12.8167L15.907 18.0725Z" fill="white"></path>
</g>
<defs>
<clipPath id="clip0_2809_7173">
<rect width="40" height="40" fill="white"></rect>
</clipPath>
</defs>
</svg>