<svg width="40" height="40" viewBox="0 0 40 40" fill="none" xmlns="http://www.w3.org/2000/svg">
<circle cx="20" cy="20" r="20" fill="#111211"></circle>
<path d="M35.975 17.8943L35.0685 16.3759L30.1052 8.03595H30.0825L29.9239 7.74133H28.1108L21.0625 20.1379L28.2241 32.4665H30.0372L30.0825 32.3985L35.9977 22.2682H32.3489L29.1987 27.8659L24.7113 20.1152L29.108 12.3645L32.3035 17.8716L35.975 17.8943Z" fill="#41E6AF"></path>
<path d="M8.3967 15.8782L11.7056 10.2351L10.595 8.44475L9.82449 7.17563L4.15864 17.1699L4 17.4419L4.90654 19.0283H19.1618L26.3461 6.72237L25.3489 5L15.377 5.02266H15.2184L13.6319 5L14.4705 6.5864L15.309 8.1728L21.8361 8.15013L17.3487 15.8782H8.3967Z" fill="#41E6AF"></path>
<path d="M15.4405 9.35071C15.1912 9.35071 14.9193 9.39603 14.6473 9.48669C14.3527 9.57734 14.0581 9.71331 13.7861 9.87195C13.0155 10.3479 12.4716 11.0278 12.381 11.6623C12.3356 11.9569 12.4036 12.2062 12.5623 12.3875C12.5849 12.4329 12.6303 12.4555 12.6529 12.5008C12.6756 12.5235 12.6983 12.5235 12.7209 12.5462C12.7436 12.5688 12.7436 12.5688 12.7663 12.5915C12.8116 12.6142 12.8342 12.6368 12.8796 12.6595C13.3555 12.8861 14.1034 12.8408 14.8286 12.5008L14.8513 12.4782C14.9193 12.4555 14.9873 12.4102 15.0553 12.3875C15.1232 12.3649 15.1686 12.3195 15.2366 12.2742C15.3046 12.2289 15.3725 12.1836 15.4405 12.1382C15.5085 12.0929 15.5538 12.0476 15.6218 12.0023L15.6672 11.9796C15.7125 11.9343 15.7578 11.9116 15.8031 11.8663C15.8258 11.8436 15.8258 11.8436 15.8485 11.821C15.8938 11.7983 15.9165 11.753 15.9391 11.7303C15.9618 11.7076 15.9845 11.685 16.0071 11.6397C16.0298 11.5943 16.0751 11.5717 16.0978 11.5263C16.1204 11.5037 16.1204 11.5037 16.1431 11.481C16.1658 11.4357 16.2111 11.413 16.2337 11.3677L16.2791 11.3224C16.3017 11.277 16.3244 11.2544 16.3471 11.2091C16.3471 11.2091 16.3471 11.2091 16.3471 11.1864L16.3697 11.1411C16.4151 11.0957 16.4377 11.0278 16.4604 10.9824C16.483 10.9371 16.5057 10.8691 16.5284 10.8238L16.551 10.8011C16.551 10.7785 16.5737 10.7558 16.5737 10.7558C16.5737 10.7331 16.5737 10.7331 16.5964 10.7105C16.5964 10.6652 16.619 10.6425 16.619 10.5972C16.619 10.5518 16.6417 10.5518 16.6417 10.5292C16.6417 10.5065 16.6417 10.4838 16.6417 10.4838C16.6417 10.4385 16.6417 10.4159 16.6417 10.3932V10.3479C16.6417 10.3025 16.6417 10.2799 16.6417 10.2346C16.6417 10.2119 16.6417 10.2119 16.6417 10.1892C16.6417 10.1666 16.6417 10.1439 16.6417 10.1439C16.6417 10.1212 16.6417 10.1212 16.6417 10.0986V10.0759C16.6417 10.0306 16.619 10.0079 16.5964 9.9626C16.5737 9.91728 16.551 9.89462 16.5284 9.84929C16.3697 9.50935 15.9391 9.35071 15.4405 9.35071Z" fill="#41E6AF"></path>
<path d="M17.0966 11.0062C17.0966 11.0516 17.0739 11.0742 17.0513 11.1196C17.0513 11.1422 17.0513 11.1422 17.0286 11.1649C17.0059 11.2329 16.9833 11.2782 16.9379 11.3462C16.6886 11.8221 16.2807 12.2754 15.7821 12.638C15.7141 12.6833 15.6461 12.7286 15.5781 12.7739C15.5101 12.8193 15.4422 12.8646 15.3742 12.8873H15.3515C15.3288 12.9099 15.3062 12.9099 15.2835 12.9326C15.2382 12.9553 15.2155 12.9779 15.1702 13.0006H15.1475C15.1249 13.0006 15.1022 13.0232 15.0795 13.0232C15.0342 13.0459 14.9889 13.0686 14.9436 13.0686L14.8982 13.0912C14.8982 13.0912 14.8982 13.0912 14.8756 13.0912C14.8529 13.0912 14.8302 13.1139 14.8076 13.1139C14.7623 13.1366 14.7169 13.1366 14.6716 13.1592L14.6263 13.1819H14.6036C14.5583 13.2045 14.513 13.2045 14.4676 13.2272C14.445 13.2272 14.4223 13.2499 14.377 13.2499H14.3543C14.309 13.2499 14.2637 13.2725 14.241 13.2725C14.2183 13.2725 14.173 13.2725 14.1503 13.2952H14.1277C14.105 13.2952 14.0824 13.2952 14.0597 13.3179C14.037 13.3179 14.0144 13.3179 13.9917 13.3179C13.9237 13.3179 13.8331 13.3405 13.7651 13.3405H13.7424C13.6744 13.3405 13.6064 13.3405 13.5384 13.3405C13.5158 13.3405 13.4931 13.3405 13.4931 13.3405H13.4704C13.4251 13.3405 13.3798 13.3405 13.3345 13.3179C13.3118 13.3179 13.2891 13.3179 13.2665 13.2952C13.2211 13.2952 13.1758 13.2725 13.1305 13.2725C13.1078 13.2725 13.0852 13.2499 13.0625 13.2499L14.309 15.2669L16.9833 15.2442L18.3657 12.7966L17.1192 10.757C17.1192 10.7796 17.1192 10.8023 17.0966 10.8249C17.0966 10.8476 17.0966 10.8476 17.0966 10.8703C17.0966 10.8929 17.0739 10.9156 17.0739 10.9609C17.0966 10.9836 17.0966 11.0062 17.0966 11.0062Z" fill="#41E6AF"></path>
<path d="M31.3125 18.3704C31.4485 18.5744 31.5391 18.8237 31.6071 19.1183C31.6751 19.4129 31.7204 19.7302 31.7204 20.0475C31.7204 20.954 31.4258 21.7698 30.9272 22.1778C30.7006 22.3591 30.4513 22.4497 30.202 22.4044C30.1566 22.4044 30.1113 22.3817 30.066 22.3817C30.0433 22.3817 30.0207 22.3591 29.998 22.3591C29.9753 22.3591 29.9527 22.3364 29.93 22.3364C29.8847 22.3137 29.8394 22.2911 29.8167 22.2684C29.3634 21.9738 29.0235 21.3166 28.9328 20.5234V20.5007C28.9328 20.4327 28.9102 20.3647 28.9102 20.2741C28.9102 20.2061 28.9102 20.1381 28.9102 20.0701C28.9102 19.9795 28.9102 19.9115 28.9102 19.8208C28.9102 19.7528 28.9102 19.6849 28.9328 19.6169V19.5715C28.9328 19.5262 28.9555 19.4582 28.9555 19.4129C28.9555 19.3902 28.9555 19.3676 28.9555 19.3449C28.9555 19.2996 28.9781 19.2543 28.9781 19.2089C28.9781 19.1636 29.0008 19.1409 29.0008 19.0956C29.0235 19.0503 29.0235 19.005 29.0461 18.9596C29.0461 18.937 29.0688 18.9143 29.0688 18.8917C29.0915 18.8463 29.0915 18.801 29.1141 18.7557L29.1368 18.6877C29.1595 18.6424 29.1821 18.6197 29.1821 18.5744C29.1821 18.5744 29.1821 18.5744 29.1821 18.5517L29.2048 18.5064C29.2274 18.4384 29.2728 18.3931 29.2954 18.3477C29.3181 18.3024 29.3634 18.2571 29.3861 18.2118L29.4088 18.1891C29.4314 18.1664 29.4314 18.1664 29.4541 18.1438C29.4767 18.1211 29.4767 18.1211 29.4767 18.0985C29.4994 18.0758 29.5221 18.0531 29.5447 18.0305C29.5674 18.0078 29.5901 17.9851 29.5901 17.9851C29.6127 17.9625 29.6127 17.9625 29.6354 17.9398C29.658 17.9172 29.6807 17.8945 29.7034 17.8718L29.7487 17.8492C29.7714 17.8265 29.8167 17.8038 29.8394 17.7812C29.862 17.7812 29.862 17.7812 29.8847 17.7585C29.9073 17.7585 29.93 17.7358 29.93 17.7358C29.93 17.7358 29.9527 17.7358 29.9527 17.7132H29.9753C30.0207 17.7132 30.0433 17.6905 30.0887 17.6905C30.134 17.6905 30.1793 17.6905 30.2246 17.6905C30.7006 17.6679 31.0405 17.9398 31.3125 18.3704Z" fill="#41E6AF"></path>
<path d="M29.0183 17.8271C28.9957 17.8498 28.973 17.8951 28.9503 17.9177C28.9503 17.9404 28.9277 17.9404 28.9277 17.9631C28.8823 18.0084 28.8597 18.0764 28.8143 18.1217C28.5197 18.575 28.3611 19.1642 28.3158 19.7761C28.3158 19.8668 28.3158 19.9347 28.3158 20.0254C28.3158 20.0934 28.3158 20.184 28.3158 20.252V20.2747C28.3158 20.2973 28.3158 20.3427 28.3158 20.3653C28.3158 20.4107 28.3158 20.456 28.3384 20.5013V20.524C28.3384 20.5466 28.3384 20.5693 28.3384 20.592C28.3384 20.6373 28.3611 20.6826 28.3611 20.7279V20.7733C28.3611 20.7733 28.3611 20.7733 28.3611 20.7959C28.3611 20.8186 28.3611 20.8413 28.3837 20.8639C28.3837 20.9092 28.4064 20.9546 28.4064 20.9999L28.4291 21.0452V21.0679C28.4291 21.1132 28.4517 21.1585 28.4744 21.2039C28.4744 21.2265 28.4971 21.2492 28.4971 21.2718V21.2945C28.5197 21.3398 28.5197 21.3625 28.5424 21.4078C28.5424 21.4305 28.565 21.4531 28.5877 21.4985V21.5211C28.5877 21.5438 28.6104 21.5665 28.6104 21.5891C28.633 21.6118 28.633 21.6345 28.633 21.6345C28.6557 21.7024 28.701 21.7704 28.7464 21.8384L28.769 21.8611C28.8143 21.9291 28.837 21.9744 28.8823 22.0197C28.8823 22.0424 28.905 22.0424 28.905 22.065L28.9277 22.0877C28.9503 22.133 28.9957 22.1557 29.0183 22.201C29.041 22.2237 29.041 22.2463 29.0636 22.2463C29.109 22.2917 29.1316 22.3143 29.1543 22.3597C29.177 22.3823 29.1996 22.3823 29.1996 22.405H26.82L25.4375 20.116L26.7973 17.6685H29.177C29.1543 17.6911 29.1543 17.6911 29.1316 17.7138L29.109 17.7364C29.0863 17.7591 29.0636 17.7818 29.0183 17.8271Z" fill="#41E6AF"></path>
<path d="M15.4405 30.8585C15.1912 30.8585 14.9193 30.8132 14.6473 30.7225C14.3527 30.6319 14.0581 30.4959 13.7861 30.3372C13.0155 29.8613 12.4716 29.1814 12.381 28.5469C12.3356 28.2523 12.4036 28.003 12.5623 27.8217C12.5849 27.7763 12.6303 27.7537 12.6529 27.7084C12.6756 27.6857 12.6983 27.6857 12.7209 27.663C12.7436 27.6404 12.7436 27.6404 12.7663 27.6177C12.8116 27.595 12.8342 27.5724 12.8796 27.5497C13.3555 27.3231 14.1034 27.3684 14.8286 27.7084L14.8513 27.731C14.9193 27.7537 14.9873 27.799 15.0553 27.8217C15.1232 27.8443 15.1686 27.8897 15.2366 27.935C15.3046 27.9803 15.3725 28.0256 15.4405 28.071C15.5085 28.1163 15.5538 28.1616 15.6218 28.2069L15.6672 28.2296C15.7125 28.2749 15.7578 28.2976 15.8031 28.3429C15.8258 28.3656 15.8258 28.3656 15.8485 28.3882C15.8938 28.4109 15.9165 28.4562 15.9391 28.4789C15.9618 28.5016 15.9845 28.5242 16.0071 28.5695C16.0298 28.6149 16.0751 28.6375 16.0978 28.6829C16.1204 28.7055 16.1204 28.7055 16.1431 28.7282C16.1658 28.7735 16.2111 28.7962 16.2337 28.8415L16.2791 28.8868C16.3017 28.9321 16.3244 28.9548 16.3471 29.0001V29.0228L16.3697 29.0681C16.4151 29.1134 16.4377 29.1814 16.4604 29.2268C16.483 29.2721 16.5057 29.3401 16.5284 29.3854L16.551 29.4081C16.551 29.4307 16.5737 29.4534 16.5737 29.4534C16.5737 29.4761 16.5737 29.4761 16.5964 29.4987C16.5964 29.544 16.619 29.5667 16.619 29.612C16.619 29.6574 16.6417 29.6574 16.6417 29.68C16.6417 29.7027 16.6417 29.7253 16.6417 29.7253C16.6417 29.7707 16.6417 29.7933 16.6417 29.816V29.8613C16.6417 29.9066 16.6417 29.9293 16.6417 29.9746C16.6417 29.9973 16.6417 29.9973 16.6417 30.02C16.6417 30.0426 16.6417 30.0653 16.6417 30.0653C16.6417 30.0879 16.6417 30.0879 16.6417 30.1106V30.1333C16.6417 30.1786 16.619 30.2013 16.5964 30.2466C16.5737 30.2919 16.551 30.3146 16.5284 30.3599C16.3697 30.6998 15.9391 30.8811 15.4405 30.8585Z" fill="#41E6AF"></path>
<path d="M17.0966 29.2034C17.0966 29.158 17.0739 29.1354 17.0513 29.09C17.0513 29.0674 17.0513 29.0674 17.0286 29.0447C17.0059 28.9767 16.9833 28.9314 16.9379 28.8634C16.6886 28.3875 16.2807 27.9342 15.7821 27.5716C15.7141 27.5263 15.6461 27.481 15.5781 27.4357C15.5101 27.3903 15.4422 27.345 15.3742 27.3223H15.3515C15.3288 27.2997 15.3062 27.2997 15.2835 27.277C15.2382 27.2544 15.2155 27.2317 15.1702 27.209H15.1475C15.1249 27.209 15.1022 27.1864 15.0795 27.1864C15.0342 27.1637 14.9889 27.141 14.9436 27.141L14.8982 27.1184C14.8982 27.1184 14.8982 27.1184 14.8756 27.1184C14.8529 27.1184 14.8302 27.0957 14.8076 27.0957C14.7623 27.0731 14.7169 27.0731 14.6716 27.0504L14.6263 27.0277H14.6036C14.5583 27.0051 14.513 27.0051 14.4676 26.9824C14.445 26.9824 14.4223 26.9597 14.377 26.9597H14.3543C14.309 26.9597 14.2637 26.9371 14.241 26.9371C14.2183 26.9371 14.173 26.9371 14.1503 26.9144H14.1277C14.105 26.9144 14.0824 26.9144 14.0597 26.8918C14.037 26.8918 14.0144 26.8918 13.9917 26.8918C13.9237 26.8918 13.8331 26.8691 13.7651 26.8691H13.7424C13.6744 26.8691 13.6064 26.8691 13.5384 26.8691C13.5158 26.8691 13.4931 26.8691 13.4931 26.8691H13.4704C13.4251 26.8691 13.3798 26.8691 13.3345 26.8918C13.3118 26.8918 13.2891 26.8918 13.2665 26.9144C13.2211 26.9144 13.1758 26.9371 13.1305 26.9371C13.1078 26.9371 13.0852 26.9597 13.0625 26.9597L14.309 24.9427L16.9833 24.9654L18.3657 27.413L17.1192 29.4526C17.1192 29.43 17.1192 29.4073 17.0966 29.3847C17.0966 29.362 17.0966 29.362 17.0966 29.3393C17.0966 29.3167 17.0739 29.294 17.0739 29.2487C17.0966 29.226 17.0966 29.2034 17.0966 29.2034Z" fill="#41E6AF"></path>
<path d="M21.8361 32.0587L15.309 32.036L14.3118 33.917L13.6319 35.2088L15.377 35.1862V35.2088L25.3489 35.2315L26.3461 33.5091L19.1618 21.2032L4.90654 21.1805L4 22.7669L4.18131 23.0616H4.15864L9.82449 33.0332L11.7056 29.9737L8.3967 24.3533H17.3487L21.8361 32.0587Z" fill="#41E6AF"></path>
</svg>