<svg width="40" height="40" viewBox="0 0 40 40" fill="none" xmlns="http://www.w3.org/2000/svg">
<circle cx="20" cy="20" r="20" fill="#0C0C0C"></circle>
<path d="M24.1778 32.7677V27.4167C24.2477 27.3717 24.3338 27.3113 24.4233 27.258C25.6637 26.5269 26.9017 25.7923 28.1478 25.0707C28.341 24.9593 28.4201 24.8337 28.4201 24.6074C28.4143 21.6097 28.4143 18.6131 28.4201 15.6154C28.4201 15.4329 28.3584 15.3298 28.206 15.2398C26.4851 14.2326 24.7678 13.2184 23.048 12.2088C22.9782 12.1674 22.8968 12.1449 22.7793 12.0963V36C22.6606 35.9467 22.5838 35.9194 22.5151 35.8791C19.9391 34.3684 17.363 32.8577 14.7881 31.3446C12.6239 30.0732 10.4632 28.7971 8.29438 27.534C8.08028 27.4096 8.00465 27.2734 8.00582 27.0245C8.01164 22.3514 8.01047 17.677 8 13.0039C8 12.7408 8.08145 12.6046 8.30252 12.4754C11.0333 10.883 13.7584 9.27863 16.4845 7.67786C16.5741 7.62573 16.666 7.57596 16.7975 7.50368C16.8092 7.64231 16.8243 7.73592 16.8243 7.83071C16.8266 9.42793 16.8243 11.0251 16.8324 12.6224C16.8324 12.8096 16.7614 12.9008 16.6114 12.9885C15.3838 13.703 14.1621 14.4257 12.9381 15.1461C12.8298 15.2101 12.7216 15.2765 12.5925 15.3535C12.5925 15.4483 12.5925 15.5455 12.5925 15.6426C12.589 18.5017 12.5855 21.3608 12.5832 24.2199C12.5832 24.2401 12.5855 24.2602 12.5832 24.2792C12.5459 24.5434 12.6507 24.7046 12.8857 24.8396C13.7956 25.3645 14.6915 25.9155 15.5956 26.4499C16.3402 26.8907 17.0907 27.3243 17.8389 27.758C17.9366 27.8149 18.0402 27.8587 18.1961 27.9357V9.34735C18.1961 8.46936 18.1961 7.59255 18.1961 6.71456C18.1961 5.83064 18.1949 4.9479 18.1973 4C18.345 4.07702 18.4358 4.12086 18.523 4.1718C21.2003 5.74177 23.8765 7.31173 26.5526 8.8817C28.5993 10.0832 30.6448 11.287 32.6973 12.4802C32.9102 12.6034 32.9905 12.7397 32.9905 12.9897C32.987 17.7221 32.9916 22.4557 32.9951 27.1881C32.9951 27.2272 32.9905 27.2674 32.9951 27.3065C33.0242 27.5234 32.9207 27.6431 32.7403 27.7485C31.4197 28.5151 30.1037 29.2912 28.7878 30.0649C27.3624 30.9027 25.9359 31.7404 24.5106 32.5781C24.4199 32.6314 24.3279 32.6812 24.179 32.7653L24.1778 32.7677Z" fill="white"></path>
</svg>