<svg width="40" height="40" viewBox="0 0 40 40" fill="none" xmlns="http://www.w3.org/2000/svg">
<g clip-path="url(#clip0_2809_7030)">
<circle cx="20" cy="20" r="20" fill="#C8ECE1"></circle>
<path d="M30.8848 25.7688L27.253 29.7271C27.1744 29.8131 27.0793 29.8817 26.9735 29.9286C26.8677 29.9756 26.7536 29.9999 26.6381 30H9.42197C9.33986 30 9.25954 29.9756 9.19085 29.9298C9.12216 29.8841 9.06809 29.819 9.03525 29.7425C9.0024 29.666 8.99222 29.5814 9.00594 29.4991C9.01965 29.4169 9.05668 29.3404 9.11249 29.2792L12.7402 25.3209C12.8187 25.2349 12.9139 25.1663 13.0197 25.1193C13.1254 25.0724 13.2396 25.0481 13.355 25.0479H30.5712C30.654 25.0462 30.7356 25.0694 30.8055 25.1147C30.8754 25.1599 30.9307 25.2252 30.9641 25.3022C30.9977 25.3793 31.008 25.4647 30.9938 25.5477C30.9797 25.6307 30.9418 25.7076 30.8848 25.7688ZM27.253 17.7959C27.1742 17.7103 27.079 17.642 26.9732 17.595C26.8675 17.5481 26.7535 17.5236 26.6381 17.523H9.42197C9.33986 17.523 9.25954 17.5474 9.19085 17.5932C9.12216 17.6389 9.06809 17.704 9.03525 17.7805C9.0024 17.857 8.99222 17.9415 9.00594 18.0238C9.01965 18.1061 9.05668 18.1826 9.11249 18.2438L12.7402 22.2042C12.819 22.2898 12.9142 22.3581 13.0199 22.4051C13.1257 22.452 13.2397 22.4765 13.355 22.4771H30.5712C30.6532 22.4767 30.7331 22.452 30.8016 22.4061C30.87 22.3602 30.9237 22.2951 30.9563 22.2187C30.9889 22.1423 30.9989 22.0578 30.985 21.9757C30.9713 21.8936 30.9344 21.8174 30.8786 21.7563L27.253 17.7959ZM9.42197 14.9521H26.6381C26.7536 14.952 26.8677 14.9277 26.9735 14.8808C27.0793 14.8338 27.1744 14.7652 27.253 14.6792L30.8848 10.7209C30.9418 10.6598 30.9797 10.5829 30.9938 10.4998C31.008 10.4168 30.9977 10.3314 30.9641 10.2544C30.9307 10.1773 30.8754 10.1121 30.8055 10.0668C30.7356 10.0216 30.654 9.99835 30.5712 10.0001H13.355C13.2396 10.0002 13.1254 10.0245 13.0197 10.0715C12.9139 10.1184 12.8187 10.187 12.7402 10.273L9.11249 14.2313C9.05668 14.2925 9.01965 14.369 9.00594 14.4513C8.99222 14.5336 9.0024 14.6181 9.03525 14.6946C9.06809 14.7711 9.12216 14.8362 9.19085 14.882C9.25954 14.9277 9.33986 14.9521 9.42197 14.9521Z" fill="#308D8A"></path>
</g>
<defs>
<clipPath id="clip0_2809_7030">
<rect width="40" height="40" fill="white"></rect>
</clipPath>
</defs>
</svg>