<svg width="40" height="40" viewBox="0 0 40 40" fill="none" xmlns="http://www.w3.org/2000/svg">
<g filter="url(#filter0_i_63963_37087)">
<path d="M20.146 40C31.1106 40 39.9991 31.0457 39.9991 20C39.9991 8.95431 31.1106 0 20.146 0C9.18149 0 0.292969 8.95431 0.292969 20C0.292969 31.0457 9.18149 40 20.146 40Z" fill="url(#paint0_linear_63963_37087)"></path>
</g>
<path d="M37.787 19.9995C37.787 29.8126 29.8904 37.7677 20.1494 37.7677C10.4083 37.7677 2.51172 29.8126 2.51172 19.9995C2.51172 10.1864 10.4083 2.23132 20.1494 2.23132C29.8904 2.23132 37.787 10.1864 37.787 19.9995Z" fill="url(#paint1_linear_63963_37087)" fill-opacity="0.6"></path>
<path d="M37.787 19.9995C37.787 29.8126 29.8904 37.7677 20.1494 37.7677C10.4083 37.7677 2.51172 29.8126 2.51172 19.9995C2.51172 10.1864 10.4083 2.23132 20.1494 2.23132C29.8904 2.23132 37.787 10.1864 37.787 19.9995Z" stroke="url(#paint2_linear_63963_37087)" style="mix-blend-mode:overlay" stroke-width="2"></path>
<path d="M20.1499 40C31.1145 40 40.003 31.0457 40.003 20C40.003 8.95431 31.1145 0 20.1499 0C9.18539 0 0.296875 8.95431 0.296875 20C0.296875 31.0457 9.18539 40 20.1499 40Z" fill="url(#paint3_linear_63963_37087)"></path>
<path d="M38.0628 20.0005C38.0628 29.9686 30.0415 38.0493 20.1467 38.0493C10.2518 38.0493 2.23047 29.9686 2.23047 20.0005C2.23047 10.0325 10.2518 1.95178 20.1467 1.95178C30.0415 1.95178 38.0628 10.0325 38.0628 20.0005Z" fill="url(#paint4_linear_63963_37087)"></path>
<path fill-rule="evenodd" clip-rule="evenodd" d="M20.1467 37.7241C29.8632 37.7241 37.74 29.789 37.74 20.0005C37.74 10.2121 29.8632 2.27698 20.1467 2.27698C10.4301 2.27698 2.55328 10.2121 2.55328 20.0005C2.55328 29.789 10.4301 37.7241 20.1467 37.7241ZM20.1467 38.0493C30.0415 38.0493 38.0628 29.9686 38.0628 20.0005C38.0628 10.0325 30.0415 1.95178 20.1467 1.95178C10.2518 1.95178 2.23047 10.0325 2.23047 20.0005C2.23047 29.9686 10.2518 38.0493 20.1467 38.0493Z" fill="url(#paint5_linear_63963_37087)"></path>
<path opacity="0.6" d="M14.3851 39.0124L32.645 20.3704L26.6401 14.1976L20.145 13.8983L13.5273 8.27161L0.046782 21.9753C-0.379151 22.1899 2.12374 27.8428 6.72284 33.8496C11.3219 39.8565 11.5462 39.656 14.3851 39.0124Z" fill="url(#paint6_linear_63963_37087)"></path>
<path d="M20.1484 33.0867L32.6485 20.3713V14.1913L20.1484 26.9067V33.0867Z" fill="url(#paint7_linear_63963_37087)"></path>
<path d="M20.1486 33.0867L7.64844 20.3713V14.1913L20.1486 26.9067V33.0867Z" fill="url(#paint8_linear_63963_37087)"></path>
<path d="M20.1484 33.0867L32.6485 20.3713V14.1913L20.1484 26.9067V33.0867Z" fill="url(#paint9_linear_63963_37087)"></path>
<path d="M20.1486 33.0867L7.64844 20.3713V14.1913L20.1486 26.9067V33.0867Z" fill="url(#paint10_linear_63963_37087)"></path>
<path d="M20.1719 14.2722L13.832 20.7031V26.8779L20.1719 20.447V14.2722Z" fill="url(#paint11_linear_63963_37087)"></path>
<path d="M20.1484 14.2722L26.4626 20.7031V26.8779L20.1484 20.447V14.2722Z" fill="url(#paint12_linear_63963_37087)"></path>
<path d="M32.6448 20.3507L26.459 14.0738V7.90161L32.6448 14.1783V20.3507Z" fill="url(#paint13_linear_63963_37087)"></path>
<path d="M7.64844 20.3507L13.8343 14.0738V7.90161L7.64844 14.1783V20.3507Z" fill="url(#paint14_linear_63963_37087)"></path>
<path d="M20.1211 20.5072L26.4609 14.0763V7.90161L20.1211 14.3324V20.5072Z" fill="#D28A1C"></path>
<path d="M20.1463 20.5072L13.832 14.0763V7.90161L20.1463 14.3324V20.5072Z" fill="#FFAA27"></path>
<g style="mix-blend-mode:overlay">
<path fill-rule="evenodd" clip-rule="evenodd" d="M13.5703 7.30603L20.139 13.9233L26.7076 7.30603V14.2232L23.7096 17.3873L26.7076 20.6952V27.6093L20.139 20.992L13.5703 27.6093V20.6935L16.6381 17.3874L13.5703 14.2249V7.30603ZM14.0605 8.49817V14.0237L17.3162 17.3798L14.0605 20.8884V26.4171L20.139 20.2937L26.2174 26.4171V20.8867L23.039 17.3799L26.2174 14.0254V8.49817L20.139 14.6217L14.0605 8.49817Z" fill="url(#paint15_linear_63963_37087)"></path>
</g>
<defs>
<filter id="filter0_i_63963_37087" x="0.292969" y="0" width="39.707" height="46" filterUnits="userSpaceOnUse" color-interpolation-filters="sRGB">
<feFlood flood-opacity="0" result="BackgroundImageFix"></feFlood>
<feBlend mode="normal" in="SourceGraphic" in2="BackgroundImageFix" result="shape"></feBlend>
<feColorMatrix in="SourceAlpha" type="matrix" values="0 0 0 0 0 0 0 0 0 0 0 0 0 0 0 0 0 0 127 0" result="hardAlpha"></feColorMatrix>
<feOffset dy="7"></feOffset>
<feGaussianBlur stdDeviation="3"></feGaussianBlur>
<feComposite in2="hardAlpha" operator="arithmetic" k2="-1" k3="1"></feComposite>
<feColorMatrix type="matrix" values="0 0 0 0 1 0 0 0 0 1 0 0 0 0 1 0 0 0 0.3 0"></feColorMatrix>
<feBlend mode="normal" in2="shape" result="effect1_innerShadow_63963_37087"></feBlend>
</filter>
<linearGradient id="paint0_linear_63963_37087" x1="34.3498" y1="-6.42277" x2="5.41075" y2="35.7363" gradientUnits="userSpaceOnUse">
<stop stop-color="#FFCF86"></stop>
<stop offset="0.504337" stop-color="#4D259B"></stop>
<stop offset="0.714734" stop-color="#291D99"></stop>
<stop offset="1" stop-color="#120C40"></stop>
</linearGradient>
<linearGradient id="paint1_linear_63963_37087" x1="34.6765" y1="3.95185" x2="3.79767" y2="34.0028" gradientUnits="userSpaceOnUse">
<stop stop-color="#CABFFF"></stop>
<stop offset="0.504337" stop-color="#4D259B"></stop>
<stop offset="0.714734" stop-color="#291D99"></stop>
<stop offset="1" stop-color="#120C40"></stop>
</linearGradient>
<linearGradient id="paint2_linear_63963_37087" x1="36.3629" y1="-1.13849" x2="12.7171" y2="36.591" gradientUnits="userSpaceOnUse">
<stop></stop>
<stop offset="1" stop-color="white"></stop>
</linearGradient>
<linearGradient id="paint3_linear_63963_37087" x1="44.8452" y1="-7.07319" x2="19.8535" y2="44.1643" gradientUnits="userSpaceOnUse">
<stop offset="0.141254" stop-color="#FDEBEE"></stop>
<stop offset="0.504337" stop-color="#4D259B"></stop>
<stop offset="0.714734" stop-color="#291D99"></stop>
<stop offset="1" stop-color="#120C40"></stop>
</linearGradient>
<linearGradient id="paint4_linear_63963_37087" x1="34.3425" y1="4.31883" x2="4.16782" y2="33.6845" gradientUnits="userSpaceOnUse">
<stop stop-color="#CABFFF"></stop>
<stop offset="0.504337" stop-color="#4D259B"></stop>
<stop offset="0.714734" stop-color="#291D99"></stop>
<stop offset="1" stop-color="#120C40"></stop>
</linearGradient>
<linearGradient id="paint5_linear_63963_37087" x1="31.0416" y1="1.95178" x2="3.52115" y2="35.5742" gradientUnits="userSpaceOnUse">
<stop stop-color="#7D51A3"></stop>
<stop offset="1" stop-color="#3A28EE"></stop>
</linearGradient>
<linearGradient id="paint6_linear_63963_37087" x1="21.2014" y1="17.5453" x2="9.37684" y2="33.3352" gradientUnits="userSpaceOnUse">
<stop stop-opacity="0.71"></stop>
<stop offset="0.978714" stop-opacity="0"></stop>
</linearGradient>
<linearGradient id="paint7_linear_63963_37087" x1="20.1484" y1="23.639" x2="32.6485" y2="23.639" gradientUnits="userSpaceOnUse">
<stop stop-color="#A5ABB2"></stop>
<stop offset="0.21" stop-color="#9FA5AC"></stop>
<stop offset="0.49" stop-color="#8C939A"></stop>
<stop offset="0.83" stop-color="#6F767E"></stop>
<stop offset="1" stop-color="#5D656D"></stop>
</linearGradient>
<linearGradient id="paint8_linear_63963_37087" x1="7.64844" y1="23.639" x2="20.1486" y2="23.639" gradientUnits="userSpaceOnUse">
<stop stop-color="#3E4147"></stop>
<stop offset="0.3" stop-color="#44474D"></stop>
<stop offset="0.71" stop-color="#56585F"></stop>
<stop offset="1" stop-color="#67686F"></stop>
</linearGradient>
<linearGradient id="paint9_linear_63963_37087" x1="50.5714" y1="4.93855" x2="15.8051" y2="37.6815" gradientUnits="userSpaceOnUse">
<stop stop-color="#FFAA27"></stop>
<stop offset="0.21" stop-color="#FFAA27"></stop>
<stop offset="0.49" stop-color="#FFAA27"></stop>
<stop offset="0.855271" stop-color="#5547BF"></stop>
<stop offset="1" stop-color="#180D65"></stop>
</linearGradient>
<linearGradient id="paint10_linear_63963_37087" x1="-4.48396" y1="1.97559" x2="19.6451" y2="29.8303" gradientUnits="userSpaceOnUse">
<stop stop-color="#FFAA27"></stop>
<stop offset="0.21" stop-color="#FFAA27"></stop>
<stop offset="0.49" stop-color="#FFAA27"></stop>
<stop offset="1" stop-color="#8679E8"></stop>
</linearGradient>
<linearGradient id="paint11_linear_63963_37087" x1="13.6828" y1="24.7228" x2="18.4766" y2="20.4772" gradientUnits="userSpaceOnUse">
<stop stop-color="white"></stop>
<stop offset="1" stop-color="#FFC772" stop-opacity="0.63"></stop>
</linearGradient>
<linearGradient id="paint12_linear_63963_37087" x1="27.5015" y1="23.8278" x2="22.1963" y2="19.1811" gradientUnits="userSpaceOnUse">
<stop stop-color="white"></stop>
<stop offset="1" stop-color="#FFC772" stop-opacity="0.63"></stop>
</linearGradient>
<linearGradient id="paint13_linear_63963_37087" x1="6.95158" y1="11.0941" x2="10.784" y2="23.0399" gradientUnits="userSpaceOnUse">
<stop stop-color="white"></stop>
<stop offset="1" stop-color="#FFC772" stop-opacity="0.47"></stop>
</linearGradient>
<linearGradient id="paint14_linear_63963_37087" x1="13.98" y1="10.0299" x2="6.54066" y2="16.3531" gradientUnits="userSpaceOnUse">
<stop stop-color="white"></stop>
<stop offset="1" stop-color="#FFC772" stop-opacity="0.63"></stop>
</linearGradient>
<linearGradient id="paint15_linear_63963_37087" x1="20.139" y1="7.64056" x2="20.139" y2="27.2747" gradientUnits="userSpaceOnUse">
<stop stop-color="white"></stop>
<stop offset="1" stop-color="#B2A3FF"></stop>
</linearGradient>
</defs>
</svg>