<svg width="40" height="40" viewBox="0 0 40 40" fill="none" xmlns="http://www.w3.org/2000/svg">
<g clip-path="url(#clip0_78004_42899)">
<circle cx="20" cy="20" r="20" fill="#191919"></circle>
<path d="M36 32.001C34.8625 33.5151 33.5151 34.8625 32.001 36H25.333V25.333H36V32.001ZM14.667 36H7.99902C6.48486 34.8625 5.13753 33.5151 4 32.001V25.333H14.667V36ZM25.333 25.333H14.667V14.667H25.333V25.333ZM14.667 14.667H4V7.99805C5.13743 6.48414 6.48507 5.13737 7.99902 4H14.667V14.667ZM32.001 4C33.5149 5.13737 34.8626 6.48414 36 7.99805V14.667H25.333V4H32.001Z" fill="#D9D9D9"></path>
</g>
<defs>
<clipPath id="clip0_78004_42899">
<rect width="40" height="40" fill="white"></rect>
</clipPath>
</defs>
</svg>