<svg width="40" height="40" viewBox="0 0 40 40" fill="none" xmlns="http://www.w3.org/2000/svg">
<circle cx="20" cy="20" r="20" fill="white"></circle>
<path fill-rule="evenodd" clip-rule="evenodd" d="M20 6.28571C12.4258 6.28571 6.28572 12.4258 6.28572 20C6.28572 27.5742 12.4258 33.7142 20 33.7142H28.2459C25.8378 35.1653 23.0164 36 20 36C11.1634 36 4 28.8366 4 20C4 11.1634 11.1634 4 20 4C28.8366 4 36 11.1634 36 20C36 20.776 35.9447 21.5392 35.8379 22.2857H33.5247C33.6493 21.5424 33.7142 20.7788 33.7142 20C33.7142 12.4258 27.5742 6.28571 20 6.28571ZM33.1321 29.1428C32.559 29.9643 31.9109 30.7296 31.1977 31.4286H27.5835H20C13.6882 31.4286 8.57143 26.3118 8.57143 20C8.57143 13.6881 13.6882 8.57143 20 8.57143C26.3118 8.57143 31.4286 13.6881 31.4286 20C31.4286 20.7828 31.3499 21.5472 31.1999 22.2857H28.8548C29.0428 21.5551 29.1428 20.7893 29.1428 20C29.1428 14.9505 25.0494 10.8571 20 10.8571C14.9505 10.8571 10.8571 14.9505 10.8571 20C10.8571 25.0494 14.9505 29.1428 20 29.1428H26.8582H30.2222H33.1321ZM34.4602 26.8571C34.8082 26.1244 35.1026 25.3603 35.3374 24.5715H32.9339H30.4776H27.9197H25.1111H20C17.4752 24.5715 15.4286 22.5247 15.4286 20C15.4286 17.4753 17.4752 15.4286 20 15.4286C22.5247 15.4286 24.5714 17.4753 24.5714 20C24.5714 20.8327 24.3489 21.6133 23.9598 22.2857H26.4669C26.7196 21.5708 26.8571 20.8014 26.8571 20C26.8571 16.2129 23.7871 13.1428 20 13.1428C16.2129 13.1428 13.1428 16.2129 13.1428 20C13.1428 23.7871 16.2129 26.8571 20 26.8571H26.0475H29.1437H31.8795H34.4602Z" fill="#06070A"></path>
</svg>