<svg width="40" height="40" viewBox="0 0 40 40" fill="none" xmlns="http://www.w3.org/2000/svg">
<g clip-path="url(#clip0_65426_140228)">
<circle cx="20" cy="20" r="20" fill="black"></circle>
<path d="M11.604 30H20.3378L12.8015 17.4787H19.6465V10H12.064C10.8129 9.99973 9.58407 10.3318 8.50338 10.9624C7.42269 11.5929 6.52891 12.4992 5.91347 13.5886C5.29803 14.6779 4.98303 15.9112 5.0007 17.1623C5.01838 18.4133 5.36808 19.6372 6.01405 20.7088L11.6065 30H11.604Z" fill="white"></path>
<path d="M28.2247 10H19.4922L27.0284 22.5212H20.1834V30H27.7647C29.0159 30.0003 30.2447 29.6682 31.3254 29.0376C32.406 28.4071 33.2998 27.5008 33.9153 26.4114C34.5307 25.3221 34.8457 24.0888 34.828 22.8377C34.8104 21.5867 34.4607 20.3628 33.8147 19.2913L28.2247 10Z" fill="white"></path>
</g>
<defs>
<clipPath id="clip0_65426_140228">
<rect width="40" height="40" fill="white"></rect>
</clipPath>
</defs>
</svg>