<svg width="40" height="40" viewBox="0 0 40 40" fill="none" xmlns="http://www.w3.org/2000/svg">
<g clip-path="url(#clip0_76234_68026)">
<path d="M19.9763 40C31.032 40 39.9525 31.0483 39.9525 20.0236C40 8.95171 31.032 0 19.9763 0C8.96797 0 0 8.95171 0 19.9764C0 31.0483 8.96797 40 19.9763 40Z" fill="#0071F3"></path>
<path d="M23.155 8.0094H20.9723H16.1325C15.3733 8.0094 14.6615 8.57477 14.5666 9.37571L14.0922 12.5795V12.6266H11.7197C11.1028 12.6266 10.5809 13.1449 10.5809 13.7573C10.5809 14.4169 11.1028 14.8881 11.7197 14.9352H13.7126L13.3804 17.1496V17.338H11.0079C10.3911 17.338 9.86914 17.8563 9.86914 18.4688C9.86914 19.0812 10.3911 19.5995 11.0079 19.5995H13.0008L11.9095 26.4782L11.5773 28.7868L11.3875 30.0118C11.2452 31.0012 11.9569 31.8492 12.9534 31.8492H14.4718H16.5595H18.2677C19.0269 31.8492 19.6912 31.2838 19.8336 30.4829L20.83 24.1696H21.3994H23.2974C27.7576 24.1696 31.4113 20.4947 31.3164 16.0188C31.2689 11.4487 27.5678 8.0094 23.155 8.0094ZM16.0376 14.841L23.155 14.8881C23.7719 14.8881 24.3413 15.4063 24.3413 16.0659C24.3413 16.7255 23.8193 17.2438 23.155 17.2438H15.658L16.0376 14.841ZM23.2025 21.7196H22.0162H21.4468H20.2606C19.5014 21.7196 18.8371 22.285 18.6948 23.086L17.6983 29.3993H13.76L15.2784 19.5053H23.155C25.053 19.5053 26.6188 17.9505 26.6188 16.0659C26.6188 14.1814 25.053 12.6266 23.155 12.6266L16.4172 12.5795L16.7493 10.318H23.2974C26.5239 10.318 29.0862 12.9564 29.0388 16.1602C28.9439 19.2697 26.3341 21.7196 23.2025 21.7196Z" fill="white"></path>
</g>
<defs>
<clipPath id="clip0_76234_68026">
<rect width="40" height="40" fill="white"></rect>
</clipPath>
</defs>
</svg>