<svg width="40" height="40" viewBox="0 0 40 40" fill="none" xmlns="http://www.w3.org/2000/svg">
<circle cx="20" cy="20" r="20" fill="url(#paint0_linear_62382_143168)"></circle>
<path d="M28.1889 30.1896C28.6604 29.9968 29.0744 29.7897 29.4421 29.5706C32.0367 27.126 32.8883 29.7505 30.3257 31.8454C29.7618 32.3063 29.1206 32.5893 28.5269 32.8514L28.5267 32.8514C27.3001 33.3861 26.1356 33.6537 25.0343 33.6537C24.1333 33.6537 23.3006 33.4044 22.5371 32.906C21.7739 32.4076 21.079 31.7332 20.4532 30.8822C19.827 30.0316 19.2578 29.041 18.7445 27.9107C18.2316 26.7683 17.7745 25.5651 17.3736 24.3011C17.1487 24.7995 16.9169 25.3889 16.6795 26.0694C16.4417 26.7379 16.1847 27.4306 15.9091 28.1478C15.634 28.8647 15.346 29.5757 15.0455 30.2808C14.7455 30.9735 14.4137 31.5995 14.0506 32.1587C13.6879 32.7055 13.2995 33.149 12.8866 33.4895C12.4736 33.8296 12.023 34 11.5349 34C11.1341 34 10.8087 33.9392 10.5585 33.8175C10.3082 33.6962 10.1138 33.5441 9.97645 33.3619C9.83868 33.1794 9.73866 32.9789 9.676 32.7601C9.6258 32.5414 9.60089 32.335 9.60089 32.1404C9.60089 31.8608 9.63826 31.5753 9.71337 31.2835C9.78848 30.9918 9.89492 30.7184 10.0327 30.463L15.5713 20.6182C16.0473 19.7921 16.5225 18.9957 16.9984 18.2301C17.4865 17.4524 17.9556 16.7656 18.4067 16.1701C18.8698 15.5745 19.3016 15.1006 19.7021 14.7481C20.115 14.3834 20.4845 14.2012 20.8099 14.2012C20.8975 14.2012 21.0039 14.2192 21.1292 14.2559C21.2545 14.28 21.3666 14.3347 21.467 14.4197C21.5674 14.493 21.6546 14.6084 21.7297 14.7664C21.8052 14.9122 21.8426 15.1006 21.8426 15.3315C21.8426 15.5624 21.7739 15.8842 21.6357 16.2976C21.4983 16.711 21.3168 17.1849 21.0915 17.7196C20.8661 18.2543 20.6034 18.844 20.303 19.4879C20.0025 20.1201 19.6896 20.7703 19.3643 21.4388C19.4394 21.4509 19.5141 21.4571 19.5892 21.4571H19.8523C20.9416 21.4571 21.9675 21.2321 22.9315 20.7824C23.908 20.3206 24.7591 19.7371 25.4853 19.0324C26.2107 18.3272 26.7803 17.5433 27.1936 16.6806C27.6194 15.8175 27.8319 14.9789 27.8319 14.1646C27.8319 13.5811 27.7194 13.0281 27.4941 12.5055C27.2812 11.9829 26.937 11.5273 26.4614 11.1385C25.9982 10.7492 25.3974 10.4395 24.6587 10.2087C23.9329 9.9774 23.0632 9.86195 22.049 9.86195C20.9103 9.86195 19.9274 9.96531 19.1016 10.172C18.2874 10.3787 17.5805 10.6459 16.9796 10.9743C16.3915 11.3026 15.8906 11.679 15.4777 12.1045C15.0769 12.53 14.7266 12.9673 14.4262 13.4173C14.1382 13.867 13.8755 14.3042 13.6377 14.7297C13.3999 15.1552 13.1493 15.532 12.8866 15.8604C12.6363 16.1884 12.3547 16.4556 12.0415 16.6623C11.7286 16.869 11.3405 16.9723 10.8774 16.9723C10.2516 16.9723 9.78207 16.8202 9.46916 16.5164C9.15664 16.2005 9 15.7629 9 15.204C9 14.6814 9.14418 14.1159 9.4318 13.5082C9.73224 12.9006 10.1516 12.2929 10.6894 11.6853C11.2405 11.0776 11.9101 10.4942 12.699 9.93525C13.4871 9.36389 14.3695 8.86546 15.346 8.43996C16.3349 8.00273 17.4114 7.65602 18.5758 7.40094C19.7398 7.13377 20.9726 7 22.2744 7C23.5513 7 24.7715 7.15796 25.9356 7.47388C27.1121 7.7898 28.1512 8.26367 29.0525 8.89587C29.9535 9.51598 30.6672 10.2995 31.193 11.2477C31.7309 12.1958 32 13.3019 32 14.5655C32 15.4165 31.8377 16.2309 31.512 17.0086C31.1991 17.7746 30.7733 18.4977 30.2354 19.1782C29.6972 19.8467 29.065 20.4665 28.3388 21.0375C27.6258 21.5967 26.8618 22.0952 26.0484 22.5328C25.2351 22.97 24.396 23.3409 23.5324 23.6447C22.6813 23.9485 21.855 24.1673 21.0537 24.3011C21.1666 24.8721 21.3481 25.5164 21.5984 26.2336C21.8614 26.9384 22.1743 27.6131 22.5371 28.257C22.9126 28.8892 23.3259 29.4298 23.7762 29.8795C24.2273 30.3296 24.7025 30.5725 25.2037 30.6088C25.3034 30.6209 25.3974 30.6272 25.4853 30.6272H25.748C26.6618 30.6272 27.4752 30.4813 28.1889 30.1896Z" fill="white"></path>
<defs>
<linearGradient id="paint0_linear_62382_143168" x1="20" y1="0" x2="20" y2="40" gradientUnits="userSpaceOnUse">
<stop stop-color="#C02BC0"></stop>
<stop offset="1" stop-color="#9E00F6"></stop>
</linearGradient>
</defs>
</svg>