<svg width="40" height="40" viewBox="0 0 40 40" fill="none" xmlns="http://www.w3.org/2000/svg">
<circle cx="20" cy="20" r="20" fill="#006AFE"></circle>
<path d="M24.4932 6C27.64 6.00007 30.1914 8.55139 30.1914 11.6982C30.1913 14.8123 27.6925 17.3404 24.5908 17.3926C24.5913 17.3936 24.5923 17.3945 24.5928 17.3955H24.1943C22.9359 17.3957 21.9153 18.4164 21.915 19.6748C21.9152 20.9333 22.9358 21.9539 24.1943 21.9541H24.4189L24.417 21.9561C24.4424 21.9557 24.4677 21.9541 24.4932 21.9541C27.64 21.9542 30.1914 24.5055 30.1914 27.6523C30.1913 30.7991 27.6399 33.3505 24.4932 33.3506C21.3463 33.3506 18.795 30.7992 18.7949 27.6523C18.7949 26.575 19.0937 25.5673 19.6133 24.708C19.6114 24.7079 19.6093 24.7081 19.6074 24.708L19.7207 24.5137C20.3496 23.4239 19.9742 22.0289 18.8848 21.3994C17.7948 20.7702 16.398 21.1426 15.7686 22.2324L15.5859 22.5479C15.5853 22.5469 15.5847 22.5459 15.584 22.5449C14.5879 24.203 12.7734 25.3134 10.6982 25.3135C7.5514 25.3135 5.00007 22.7621 5 19.6152C5 16.4683 7.55135 13.917 10.6982 13.917C12.7186 13.9171 14.4914 14.9699 15.5029 16.5557L15.5049 16.5547L15.5234 16.5869C15.6007 16.7098 15.6733 16.8358 15.7412 16.9648L15.7607 16.998C16.3845 18.078 17.7665 18.4476 18.8467 17.8242C19.9266 17.2003 20.2974 15.8184 19.6738 14.7383L19.6602 14.7158C19.5869 14.5988 19.5179 14.479 19.4531 14.3564L19.417 14.2939C19.4182 14.2939 19.4197 14.2931 19.4209 14.293C19.0218 13.5146 18.795 12.6331 18.7949 11.6982C18.7949 8.55135 21.3463 6.00001 24.4932 6Z" fill="white"></path>
</svg>