<svg width="40" height="40" viewBox="0 0 40 40" fill="none" xmlns="http://www.w3.org/2000/svg">
<g clip-path="url(#clip0_77915_6838)">
<circle cx="20" cy="20" r="20" fill="#EAE9E9"></circle>
<path d="M7.05664 10.5957C7.54935 9.91756 8.09459 9.27921 8.68731 8.68652L8.88617 8.79613L19.8972 19.8656L20.0017 20.0002L7.05664 10.5957Z" fill="url(#paint0_radial_77915_6838)"></path>
<path d="M8.6875 8.68631C11.0769 6.2971 14.1613 4.72559 17.4989 4.19702L17.6094 4.50127L20.002 19.7878V20L8.6875 8.68631Z" fill="url(#paint1_radial_77915_6838)"></path>
<path d="M27.2642 5.74524C28.0105 6.12562 28.7258 6.56403 29.4036 7.05641L29.375 7.30561L20.056 19.954L19.998 20.0003L27.2642 5.74524Z" fill="url(#paint2_radial_77915_6838)"></path>
<path d="M35.999 20.0001C35.999 21.679 35.7348 23.3475 35.2159 24.9442L34.8375 25.0052L20.1157 20.06L19.998 20.0001H35.999Z" fill="url(#paint3_radial_77915_6838)"></path>
<path d="M35.216 24.944C34.6972 26.5407 33.9303 28.046 32.9433 29.4043L32.5787 29.3425L20.0737 20.0787L19.998 20.0001L35.216 24.944Z" fill="url(#paint4_radial_77915_6838)"></path>
<path d="M24.9441 35.2169C22.5426 35.9972 19.9904 36.198 17.4964 35.803L17.3965 35.4963L19.9274 20.2723L19.9995 20L24.9441 35.2169Z" fill="url(#paint5_radial_77915_6838)"></path>
<path d="M17.4992 35.803C16.6713 35.6719 15.855 35.476 15.0578 35.2169L15.0137 34.8468L19.9111 20.167L20.0024 20L17.4992 35.803Z" fill="url(#paint6_radial_77915_6838)"></path>
<path d="M15.0563 35.2169C13.4594 34.6981 11.9541 33.9312 10.5957 32.9443V32.6547L19.8375 20.1632L20.0009 20.0001L15.0563 35.2169Z" fill="url(#paint7_radial_77915_6838)"></path>
<path d="M5.744 27.2641C4.59762 25.0144 4 22.5253 4 20.0003L4.20468 19.9248H19.4834L20.001 20.0003L5.744 27.2641Z" fill="url(#paint8_radial_77915_6838)"></path>
<path d="M17.4961 4.19714C19.9905 3.80193 22.543 4.00275 24.945 4.78317L20.0002 20L17.4961 4.19714Z" fill="url(#paint9_radial_77915_6838)"></path>
<path d="M29.4033 7.05579C32.1368 9.04172 34.1714 11.842 35.2157 15.0552L19.998 20L29.4033 7.05579Z" fill="url(#paint10_radial_77915_6838)"></path>
<path d="M10.5966 32.9442C9.23817 31.9573 8.04358 30.7628 7.05664 29.4045L20.0018 20L10.5966 32.9442Z" fill="url(#paint11_radial_77915_6838)"></path>
<path d="M4 20.0001C4 18.3211 4.26428 16.6526 4.78315 15.0558L20.001 20.0001H4Z" fill="url(#paint12_radial_77915_6838)"></path>
<path d="M32.9436 29.4038C31.9567 30.7622 30.7622 31.9568 29.4038 32.9437L19.998 20L32.9436 29.4038Z" fill="url(#paint13_radial_77915_6838)"></path>
</g>
<defs>
<radialGradient id="paint0_radial_77915_6838" cx="0" cy="0" r="1" gradientTransform="matrix(-12.1845 -10.5199 10.5206 -12.1837 20.0017 20.0002)" gradientUnits="userSpaceOnUse">
<stop stop-color="#A273FF"></stop>
<stop offset="1" stop-color="#4331E9"></stop>
</radialGradient>
<radialGradient id="paint1_radial_77915_6838" cx="0" cy="0" r="1" gradientTransform="matrix(-2.56167 -16.1826 16.1836 -2.5615 20.002 20)" gradientUnits="userSpaceOnUse">
<stop stop-color="#F7A7F9"></stop>
<stop offset="1" stop-color="#00DDFB"></stop>
</radialGradient>
<radialGradient id="paint2_radial_77915_6838" cx="0" cy="0" r="1" gradientUnits="userSpaceOnUse" gradientTransform="translate(19.998 20.0005) rotate(180) scale(16.3963 16.3952)">
<stop stop-color="#FFF3D0"></stop>
<stop offset="1" stop-color="#FFC044"></stop>
</radialGradient>
<radialGradient id="paint3_radial_77915_6838" cx="0" cy="0" r="1" gradientUnits="userSpaceOnUse" gradientTransform="translate(19.998 20.0001) rotate(-90) scale(16.3673 16.3686)">
<stop stop-color="#A273FF"></stop>
<stop offset="0.5" stop-color="#9FAEFF"></stop>
<stop offset="1" stop-color="#AAF2E1"></stop>
</radialGradient>
<radialGradient id="paint4_radial_77915_6838" cx="0" cy="0" r="1" gradientTransform="matrix(13.2062 9.59085 -9.59147 13.2054 19.998 20.0001)" gradientUnits="userSpaceOnUse">
<stop stop-color="#0075FF"></stop>
<stop offset="1" stop-color="#00DDFB"></stop>
</radialGradient>
<radialGradient id="paint5_radial_77915_6838" cx="0" cy="0" r="1" gradientUnits="userSpaceOnUse" gradientTransform="translate(19.9995 20) rotate(90) scale(16.3808 16.3818)">
<stop stop-color="#FFCD6B"></stop>
<stop offset="1" stop-color="#EB5EDF"></stop>
</radialGradient>
<radialGradient id="paint6_radial_77915_6838" cx="0" cy="0" r="1" gradientUnits="userSpaceOnUse" gradientTransform="translate(20.0024 20) rotate(90) scale(16.4147 16.4158)">
<stop stop-color="#D5FAFF"></stop>
<stop offset="1" stop-color="#00DDFB"></stop>
</radialGradient>
<radialGradient id="paint7_radial_77915_6838" cx="0" cy="0" r="1" gradientTransform="matrix(-7.18167 16 -16.001 -7.1812 20.0009 20.0001)" gradientUnits="userSpaceOnUse">
<stop stop-color="#FFD2B9"></stop>
<stop offset="0.289583" stop-color="#C99BED"></stop>
<stop offset="1" stop-color="#0075FF"></stop>
</radialGradient>
<radialGradient id="paint8_radial_77915_6838" cx="0" cy="0" r="1" gradientUnits="userSpaceOnUse" gradientTransform="translate(20.001 20.0003) rotate(180) scale(21.3135 21.3122)">
<stop stop-color="#6D28FF"></stop>
<stop offset="1" stop-color="#F7A7F9"></stop>
</radialGradient>
<radialGradient id="paint9_radial_77915_6838" cx="0" cy="0" r="1" gradientUnits="userSpaceOnUse" gradientTransform="translate(20.0002 20) rotate(-90) scale(16.3676 16.3686)">
<stop stop-color="#A273FF"></stop>
<stop offset="0.5" stop-color="#9FAEFF"></stop>
<stop offset="1" stop-color="#AAF2E1"></stop>
</radialGradient>
<radialGradient id="paint10_radial_77915_6838" cx="0" cy="0" r="1" gradientUnits="userSpaceOnUse" gradientTransform="translate(19.998 20) rotate(90) scale(16.3808 16.3818)">
<stop stop-color="#FFCD6B"></stop>
<stop offset="1" stop-color="#EB5EDF"></stop>
</radialGradient>
<radialGradient id="paint11_radial_77915_6838" cx="0" cy="0" r="1" gradientTransform="matrix(-12.1845 -10.5199 10.5206 -12.1837 20.0018 20)" gradientUnits="userSpaceOnUse">
<stop stop-color="#A273FF"></stop>
<stop offset="1" stop-color="#4331E9"></stop>
</radialGradient>
<radialGradient id="paint12_radial_77915_6838" cx="0" cy="0" r="1" gradientUnits="userSpaceOnUse" gradientTransform="translate(20.001 20.0001) rotate(180) scale(16.3963 16.3952)">
<stop stop-color="#FFF3D0"></stop>
<stop offset="1" stop-color="#FFC044"></stop>
</radialGradient>
<radialGradient id="paint13_radial_77915_6838" cx="0" cy="0" r="1" gradientTransform="matrix(-12.1845 -10.5199 10.5206 -12.1837 19.998 20)" gradientUnits="userSpaceOnUse">
<stop stop-color="#A273FF"></stop>
<stop offset="1" stop-color="#4331E9"></stop>
</radialGradient>
<clipPath id="clip0_77915_6838">
<rect width="40" height="40" fill="white"></rect>
</clipPath>
</defs>
</svg>