<svg width="40" height="40" viewBox="0 0 40 40" fill="none" xmlns="http://www.w3.org/2000/svg">
<circle cx="20" cy="20" r="20" fill="black"></circle>
<path d="M24.0867 24.8518C16.5268 27.1197 10.273 30.4277 6.35837 34.3036L6.18555 34.4756C7.22648 35.4596 8.36793 36.3396 9.60177 37.0876L9.86706 36.7636C10.9362 35.4596 12.0816 34.1996 13.2753 33.0116C16.4785 29.8237 20.1439 27.0637 24.0908 24.8478L24.0867 24.8518Z" fill="url(#paint0_radial_67193_18511)"></path>
<path d="M24.0867 24.8518C16.5268 27.1197 10.273 30.4277 6.35837 34.3036L6.18555 34.4756C7.22648 35.4596 8.36793 36.3396 9.60177 37.0876L9.86706 36.7636C10.9362 35.4596 12.0816 34.1996 13.2753 33.0116C16.4785 29.8237 20.1439 27.0637 24.0908 24.8478L24.0867 24.8518Z" fill="#F5F5F5"></path>
<path d="M0 21.4907C0.301433 25.5347 1.80458 29.2426 4.16381 32.2586L4.27233 32.1506C6.69584 29.7626 9.85087 27.5906 13.6569 25.6987C16.9929 24.0387 20.8231 22.6147 24.9507 21.4907H0Z" fill="url(#paint1_radial_67193_18511)"></path>
<path d="M0 21.4907C0.301433 25.5347 1.80458 29.2426 4.16381 32.2586L4.27233 32.1506C6.69584 29.7626 9.85087 27.5906 13.6569 25.6987C16.9929 24.0387 20.8231 22.6147 24.9507 21.4907H0Z" fill="#F5F5F5"></path>
<path d="M15.3807 4.87192C22.1449 11.6038 30.6574 16.0557 39.9938 17.7437C38.8684 7.76385 30.364 0 20.0309 0C17.3018 0 14.7015 0.543991 12.3262 1.52397C13.2908 2.68395 14.3197 3.81194 15.3807 4.87192Z" fill="url(#paint2_radial_67193_18511)"></path>
<path d="M15.3807 4.87192C22.1449 11.6038 30.6574 16.0557 39.9938 17.7437C38.8684 7.76385 30.364 0 20.0309 0C17.3018 0 14.7015 0.543991 12.3262 1.52397C13.2908 2.68395 14.3197 3.81194 15.3807 4.87192Z" fill="#F5F5F5"></path>
<path d="M6.35837 5.69619C10.273 9.57616 16.5268 12.8801 24.0867 15.1521C20.1399 12.9321 16.4745 10.1762 13.2712 6.9882C12.0816 5.80419 10.9362 4.54421 9.86305 3.23623L9.59782 2.91223C8.36391 3.66022 7.22246 4.54021 6.18555 5.52419L6.35837 5.69619Z" fill="url(#paint3_radial_67193_18511)"></path>
<path d="M6.35837 5.69619C10.273 9.57616 16.5268 12.8801 24.0867 15.1521C20.1399 12.9321 16.4745 10.1762 13.2712 6.9882C12.0816 5.80419 10.9362 4.54421 9.86305 3.23623L9.59782 2.91223C8.36391 3.66022 7.22246 4.54021 6.18555 5.52419L6.35837 5.69619Z" fill="#F5F5F5"></path>
<path d="M15.3807 35.1281C14.3156 36.1881 13.2867 37.3161 12.3262 38.4761C14.6974 39.456 17.3018 40 20.0309 40C30.364 40 38.8684 32.2362 39.9978 22.2523C30.6614 23.9403 22.1489 28.3922 15.3847 35.1241L15.3807 35.1281Z" fill="url(#paint4_radial_67193_18511)"></path>
<path d="M15.3807 35.1281C14.3156 36.1881 13.2867 37.3161 12.3262 38.4761C14.6974 39.456 17.3018 40 20.0309 40C30.364 40 38.8684 32.2362 39.9978 22.2523C30.6614 23.9403 22.1489 28.3922 15.3847 35.1241L15.3807 35.1281Z" fill="#F5F5F5"></path>
<path d="M13.6569 14.2998C9.85087 12.4078 6.69584 10.2358 4.27233 7.84787L4.16381 7.73987C1.80458 10.7558 0.301433 14.4638 0 18.5077H24.9467C20.819 17.3837 16.9929 15.9597 13.6529 14.2958L13.6569 14.2998Z" fill="url(#paint5_radial_67193_18511)"></path>
<path d="M13.6569 14.2998C9.85087 12.4078 6.69584 10.2358 4.27233 7.84787L4.16381 7.73987C1.80458 10.7558 0.301433 14.4638 0 18.5077H24.9467C20.819 17.3837 16.9929 15.9597 13.6529 14.2958L13.6569 14.2998Z" fill="#F5F5F5"></path>
<defs>
<radialGradient id="paint0_radial_67193_18511" cx="0" cy="0" r="1" gradientUnits="userSpaceOnUse" gradientTransform="translate(20.0053 19.9998) rotate(90) scale(19.9997 20.0012)">
<stop stop-color="#1C294B"></stop>
<stop offset="0.317213" stop-color="#FF4433"></stop>
<stop offset="0.597213" stop-color="#FE9A4C"></stop>
<stop offset="1" stop-color="#E0E0E0"></stop>
</radialGradient>
<radialGradient id="paint1_radial_67193_18511" cx="0" cy="0" r="1" gradientUnits="userSpaceOnUse" gradientTransform="translate(20.0012 19.9987) rotate(90) scale(19.9997 20.0011)">
<stop stop-color="#1C294B"></stop>
<stop offset="0.317213" stop-color="#FF4433"></stop>
<stop offset="0.597213" stop-color="#FE9A4C"></stop>
<stop offset="1" stop-color="#E0E0E0"></stop>
</radialGradient>
<radialGradient id="paint2_radial_67193_18511" cx="0" cy="0" r="1" gradientUnits="userSpaceOnUse" gradientTransform="translate(19.9967 19.9997) rotate(90) scale(19.9997 20.0011)">
<stop stop-color="#1C294B"></stop>
<stop offset="0.317213" stop-color="#FF4433"></stop>
<stop offset="0.597213" stop-color="#FE9A4C"></stop>
<stop offset="1" stop-color="#E0E0E0"></stop>
</radialGradient>
<radialGradient id="paint3_radial_67193_18511" cx="0" cy="0" r="1" gradientUnits="userSpaceOnUse" gradientTransform="translate(20.0053 19.9999) rotate(90) scale(19.9997 20.0012)">
<stop stop-color="#1C294B"></stop>
<stop offset="0.317213" stop-color="#FF4433"></stop>
<stop offset="0.597213" stop-color="#FE9A4C"></stop>
<stop offset="1" stop-color="#E0E0E0"></stop>
</radialGradient>
<radialGradient id="paint4_radial_67193_18511" cx="0" cy="0" r="1" gradientUnits="userSpaceOnUse" gradientTransform="translate(19.9967 20.0004) rotate(90) scale(19.9997 20.0011)">
<stop stop-color="#1C294B"></stop>
<stop offset="0.317213" stop-color="#FF4433"></stop>
<stop offset="0.597213" stop-color="#FE9A4C"></stop>
<stop offset="1" stop-color="#E0E0E0"></stop>
</radialGradient>
<radialGradient id="paint5_radial_67193_18511" cx="0" cy="0" r="1" gradientUnits="userSpaceOnUse" gradientTransform="translate(20.0012 19.9997) rotate(90) scale(19.9997 20.0011)">
<stop stop-color="#1C294B"></stop>
<stop offset="0.317213" stop-color="#FF4433"></stop>
<stop offset="0.597213" stop-color="#FE9A4C"></stop>
<stop offset="1" stop-color="#E0E0E0"></stop>
</radialGradient>
</defs>
</svg>