<svg width="40" height="40" viewBox="0 0 40 40" fill="none" xmlns="http://www.w3.org/2000/svg">
<circle cx="20" cy="20" r="20" fill="black"></circle>
<path d="M21.5423 36.5629C31.1833 34.1828 33.1858 26.3602 29.4901 23.421C30.4574 16.3829 26.6175 15.659 25.61 15.4106C24.6026 15.1623 27.9881 4.5813 21.4171 4.02092C14.6584 3.44452 15.8474 14.9726 15.8474 14.9726C14.1175 15.291 13.2844 15.6274 12.5932 17.1003C8.15141 17.1003 6.02575 22.6679 10.4029 31.4313C13.0722 35.9809 15.4018 37.2819 21.5423 36.5629Z" fill="white" stroke="black" stroke-width="0.125162"></path>
<path d="M24.676 16.535C27.8668 17.0982 28.8681 18.4124 28.2431 24.1698C30.4349 24.9834 30.3723 28.8008 28.2431 31.6169C24.3897 34.7174 22.1891 35.3543 18.2301 35.5595C14.6577 35.3275 13.1436 33.9042 11.0333 29.6769C8.59174 24.7912 8.16527 18.1645 13.0985 18.2872C14.2139 16.2247 15.87 16.0944 16.8533 16.0969C17.4728 16.0985 17.0291 10.6416 17.459 8.90011C18.0499 6.50648 19.2683 5.33915 21.4843 5.33302C26.3648 5.3195 23.2224 16.2784 24.676 16.535Z" fill="black" stroke="black" stroke-width="0.125162"></path>
<path d="M24.803 18.3497C27.5781 17.7781 26.5071 22.5527 26.0546 28.2375C26.2424 28.6131 26.743 28.5505 26.743 27.7369C26.813 26.4344 26.9455 25.9935 27.3688 25.922C28.6872 26.0702 28.2102 27.3938 27.5566 29.5517C26.5553 31.4292 24.4212 32.5621 21.9243 33.3066C16.704 34.4235 15.1585 33.427 13.3507 30.553C11.4469 26.4936 10.4713 23.544 11.223 21.4162C11.974 19.2885 13.163 19.9768 13.7262 21.6665C14.2207 22.8824 14.4387 22.9542 14.5398 19.9768C14.9778 17.5362 17.1056 17.0981 17.7314 19.4762C17.6884 20.5445 17.7012 21.0635 18.232 20.9781C19.1708 20.5401 19.1047 16.8024 18.9204 12.2794C18.9468 8.6805 19.4663 7.59724 21.1733 7.02262C23.5514 6.64723 22.554 13.9765 22.2998 20.9781C22.2998 21.4162 22.9256 21.5415 22.9256 20.9781C23.3675 18.9424 23.8103 18.4662 24.803 18.3497Z" fill="white" stroke="black" stroke-width="0.125162"></path>
</svg>