<svg width="40" height="40" viewBox="0 0 40 40" fill="none" xmlns="http://www.w3.org/2000/svg">
<path fill-rule="evenodd" clip-rule="evenodd" d="M0 20C0 31.0458 8.95419 40 20 40C31.0458 40 40.0006 31.0458 40.0006 20C40.0006 8.95419 31.0458 0 20 0C8.95419 0 0 8.95419 0 20Z" fill="#0C0C4F"></path>
<path fill-rule="evenodd" clip-rule="evenodd" d="M11.1781 15.288L11.6718 13.7627C11.7721 13.4525 12.017 13.2111 12.3283 13.1159L13.8611 12.6445C14.0733 12.5797 14.075 12.2804 13.8645 12.2122L12.3387 11.7185C12.029 11.6181 11.7876 11.3733 11.6919 11.0619L11.2211 9.52906C11.1563 9.31746 10.857 9.31516 10.7887 9.52626L10.295 11.0516C10.1947 11.3612 9.94985 11.6026 9.63849 11.6984L8.10573 12.1692C7.89357 12.2345 7.89128 12.5333 8.10229 12.6015L9.62816 13.0952C9.93781 13.1956 10.1792 13.441 10.2749 13.7524L10.7457 15.2845C10.8105 15.4967 11.1098 15.499 11.1781 15.288Z" fill="#FAFAFA"></path>
<path fill-rule="evenodd" clip-rule="evenodd" d="M35.4057 14.4022C34.7738 13.6956 33.7876 13.2977 32.8289 13.1346C31.8624 12.9779 30.8492 12.9924 29.8951 13.1619C27.9647 13.4885 26.211 14.2878 24.6815 15.2738C23.8871 15.7578 23.2098 16.3177 22.508 16.888C22.1699 17.1764 21.8616 17.4836 21.5405 17.7863L20.6632 18.6592C19.71 19.6556 18.7704 20.5631 17.8613 21.3154C16.9486 22.0642 16.0952 22.6328 15.2543 23.03C14.4138 23.4292 13.5145 23.6639 12.3424 23.7015C11.1806 23.7425 9.80591 23.5328 8.33556 23.1867C6.8573 22.8421 5.30499 22.3509 3.57031 21.9283C4.17558 23.6075 5.08705 25.0914 6.25726 26.4478C7.4412 27.7807 8.91958 28.9956 10.8188 29.7946C12.6905 30.6113 15.0427 30.9044 17.2421 30.4621C19.4473 30.0377 21.3825 29.0172 22.9467 27.8371C24.5149 26.6449 25.7837 25.2868 26.8533 23.875C27.1486 23.4849 27.3048 23.2666 27.5185 22.9617L28.109 22.0869C28.5195 21.5457 28.8931 20.9296 29.2993 20.3935C30.0958 19.2706 30.881 18.1491 31.7935 17.1158C32.2528 16.5917 32.7369 16.0904 33.3086 15.6087C33.5938 15.3735 33.9019 15.1434 34.2431 14.9361C34.5895 14.7125 34.9553 14.5375 35.4057 14.4022Z" fill="url(#paint0_linear_67189_18445)"></path>
<path fill-rule="evenodd" clip-rule="evenodd" d="M35.4057 14.4015C34.7268 12.6885 33.4649 11.2466 31.771 10.1826C30.0874 9.13035 27.749 8.59332 25.4319 9.05111C24.2872 9.27252 23.1782 9.69872 22.2049 10.2663C21.2361 10.8317 20.3679 11.5122 19.6164 12.2424C19.2412 12.6086 18.9006 12.9907 18.5623 13.375L17.6853 14.493L16.3309 16.2927C14.6042 18.6083 12.7448 21.322 9.69341 22.1261C6.69783 22.9155 5.39859 22.2164 3.57031 21.9276C3.9046 22.7907 4.3187 23.6288 4.88008 24.3662C5.431 25.1185 6.08172 25.8251 6.89075 26.4307C7.2996 26.7216 7.73125 27.0087 8.21066 27.2522C8.68788 27.4875 9.20254 27.6945 9.75186 27.8504C10.8446 28.1499 12.0747 28.2548 13.2658 28.0937C14.4575 27.9347 15.5965 27.5571 16.5921 27.0555C17.595 26.5587 18.4687 25.9537 19.2488 25.3151C20.7996 24.0273 22.0059 22.6043 23.0248 21.1659C23.5373 20.4468 24.0025 19.714 24.4328 18.9811L24.9392 18.1086C25.094 17.8535 25.2506 17.5969 25.4097 17.3579C26.0513 16.3976 26.6789 15.6276 27.4412 15.0497C28.193 14.4568 29.2397 14.0188 30.6385 13.917C32.0315 13.8141 33.6396 14.0043 35.4057 14.4015Z" fill="#FAFAFA"></path>
<path fill-rule="evenodd" clip-rule="evenodd" d="M27.8672 28.634C27.8672 29.8921 28.8876 30.9125 30.1457 30.9125C31.4038 30.9125 32.423 29.8921 32.423 28.634C32.423 27.3759 31.4038 26.3555 30.1457 26.3555C28.8876 26.3555 27.8672 27.3759 27.8672 28.634Z" fill="#EC796B"></path>
<defs>
<linearGradient id="paint0_linear_67189_18445" x1="35.2354" y1="13.8011" x2="-16.7913" y2="40.8696" gradientUnits="userSpaceOnUse">
<stop stop-color="#EC796B"></stop>
<stop offset="1" stop-color="#D672EF"></stop>
</linearGradient>
</defs>
</svg>