<svg width="40" height="40" viewBox="0 0 40 40" fill="none" xmlns="http://www.w3.org/2000/svg">
<circle cx="20" cy="20" r="20" fill="white"></circle>
<path d="M17.3281 30.1072C18.3736 33.9675 22.1094 36.9138 23.9956 36.7968C24.0614 36.7968 31.153 35.4662 35.035 28.9667C38.0544 23.9075 37.0309 19.0237 32.9222 18.9141C31.46 19.0237 15.3761 22.7523 17.3281 30.1072Z" fill="url(#paint0_linear_67211_18522)"></path>
<path d="M32.5382 5.30575C29.9522 3.10035 26.7949 1.67185 23.4312 1.1854C20.0675 0.698952 16.6348 1.17441 13.53 2.55681C13.1362 2.72086 12.7529 2.90887 12.3822 3.11975C12.1336 3.25135 11.8777 3.39026 11.6511 3.53648H11.7169C10.9795 4.04127 10.3299 4.66367 9.79412 5.37886C4.63996 12.2 21.9667 17.1862 31.2442 17.2008C35.5138 20.2714 36.7128 8.55915 32.5382 5.30575Z" fill="url(#paint1_linear_67211_18522)"></path>
<path d="M14.573 5.44419C12.1897 9.0339 4.25005 11.5635 2.94141 11.1687L3.10225 10.8397C3.5463 9.95644 4.0571 9.10834 4.63022 8.3028C5.79385 6.73851 7.18633 5.35833 8.76086 4.20862C9.24712 3.8413 9.75227 3.49965 10.2742 3.18508C11.0748 2.72733 11.9768 2.47608 12.8988 2.45398C16.4373 2.51978 14.5876 5.37839 14.573 5.37839" fill="url(#paint2_linear_67211_18522)"></path>
<path d="M12.6243 30.8153C12.7998 31.9412 12.6243 36.3936 12.3903 36.7738C12.193 36.7738 11.7835 36.8104 10.5846 36.1377C9.95639 35.7807 9.35087 35.3851 8.77147 34.9534C7.993 34.3766 7.25978 33.7411 6.57821 33.0525C5.88775 32.3727 5.25216 31.6393 4.67738 30.8592C3.50655 29.2709 2.59592 27.5063 1.97967 25.6318C1.65672 24.6785 1.41221 23.7005 1.24858 22.7074C0.917141 20.6615 0.917141 18.5755 1.24858 16.5296C1.4139 15.5368 1.65838 14.5589 1.97967 13.6052C2.03815 13.4151 2.10395 13.225 2.17706 13.0349C3.54419 14.8627 5.10141 16.515 6.48316 18.3573C7.86492 20.1997 9.5318 22.9779 9.89003 23.592C12.0833 27.3864 12.4781 29.7333 12.6462 30.8592" fill="url(#paint3_linear_67211_18522)"></path>
<path d="M39.0044 19.5833C39.0069 21.9779 38.558 24.3516 37.6811 26.5799C35.444 28.9852 20.347 23.056 20.2008 22.9902C18.1319 22.0836 11.8518 19.3347 11.2816 14.992C10.492 8.75565 23.0886 4.4129 28.6376 4.24475C29.3029 4.24475 31.328 4.24475 32.505 5.23905C34.5504 7.02673 36.1889 9.23206 37.31 11.7064C38.4311 14.1808 39.0089 16.8667 39.0044 19.5833Z" fill="url(#paint4_linear_67211_18522)"></path>
<path d="M28.761 36.4727C27.1161 37.2477 25.303 36.6847 25.7782 35.0763C26.6774 31.9984 34.5512 28.8327 36.3132 28.6646C36.5252 28.6646 36.6202 28.7888 36.5252 28.957C34.7075 32.1519 32.0133 34.7599 28.761 36.4727Z" fill="url(#paint5_linear_67211_18522)"></path>
<defs>
<linearGradient id="paint0_linear_67211_18522" x1="26.9711" y1="36.7968" x2="26.9711" y2="18.9141" gradientUnits="userSpaceOnUse">
<stop stop-color="#4366C2"></stop>
<stop offset="0.15" stop-color="#3458B8"></stop>
<stop offset="0.4" stop-color="#2348AC"></stop>
<stop offset="0.67" stop-color="#193FA5"></stop>
<stop offset="1" stop-color="#163CA3"></stop>
</linearGradient>
<linearGradient id="paint1_linear_67211_18522" x1="21.9887" y1="17.7052" x2="21.9887" y2="0.992248" gradientUnits="userSpaceOnUse">
<stop stop-color="#4366C2"></stop>
<stop offset="0.15" stop-color="#3458B8"></stop>
<stop offset="0.4" stop-color="#2348AC"></stop>
<stop offset="0.67" stop-color="#193FA5"></stop>
<stop offset="1" stop-color="#163CA3"></stop>
</linearGradient>
<linearGradient id="paint2_linear_67211_18522" x1="2.9341" y1="6.85521" x2="15.0701" y2="6.85521" gradientUnits="userSpaceOnUse">
<stop stop-color="#58C66B"></stop>
<stop offset="1" stop-color="#5491F6"></stop>
</linearGradient>
<linearGradient id="paint3_linear_67211_18522" x1="0.985387" y1="24.8861" x2="12.6974" y2="24.8861" gradientUnits="userSpaceOnUse">
<stop stop-color="#58C66B"></stop>
<stop offset="1" stop-color="#5491F6"></stop>
</linearGradient>
<linearGradient id="paint4_linear_67211_18522" x1="11.245" y1="15.7011" x2="39.0044" y2="15.7011" gradientUnits="userSpaceOnUse">
<stop stop-color="#58C66B"></stop>
<stop offset="1" stop-color="#5491F6"></stop>
</linearGradient>
<linearGradient id="paint5_linear_67211_18522" x1="25.7124" y1="32.7368" x2="36.5764" y2="32.7368" gradientUnits="userSpaceOnUse">
<stop stop-color="#58C66B"></stop>
<stop offset="1" stop-color="#5491F6"></stop>
</linearGradient>
</defs>
</svg>