<svg width="40" height="40" viewBox="0 0 40 40" fill="none" xmlns="http://www.w3.org/2000/svg">
<circle cx="20" cy="20" r="20" fill="#EDF0F4"></circle>
<path d="M14.9397 8.02872C14.5733 7.97671 14.5558 7.95937 14.7303 7.94203C15.0619 7.89002 15.8298 7.95937 16.3707 8.08073C17.6272 8.37547 18.7616 9.13831 19.9657 10.4733L20.2798 10.8374L20.7336 10.768C22.6707 10.4559 24.6601 10.6987 26.318 11.4615C26.7717 11.6696 27.4872 12.0856 27.5745 12.1897C27.6094 12.2243 27.6617 12.4497 27.6966 12.6751C27.8188 13.49 27.7664 14.0968 27.5047 14.5649C27.3651 14.8249 27.3651 14.8943 27.4523 15.1197C27.5221 15.2931 27.7315 15.4144 27.9235 15.4144C28.3423 15.4144 28.7786 14.7556 28.988 13.8367L29.0753 13.4726L29.2323 13.646C30.1224 14.6342 30.8204 16.0039 30.9251 16.9748L30.96 17.2348L30.803 17.0094C30.5412 16.6107 30.2969 16.3506 29.9653 16.1252C29.372 15.7265 28.7437 15.6051 27.0858 15.5184C25.585 15.4317 24.7299 15.3104 23.8922 15.033C22.4612 14.5649 21.7283 13.9581 20.0355 11.7216C19.2851 10.7333 18.8139 10.1959 18.3427 9.74511C17.3131 8.75689 16.2835 8.23677 14.9397 8.02872Z" fill="#FF007A"></path>
<path d="M27.9409 10.2306C27.9758 9.57175 28.0631 9.13832 28.255 8.73956C28.3249 8.58352 28.3947 8.44482 28.4121 8.44482C28.4296 8.44482 28.3947 8.56619 28.3423 8.70488C28.2027 9.0863 28.1852 9.62376 28.2725 10.2306C28.3947 11.0107 28.447 11.1148 29.2847 11.9643C29.6686 12.3631 30.1223 12.8658 30.2969 13.0739L30.5935 13.4553L30.2969 13.1779C29.9304 12.8312 29.0927 12.1723 28.9007 12.0857C28.7786 12.0163 28.7611 12.0163 28.6739 12.103C28.6041 12.1723 28.5866 12.2764 28.5866 12.7792C28.5692 13.5593 28.4645 14.0448 28.2027 14.5476C28.0631 14.8076 28.0456 14.7556 28.1678 14.4609C28.255 14.2355 28.2725 14.1315 28.2725 13.386C28.2725 11.8776 28.098 11.5135 27.0335 10.9067C26.7717 10.7507 26.318 10.5253 26.0562 10.4039C25.777 10.2826 25.5675 10.1786 25.585 10.1786C25.6199 10.1439 26.6495 10.4386 27.0509 10.612C27.6617 10.8547 27.7664 10.872 27.8362 10.8547C27.8886 10.8027 27.9235 10.664 27.9409 10.2306Z" fill="#FF007A"></path>
<path d="M15.655 12.8139C14.922 11.8083 14.4508 10.248 14.5555 9.08637L14.5904 8.72229L14.765 8.75696C15.0791 8.80898 15.6201 9.01702 15.8818 9.17306C16.5799 9.58916 16.894 10.1613 17.1907 11.5829C17.2779 11.999 17.4001 12.4845 17.4525 12.6405C17.5397 12.9006 17.8713 13.5074 18.1505 13.8888C18.3425 14.1662 18.2203 14.3049 17.784 14.2702C17.1209 14.2009 16.2309 13.5941 15.655 12.8139Z" fill="#FF007A"></path>
<path d="M27.05 20.3556C23.5946 18.9686 22.373 17.7723 22.373 15.7439C22.373 15.4491 22.3905 15.2064 22.3905 15.2064C22.4079 15.2064 22.5301 15.3104 22.6872 15.4318C23.3852 15.9866 24.1705 16.2293 26.3519 16.5414C27.6259 16.7321 28.3588 16.8708 29.022 17.0962C31.1336 17.7897 32.4424 19.2113 32.7566 21.1358C32.8438 21.6906 32.7915 22.7481 32.6519 23.3029C32.5297 23.7364 32.1807 24.5339 32.0934 24.5512C32.076 24.5512 32.0411 24.4645 32.0411 24.3258C32.0062 23.5977 31.6397 22.9042 31.0289 22.3667C30.2959 21.7426 29.3536 21.2745 27.05 20.3556Z" fill="#FF007A"></path>
<path d="M24.6059 20.9277C24.571 20.6676 24.4837 20.3382 24.4314 20.1995L24.3441 19.9395L24.5012 20.1302C24.7281 20.3902 24.9026 20.7023 25.0596 21.1357C25.1818 21.4651 25.1818 21.5692 25.1818 22.1066C25.1818 22.6267 25.1644 22.7481 25.0596 23.0428C24.8851 23.5109 24.6757 23.8403 24.3267 24.2044C23.6984 24.8459 22.8782 25.1927 21.709 25.3487C21.4996 25.366 20.9062 25.418 20.3827 25.4527C19.0738 25.5221 18.2013 25.6608 17.416 25.9382C17.3113 25.9728 17.2066 26.0075 17.1891 25.9902C17.1542 25.9555 17.6952 25.6434 18.1315 25.4354C18.7423 25.1406 19.3705 24.9846 20.7492 24.7419C21.4298 24.6379 22.1278 24.4992 22.3023 24.4298C24.03 23.8924 24.8851 22.5574 24.6059 20.9277Z" fill="#FF007A"></path>
<path d="M26.1943 23.7191C25.7406 22.7309 25.6359 21.7946 25.8802 20.9104C25.9151 20.8237 25.95 20.7371 25.9849 20.7371C26.0198 20.7371 26.1245 20.7891 26.2292 20.8584C26.4387 20.9971 26.8749 21.2398 27.9918 21.8466C29.4054 22.6095 30.2081 23.199 30.7666 23.8751C31.2552 24.4646 31.5519 25.1407 31.6915 25.9729C31.7788 26.441 31.7264 27.568 31.6042 28.0361C31.2203 29.5097 30.3478 30.6887 29.0738 31.3648C28.8818 31.4689 28.7248 31.5382 28.7073 31.5382C28.6899 31.5382 28.7597 31.3648 28.8644 31.1568C29.2832 30.2726 29.3356 29.4231 29.0215 28.4695C28.8295 27.88 28.4281 27.1692 27.6254 25.9729C26.6655 24.5859 26.4387 24.2219 26.1943 23.7191Z" fill="#FF007A"></path>
<path d="M13.1946 29.0242C14.486 27.9493 16.0741 27.1865 17.54 26.9437C18.1682 26.8397 19.2153 26.8744 19.7912 27.0304C20.7161 27.2731 21.5538 27.7933 21.9901 28.4347C22.4089 29.0589 22.6009 29.5963 22.7928 30.7926C22.8626 31.2607 22.9499 31.7462 22.9673 31.8502C23.1069 32.4743 23.3862 32.9598 23.7352 33.2198C24.2762 33.6186 25.2185 33.6359 26.1435 33.2892C26.3005 33.2372 26.4401 33.1852 26.4401 33.2025C26.475 33.2372 26.0039 33.5493 25.6897 33.7053C25.2534 33.9307 24.9044 34 24.4332 34C23.5956 34 22.8801 33.5666 22.3042 32.6997C22.182 32.5264 21.9377 32.0236 21.7283 31.5555C21.1175 30.1511 20.8034 29.735 20.0879 29.2669C19.4596 28.8682 18.6569 28.7815 18.0461 29.0762C17.2433 29.4576 17.0339 30.4805 17.5923 31.1047C17.8192 31.3648 18.238 31.5728 18.5871 31.6248C19.2328 31.7115 19.7912 31.2087 19.7912 30.5672C19.7912 30.1511 19.6341 29.9084 19.2153 29.7177C18.6569 29.475 18.0461 29.7524 18.0635 30.2898C18.0635 30.5152 18.1682 30.6539 18.3951 30.7579C18.5347 30.8273 18.5347 30.8273 18.43 30.81C17.9239 30.7059 17.8017 30.0818 18.2031 29.683C18.6918 29.1976 19.7214 29.4056 20.0704 30.0818C20.21 30.3592 20.2275 30.914 20.1053 31.2607C19.8086 32.0236 18.971 32.4223 18.1159 32.1969C17.54 32.0409 17.2957 31.8849 16.5976 31.174C15.376 29.9258 14.9048 29.683 13.1597 29.423L12.8281 29.371L13.1946 29.0242Z" fill="#FF007A"></path>
<path fill-rule="evenodd" clip-rule="evenodd" d="M7.99317 5.54555C12.0593 10.452 14.3454 13.6634 14.6596 14.0795C14.9213 14.4262 14.8166 14.7556 14.3803 14.9984C14.136 15.1371 13.6299 15.2758 13.3856 15.2758C13.1064 15.2758 12.7748 15.1371 12.548 14.9117C12.3909 14.7556 11.7103 13.7674 10.1746 11.3922C9.00535 9.57178 8.01062 8.06344 7.99317 8.0461C7.92337 8.01143 7.92337 8.01143 10.0524 11.791C11.3962 14.1662 11.8325 15.0157 11.8325 15.1197C11.8325 15.3451 11.7627 15.4665 11.4834 15.7785C11.0122 16.2987 10.8028 16.8881 10.6458 18.1191C10.4713 19.4887 10.0001 20.4596 8.65632 22.1067C7.87101 23.0775 7.74886 23.2509 7.55689 23.6497C7.31257 24.1351 7.24277 24.4125 7.20787 25.0367C7.17296 25.6955 7.24277 26.1116 7.43473 26.7357C7.60925 27.2905 7.80121 27.6546 8.27239 28.3654C8.67377 28.9896 8.91809 29.4577 8.91809 29.631C8.91809 29.7697 8.95299 29.7697 9.58124 29.631C11.0821 29.2843 12.3211 28.6948 13.0017 27.9667C13.4205 27.5159 13.5252 27.2732 13.5252 26.649C13.5252 26.2503 13.5078 26.1636 13.4031 25.9209C13.2286 25.5394 12.897 25.2274 12.1815 24.7419C11.2391 24.1004 10.8377 23.5803 10.733 22.8868C10.6458 22.2974 10.7505 21.8986 11.274 20.8064C11.815 19.6794 11.9546 19.2113 12.0419 18.0671C12.0942 17.3389 12.1815 17.0442 12.3909 16.8188C12.6178 16.5761 12.8097 16.4894 13.3507 16.42C14.2407 16.2987 14.8166 16.0733 15.2704 15.6398C15.6717 15.2758 15.8463 14.9117 15.8637 14.3742L15.8812 13.9755L15.6543 13.7327C14.8341 12.7965 7.45218 4.80005 7.39983 4.80005C7.38238 4.80005 7.6616 5.12946 7.99317 5.54555ZM9.37182 25.7822C9.56379 25.4528 9.45908 25.0367 9.14496 24.8286C8.84828 24.6379 8.39455 24.7246 8.39455 24.9846C8.39455 25.054 8.42945 25.1233 8.53416 25.158C8.69122 25.2447 8.70867 25.3314 8.58651 25.5221C8.46435 25.7128 8.46435 25.8862 8.62142 26.0076C8.86573 26.1983 9.19731 26.0942 9.37182 25.7822Z" fill="#FF007A"></path>
<path fill-rule="evenodd" clip-rule="evenodd" d="M16.4389 16.6627C16.0201 16.7841 15.6187 17.2349 15.4965 17.6856C15.4267 17.963 15.4616 18.4658 15.5838 18.6219C15.7757 18.8646 15.9502 18.9339 16.4389 18.9339C17.3987 18.9339 18.2189 18.5178 18.3062 18.015C18.3934 17.599 18.027 17.0268 17.5209 16.7668C17.2591 16.6281 16.7181 16.5761 16.4389 16.6627ZM17.5558 17.5296C17.6954 17.3216 17.643 17.0962 17.3813 16.9401C16.9101 16.6454 16.1946 16.8881 16.1946 17.3389C16.1946 17.5643 16.561 17.807 16.9101 17.807C17.1369 17.807 17.4511 17.6683 17.5558 17.5296Z" fill="#FF007A"></path>
</svg>