<svg width="40" height="40" viewBox="0 0 40 40" fill="none" xmlns="http://www.w3.org/2000/svg">
<g clip-path="url(#clip0_76423_8041)">
<path fill-rule="evenodd" clip-rule="evenodd" d="M20 38C29.9411 38 38 29.9411 38 20C38 10.0589 29.9411 2 20 2C10.0589 2 2 10.0589 2 20C2 29.9411 10.0589 38 20 38ZM20 40C31.0457 40 40 31.0457 40 20C40 8.95432 31.0457 0 20 0C8.95432 0 0 8.95432 0 20C0 31.0457 8.95432 40 20 40Z" fill="#EAAC08"></path>
<path d="M19.9993 36.72C29.2335 36.72 36.7193 29.2342 36.7193 20C36.7193 10.7658 29.2335 3.28003 19.9993 3.28003C10.7651 3.28003 3.2793 10.7658 3.2793 20C3.2793 29.2342 10.7651 36.72 19.9993 36.72Z" fill="url(#paint0_linear_76423_8041)"></path>
<path d="M3.69486 23.7161L11.0492 19.5351L3.39062 18.0696C3.8049 14.4657 5.36509 11.2104 7.6976 8.67725C9.54431 9.69429 11.391 10.7116 13.2377 11.7289C15.4961 12.9732 17.7546 14.2173 20.013 15.4608L29.6429 20.7631L30.0036 20.9623C30.3958 21.2624 30.6328 21.7728 30.6144 22.324C31.9465 22.7743 32.5309 24.5344 32.2149 26.0517C31.67 25.1075 30.7933 24.4552 29.793 24.2643C28.274 24.3079 26.7603 24.0432 25.3229 23.4865C23.2142 23.1836 21.5294 23.6039 20.0157 24.428C18.1557 25.4419 16.0943 27.3764 14.23 29.1259C13.6456 29.6744 13.0805 30.2046 12.5471 30.6827C11.5392 31.514 10.2132 32.1113 8.84159 32.4516C8.29383 31.9604 7.77866 31.4336 7.29972 30.8748L11.9153 26.8868C12.1312 26.6984 12.1733 26.3492 12.0048 26.1063C11.8389 25.8634 11.5257 25.817 11.3097 26.0053L6.63385 30.0461C6.0121 29.2202 5.46512 28.3348 5.00298 27.4L6.17366 26.5838C6.40533 26.4201 6.4764 26.079 6.33162 25.817C6.18682 25.5577 5.87881 25.4786 5.64715 25.6396L4.55068 26.4039C4.19302 25.542 3.90538 24.6437 3.69486 23.7161Z" fill="#CA8404"></path>
<path d="M35.4867 13.6875C35.9406 14.7999 36.2781 15.9719 36.4841 17.1888C36.2355 17.2333 35.987 17.2777 35.7385 17.3221L35.7379 17.3222C33.2607 17.7647 30.7841 18.2071 28.202 18.7301L19.0723 13.7553L30.0763 7.75987C30.3591 7.60583 30.6331 7.46018 30.9009 7.32227C32.5876 8.77394 33.9814 10.5565 34.9815 12.5691L33.3355 12.8684C33.0511 12.9175 32.8563 13.2231 32.9011 13.5506C32.9432 13.8781 33.2091 14.0991 33.4935 14.05L35.4867 13.6875Z" fill="#CA8404"></path>
<path fill-rule="evenodd" clip-rule="evenodd" d="M20 36.72C29.2342 36.72 36.72 29.2342 36.72 20C36.72 10.7658 29.2342 3.28 20 3.28C10.7658 3.28 3.28 10.7658 3.28 20C3.28 29.2342 10.7658 36.72 20 36.72ZM20 38C29.9411 38 38 29.9411 38 20C38 10.0589 29.9411 2 20 2C10.0589 2 2 10.0589 2 20C2 29.9411 10.0589 38 20 38Z" fill="#EAAC08"></path>
<path fill-rule="evenodd" clip-rule="evenodd" d="M20 36.72C29.2342 36.72 36.72 29.2342 36.72 20C36.72 10.7658 29.2342 3.28 20 3.28C10.7658 3.28 3.28 10.7658 3.28 20C3.28 29.2342 10.7658 36.72 20 36.72ZM20 38C29.9411 38 38 29.9411 38 20C38 10.0589 29.9411 2 20 2C10.0589 2 2 10.0589 2 20C2 29.9411 10.0589 38 20 38Z" fill="url(#paint1_linear_76423_8041)"></path>
<path fill-rule="evenodd" clip-rule="evenodd" d="M20 36.72C29.2342 36.72 36.72 29.2342 36.72 20C36.72 10.7658 29.2342 3.28 20 3.28C10.7658 3.28 3.28 10.7658 3.28 20C3.28 29.2342 10.7658 36.72 20 36.72ZM20 38C29.9411 38 38 29.9411 38 20C38 10.0589 29.9411 2 20 2C10.0589 2 2 10.0589 2 20C2 29.9411 10.0589 38 20 38Z" fill="url(#paint2_linear_76423_8041)"></path>
<path d="M18.6231 11.9984V13.1016C17.9527 13.5968 17.2735 14.0024 16.5871 14.3192C15.8447 14.6408 15.1015 14.8024 14.3591 14.8024C14.3127 14.8024 14.2655 14.8024 14.2191 14.8008V14.7816C14.2127 14.7816 14.2055 14.7816 14.1991 14.7808V14.7616C14.1927 14.7616 14.1855 14.7616 14.1791 14.7608V14.7416C14.1727 14.7416 14.1655 14.7416 14.1591 14.7408V14.7216C14.1527 14.7216 14.1455 14.7216 14.1391 14.7208V14.7016C14.1327 14.7016 14.1255 14.7016 14.1191 14.7008V14.6816C14.1127 14.6816 14.1055 14.6816 14.0991 14.6808V14.6616C14.0927 14.6616 14.0855 14.6616 14.0791 14.6608V14.6416C14.0727 14.6416 14.0655 14.6416 14.0591 14.6408V14.6216C14.0527 14.6216 14.0455 14.6216 14.0391 14.6208V14.6016C14.0327 14.6016 14.0255 14.6016 14.0191 14.6008V14.5816C14.0127 14.5816 14.0055 14.5816 13.9991 14.5808V14.5616C13.9927 14.5616 13.9855 14.5616 13.9791 14.5608V14.5416C13.9727 14.5416 13.9655 14.5416 13.9591 14.5408V14.5216C13.9527 14.5216 13.9455 14.5216 13.9391 14.5208V14.5016C13.9327 14.5016 13.9255 14.5016 13.9191 14.5008V14.4816C13.9127 14.4816 13.9055 14.4816 13.8991 14.4808V14.4616C13.8927 14.4616 13.8855 14.4616 13.8791 14.4608V14.4416C13.8727 14.4416 13.8655 14.4416 13.8591 14.4408V14.4216C13.8527 14.4216 13.8455 14.4216 13.8391 14.4208V14.4016C13.8327 14.4016 13.8255 14.4016 13.8191 14.4008V14.3816C13.8127 14.3816 13.8055 14.3816 13.7991 14.3808V14.3616C13.7927 14.3616 13.7855 14.3616 13.7791 14.3608V14.3416C13.7727 14.3416 13.7655 14.3416 13.7591 14.3408V14.3216C13.7527 14.3216 13.7455 14.3216 13.7391 14.3208V14.3016C13.7327 14.3016 13.7255 14.3016 13.7191 14.3008V14.2816C13.7127 14.2816 13.7055 14.2816 13.6991 14.2808V14.2616C13.6927 14.2616 13.6855 14.2616 13.6791 14.2608V14.2416C13.6727 14.2416 13.6655 14.2416 13.6591 14.2408V14.2216C13.6527 14.2216 13.6455 14.2216 13.6391 14.2208V14.2016C13.6327 14.2016 13.6255 14.2016 13.6191 14.2008V14.1808C13.6591 14.1824 13.6991 14.1824 13.7391 14.1824C14.4815 14.1824 15.2247 14.0208 15.9671 13.6992C16.7567 13.3352 17.5351 12.8536 18.3031 12.2536C18.4103 12.1696 18.5175 12.0848 18.6231 11.9984Z" fill="#85490E"></path>
<path d="M21.9005 9.02004V31.5H19.2445V31.48H19.2245V31.46H19.2045V31.44H19.1845V31.42H19.1645V31.4H19.1445V31.38H19.1245V31.36H19.1045V31.34H19.0845V31.32H19.0645V31.3H19.0445V31.28H19.0245V31.26H19.0045V31.24H18.9845V31.22H18.9645V31.2H18.9445V31.18H18.9245V31.16H18.9045V31.14H18.8845V31.12H18.8645V31.1H18.8445V31.08H18.8245V31.06H18.8045V31.04H18.7845V31.02H18.7645V31H18.7445V30.98H18.7245V30.96H18.7045V30.94H18.6845V30.92H18.6645V30.9H18.6445V30.88H21.2805V8.42004H21.3005V8.44004H21.3205V8.46004H21.3405V8.48004H21.3605V8.50004H21.3805V8.52004H21.4005V8.54004H21.4205V8.56004H21.4405V8.58004H21.4605V8.60004H21.4805V8.62004H21.5005V8.64004H21.5205V8.66004H21.5405V8.68004H21.5605V8.70004H21.5805V8.72004H21.6005V8.74004H21.6205V8.76004H21.6405V8.78004H21.6605V8.80004H21.6805V8.82004H21.7005V8.84004H21.7205V8.86004H21.7405V8.88004H21.7605V8.90004H21.7805V8.92004H21.8005V8.94004H21.8205V8.96004H21.8405V8.98004H21.8605V9.00004H21.8805V9.02004H21.9005Z" fill="#85490E"></path>
<path d="M21.2796 8.40002V30.88H18.6236V13.1016C18.6172 13.1064 18.63 13.0968 18.6236 13.1016V11.9984C18.518 12.0848 18.4108 12.1696 18.3036 12.2536C17.5356 12.8536 16.7572 13.3352 15.9676 13.6992C15.2252 14.0208 14.482 14.1824 13.7396 14.1824C13.6996 14.1824 13.6596 14.1824 13.6196 14.1808C13.6132 14.1816 13.606 14.1808 13.5996 14.1808V11.708C13.6276 11.7104 13.6564 11.7104 13.6852 11.7104C14.1148 11.7104 14.6204 11.5592 15.1996 11.2584C15.8188 10.9376 16.4588 10.52 17.1196 10.0056C17.7812 9.49202 18.3572 8.95682 18.8476 8.40002H21.2796Z" fill="url(#paint3_linear_76423_8041)"></path>
</g>
<defs>
<linearGradient id="paint0_linear_76423_8041" x1="19.9993" y1="3.28003" x2="19.9993" y2="36.72" gradientUnits="userSpaceOnUse">
<stop stop-color="#CA8404"></stop>
<stop offset="1" stop-color="#A15D07"></stop>
</linearGradient>
<linearGradient id="paint1_linear_76423_8041" x1="38" y1="2" x2="2" y2="38" gradientUnits="userSpaceOnUse">
<stop stop-color="#44403C"></stop>
<stop offset="0.4" stop-color="#44403C" stop-opacity="0"></stop>
</linearGradient>
<linearGradient id="paint2_linear_76423_8041" x1="38" y1="2" x2="2" y2="38" gradientUnits="userSpaceOnUse">
<stop offset="0.6" stop-color="#F5F5F4" stop-opacity="0"></stop>
<stop offset="1" stop-color="#F5F5F4"></stop>
</linearGradient>
<linearGradient id="paint3_linear_76423_8041" x1="17.4396" y1="8.40002" x2="17.4396" y2="30.88" gradientUnits="userSpaceOnUse">
<stop stop-color="#FEF7C3"></stop>
<stop offset="1" stop-color="#FDDA47"></stop>
</linearGradient>
<clipPath id="clip0_76423_8041">
<rect width="40" height="40" fill="white"></rect>
</clipPath>
</defs>
</svg>