<svg width="40" height="40" viewBox="0 0 40 40" fill="none" xmlns="http://www.w3.org/2000/svg">
<g clip-path="url(#clip0_76423_8013)">
<mask id="mask0_76423_8013" style="mask-type:luminance" maskUnits="userSpaceOnUse" x="0" y="0" width="40" height="40">
<path d="M40 20C40 8.9543 31.0457 0 20 0C8.9543 0 0 8.9543 0 20C0 31.0457 8.9543 40 20 40C31.0457 40 40 31.0457 40 20Z" fill="white"></path>
</mask>
<g mask="url(#mask0_76423_8013)">
<path d="M40 20C40 8.9543 31.0457 0 20 0C8.9543 0 0 8.9543 0 20C0 31.0457 8.9543 40 20 40C31.0457 40 40 31.0457 40 20Z" fill="#216C58"></path>
<path fill-rule="evenodd" clip-rule="evenodd" d="M20 39C30.4934 39 39 30.4934 39 20C39 9.50658 30.4934 1 20 1C9.50658 1 1 9.50658 1 20C1 30.4934 9.50658 39 20 39ZM20 40C31.0457 40 40 31.0457 40 20C40 8.95433 31.0457 0 20 0C8.95433 0 0 8.95433 0 20C0 31.0457 8.95433 40 20 40Z" fill="white"></path>
<path fill-rule="evenodd" clip-rule="evenodd" d="M36.7739 21C36.509 21 36.2906 21.2074 36.2671 21.4713C35.5233 29.8026 28.5239 36.3334 19.9991 36.3334C11.4744 36.3334 4.47488 29.8026 3.73112 21.4713C3.70756 21.2074 3.48923 21 3.22432 21C2.93651 21 2.70727 21.2432 2.73235 21.5299C3.50681 30.3864 10.9417 37.3334 19.9991 37.3334C29.0565 37.3334 36.4914 30.3864 37.2659 21.5299C37.2909 21.2432 37.0617 21 36.7739 21ZM3.22432 19C3.48923 19 3.70756 18.7927 3.73112 18.5289C4.47488 10.1976 11.4744 3.66675 19.9991 3.66675C28.5239 3.66675 35.5233 10.1976 36.2671 18.5289C36.2906 18.7927 36.509 19 36.7739 19C37.0617 19 37.2909 18.757 37.2659 18.4703C36.4914 9.61386 29.0565 2.66675 19.9991 2.66675C10.9417 2.66675 3.50681 9.61386 2.73235 18.4703C2.70727 18.757 2.93651 19 3.22432 19Z" fill="white"></path>
<path d="M26.9993 7.66663H14.3327C13.9644 7.66663 13.666 7.9651 13.666 8.33329V8.66667C13.666 9.03483 13.9644 9.33333 14.3327 9.33333H26.9993C27.3675 9.33333 27.666 9.03483 27.666 8.66667V8.33329C27.666 7.9651 27.3675 7.66663 26.9993 7.66663Z" fill="white"></path>
<path d="M18.332 11.143C18.8646 11.0643 19.4193 11.0181 19.9987 11.0043V9.99988H18.332V11.143Z" fill="white"></path>
<path d="M18.332 15.3653C18.3795 15.3465 18.4282 15.3283 18.478 15.3108C18.9124 15.1557 19.4122 15.0769 19.9987 15.0559V18.8046C19.7142 18.7378 19.4436 18.6639 19.1844 18.583C18.8603 18.4726 18.5767 18.3517 18.332 18.2216V15.3653Z" fill="white"></path>
<path d="M22.6667 15.5237C22.2075 15.283 21.6519 15.1354 21 15.0778V19.0188L22.3577 19.3068C22.4614 19.3278 22.5644 19.3495 22.6667 19.372V15.5237Z" fill="white"></path>
<path d="M18.332 22.7296L19.9987 23.1033V27.2787C19.3932 27.2576 18.8471 27.1639 18.3739 27.0018C18.3599 26.9969 18.3459 26.9919 18.332 26.9868V22.7296Z" fill="white"></path>
<path d="M21 23.3313C21.5382 23.4644 22.0071 23.6082 22.4082 23.7634C22.498 23.7967 22.5841 23.8315 22.6667 23.8675V26.7262C22.4946 26.833 22.289 26.9315 22.0453 27.0191C21.7402 27.1256 21.3936 27.203 21 27.2456V23.3313Z" fill="white"></path>
<path d="M22.6667 31.1724C22.1412 31.2505 21.585 31.3 21 31.3213V32.6666C21 33.0348 21.2985 33.3333 21.6667 33.3333H22C22.3682 33.3333 22.6667 33.0348 22.6667 32.6666V31.1724Z" fill="white"></path>
<path d="M19.9987 31.3306C19.4169 31.3204 18.8614 31.2827 18.332 31.2174V32.6666C18.332 33.0347 18.6305 33.3332 18.9987 33.3332H19.332C19.7003 33.3332 19.9987 33.0347 19.9987 32.6666V31.3306Z" fill="white"></path>
<path d="M21 11.012C21.5789 11.0349 22.1347 11.0901 22.6667 11.1795V9.99988H21V11.012Z" fill="white"></path>
<path d="M16.1782 12.3936C17.4087 11.911 18.7832 11.6666 20.3732 11.6666C21.966 11.6666 23.3545 11.9035 24.547 12.3918C25.7443 12.882 26.6761 13.5578 27.3423 14.4197C27.8746 15.1166 28.201 15.8874 28.3179 16.7529L28.3181 16.754C28.3693 17.1232 28.0697 17.4332 27.6899 17.4332H24.6066C24.2652 17.4332 23.9902 17.1755 23.8798 16.8574C23.7117 16.3725 23.3945 15.9824 22.9313 15.6797C22.2909 15.2562 21.4272 15.0499 20.3399 15.0499C19.6032 15.0499 18.9947 15.1265 18.4787 15.3108C17.9617 15.4923 17.5734 15.7464 17.3018 16.0682L17.2978 16.073C17.0343 16.3975 16.8993 16.7781 16.8982 17.1865C16.8889 17.5239 16.9724 17.815 17.1357 18.0654L17.1399 18.0718L17.1444 18.078C17.3242 18.3278 17.5687 18.5496 17.8875 18.7372L17.8912 18.7394C18.205 18.9186 18.5668 19.0768 18.9742 19.2155L18.9822 19.218C19.3935 19.3466 19.8293 19.4576 20.2977 19.5514L22.2207 19.9593L22.224 19.96C23.1562 20.148 24.0201 20.401 24.7997 20.7095C25.5824 21.0243 26.2615 21.4089 26.8326 21.8609C27.4053 22.316 27.8497 22.8547 28.1691 23.4701L28.1697 23.4715C28.4925 24.0863 28.6647 24.7904 28.6649 25.5905C28.6568 26.7659 28.3271 27.7761 27.6597 28.6375L27.6583 28.6393C27.0047 29.4953 26.0533 30.1547 24.8047 30.6301C23.5704 31.103 22.0629 31.3333 20.3232 31.3333C18.5861 31.3333 17.0767 31.0955 15.7886 30.6205L15.7868 30.6199C14.5062 30.1555 13.511 29.449 12.7874 28.5216C12.1952 27.7417 11.8399 26.817 11.7127 25.7365C11.6716 25.3737 11.9742 25.0582 12.3482 25.0582H15.4399C15.7841 25.0582 16.0707 25.3329 16.1593 25.6684L16.1602 25.6716C16.2644 26.0505 16.4366 26.3765 16.6755 26.6633L16.6797 26.6683C17.0483 27.0935 17.5417 27.4148 18.1539 27.631L18.1568 27.632C18.7817 27.8462 19.4944 27.95 20.2649 27.95C21.0361 27.95 21.6993 27.846 22.2665 27.6479L22.2693 27.6469C22.838 27.4425 23.2822 27.1669 23.5958 26.8149C23.9178 26.4618 24.0732 26.0489 24.0732 25.5915C24.0732 25.1682 23.9346 24.8089 23.6466 24.5102C23.369 24.2229 22.955 23.9665 22.4081 23.7633C21.8708 23.5555 21.2123 23.368 20.4281 23.1994L18.0878 22.6746L18.0857 22.6742C16.2763 22.2812 14.8453 21.6643 13.7974 20.8307C12.7498 19.9988 12.2316 18.873 12.2316 17.4582C12.2316 16.2961 12.5752 15.2802 13.2734 14.4187C13.9816 13.5534 14.9479 12.876 16.1782 12.3936Z" fill="white"></path>
</g>
</g>
<defs>
<clipPath id="clip0_76423_8013">
<rect width="40" height="40" fill="white"></rect>
</clipPath>
</defs>
</svg>