<svg width="40" height="40" viewBox="0 0 40 40" fill="none" xmlns="http://www.w3.org/2000/svg">
<path d="M20 40C31.0834 40 40 31.0834 40 20C40 8.9166 31.0834 0 20 0C8.9166 0 0 8.9166 0 20C0 31.0834 8.9166 40 20 40Z" fill="black"></path>
<path d="M25.5006 23.1666C25.5006 20.25 23.7506 19.25 20.2506 18.8334C17.7506 18.5 17.2506 17.8334 17.2506 16.6666C17.2506 15.4998 18.084 14.75 19.7506 14.75C21.2506 14.75 22.084 15.25 22.5006 16.5C22.584 16.75 22.834 16.9166 23.084 16.9166H24.4172C24.7506 16.9166 25.0006 16.6666 25.0006 16.3334V16.25C24.6672 14.4166 23.1672 13 21.2506 12.8334V10.8334C21.2506 10.5 21.0006 10.25 20.584 10.1666H19.334C19.0006 10.1666 18.7506 10.4166 18.6672 10.8334V12.75C16.1672 13.0834 14.584 14.75 14.584 16.8334C14.584 19.5834 16.2506 20.6666 19.7506 21.0834C22.084 21.5 22.834 22 22.834 23.3334C22.834 24.6668 21.6672 25.5834 20.084 25.5834C17.9172 25.5834 17.1672 24.6666 16.9172 23.4166C16.834 23.0834 16.584 22.9166 16.334 22.9166H14.9172C14.584 22.9166 14.334 23.1666 14.334 23.5V23.5834C14.6672 25.6666 16.0006 27.1666 18.7506 27.5834V29.5834C18.7506 29.9166 19.0006 30.1666 19.4172 30.25H20.6672C21.0006 30.25 21.2506 30 21.334 29.5834V27.5834C23.834 27.1666 25.5006 25.4166 25.5006 23.1666Z" fill="white"></path>
<path fill-rule="evenodd" clip-rule="evenodd" d="M8.33307 15.9166C5.91627 22.3334 9.24967 29.5834 15.7497 31.9166C15.9997 32.0834 16.2497 32.4166 16.2497 32.6666V33.8334C16.2497 34 16.2497 34.0834 16.1663 34.1666C16.0831 34.5 15.7497 34.6666 15.4163 34.5C10.7497 33 7.16627 29.4166 5.66627 24.75C3.16627 16.8334 7.49967 8.41657 15.4163 5.91657C15.4997 5.83337 15.6663 5.83337 15.7497 5.83337C16.0831 5.91657 16.2497 6.16657 16.2497 6.49997V7.66657C16.2497 8.08337 16.0831 8.33337 15.7497 8.49997C12.3331 9.74997 9.58307 12.4166 8.33307 15.9166ZM23.8331 6.24993C23.9163 5.91653 24.2497 5.74993 24.5831 5.91653C29.1663 7.41653 32.8331 10.9999 34.3331 15.7499C36.8331 23.6665 32.4997 32.0833 24.5831 34.5833C24.4997 34.6665 24.3331 34.6665 24.2497 34.6665C23.9163 34.5833 23.7497 34.3333 23.7497 33.9999V32.8333C23.7497 32.4165 23.9163 32.1665 24.2497 31.9999C27.6663 30.7499 30.4163 28.0833 31.6663 24.5833C34.0831 18.1665 30.7497 10.9165 24.2497 8.58333C23.9997 8.41653 23.7497 8.08333 23.7497 7.74993V6.58333C23.7497 6.41653 23.7497 6.33333 23.8331 6.24993Z" fill="white"></path>
</svg>