<svg width="40" height="40" viewBox="0 0 40 40" fill="none" xmlns="http://www.w3.org/2000/svg">
<g clip-path="url(#clip0_76423_8045)">
<path d="M20.0086 0.359375H20.0093C30.8051 0.359375 39.5568 9.0936 39.5568 19.8678V19.8685C39.5568 30.6429 30.8051 39.3771 20.0093 39.3771H20.0086C9.21268 39.3771 0.460938 30.6429 0.460938 19.8685V19.8678C0.460938 9.0936 9.21268 0.359375 20.0086 0.359375Z" fill="#314012"></path>
<path fill-rule="evenodd" clip-rule="evenodd" d="M34.546 21.1006C33.9825 28.6199 27.6949 34.5455 20.0211 34.5455C11.9765 34.5455 5.45508 28.0333 5.45508 20C5.45508 11.9668 11.9765 5.45459 20.0211 5.45459C27.6822 5.45459 33.962 11.3609 34.5431 18.8624H27.5791C29.0993 15.507 29.1913 12.4583 27.5287 11.0653C25.0736 9.00814 19.7222 11.3407 15.5757 16.2753C11.4293 21.2099 10.0582 26.8779 12.5132 28.935C14.9683 30.992 20.3198 28.6595 24.4664 23.725C25.1891 22.865 25.8274 21.9824 26.376 21.1006H34.546Z" fill="#C7E36C"></path>
</g>
<defs>
<clipPath id="clip0_76423_8045">
<rect width="40" height="40" fill="white"></rect>
</clipPath>
</defs>
</svg>