<svg width="40" height="40" viewBox="0 0 40 40" fill="none" xmlns="http://www.w3.org/2000/svg">
<g clip-path="url(#clip0_77482_166222)">
<path d="M19.9993 39.7455C30.9044 39.7455 39.7447 30.9051 39.7447 20.0001C39.7447 9.09496 30.9044 0.254639 19.9993 0.254639C9.09423 0.254639 0.253906 9.09496 0.253906 20.0001C0.253906 30.9051 9.09423 39.7455 19.9993 39.7455Z" fill="url(#paint0_linear_77482_166222)" stroke="url(#paint1_linear_77482_166222)" stroke-width="0.611039"></path>
<path d="M12.5607 25.3028H9.77734C10.0046 29.6418 13.6399 33.4137 20.0871 33.4137C26.5058 33.4137 30.5956 29.8971 30.5956 25.3595C30.5956 16.7381 17.5593 17.2202 17.5593 12.2288C17.5593 10.8392 18.6102 9.19434 21.0528 9.19434C23.7793 9.19434 26.9886 11.3213 27.2158 14.0438H29.9708C29.6868 9.64809 25.3982 6.58521 19.9451 6.58521C14.2932 6.58521 10.033 9.87492 10.033 14.526C10.033 23.4027 23.0693 22.2399 23.0693 27.7133C23.0693 29.4149 22.0183 30.8329 19.377 30.8329C16.0825 30.8329 12.7595 28.5358 12.5607 25.3028ZM14.8896 12.8811C14.8896 19.6308 27.8123 18.2978 27.8123 25.5013C27.8123 27.6567 26.3922 29.5568 24.6881 30.0388C25.2845 29.4717 25.7389 28.2238 25.7389 27.0328C25.7389 20.3682 12.7879 21.2757 12.7879 14.4409C12.7879 12.1438 14.2648 10.3003 16.1108 9.73317C15.4008 10.5839 14.8896 11.69 14.8896 12.8811Z" fill="white"></path>
</g>
<defs>
<linearGradient id="paint0_linear_77482_166222" x1="19.9993" y1="5.53317e-05" x2="19.9993" y2="40.0001" gradientUnits="userSpaceOnUse">
<stop stop-color="#FF8B5C"></stop>
<stop offset="1" stop-color="#FFC33C"></stop>
</linearGradient>
<linearGradient id="paint1_linear_77482_166222" x1="19.9993" y1="5.53317e-05" x2="19.9993" y2="40.0001" gradientUnits="userSpaceOnUse">
<stop stop-color="#FFC33C"></stop>
<stop offset="1" stop-color="#FF8B5C"></stop>
</linearGradient>
<clipPath id="clip0_77482_166222">
<rect width="40" height="40" fill="white"></rect>
</clipPath>
</defs>
</svg>