<svg width="40" height="40" viewBox="0 0 40 40" fill="none" xmlns="http://www.w3.org/2000/svg">
<circle cx="20" cy="20" r="20" fill="white"></circle>
<path d="M17.9687 24.548C17.2987 24.0271 17.9469 23.0488 18.5645 22.8351C20.5011 22.1652 22.2289 22.3733 22.8843 22.9096C23.5396 23.4458 22.8098 24.4735 22.3629 24.9204C23.8524 25.4417 24.7612 25.3569 25.7888 23.8777C26.2328 24.8733 26.3131 25.3926 25.5653 26.112C25.0688 29.0243 24.1503 29.9846 22.3629 30.9528C22.065 31.1266 21.0224 31.4592 19.235 30.8039C18.0721 30.3775 16.373 27.5274 16.373 27.5274C16.373 27.5274 15.4324 27.0805 15.2879 25.6651C16.9021 26.3239 17.7723 26.4869 19.0861 25.3672C19.0861 25.2931 18.9339 25.2983 17.9687 24.548Z" fill="#B2B2D4"></path>
<path d="M24.2248 31.1766C30.672 29.2536 32.37 26.8252 33.5341 21.197C36.0665 26.112 29.2893 32.2937 23.6293 33.2619C23.0377 33.3631 17.0008 34.6769 12.011 32.5172C8.01914 30.7893 7.17013 27.0306 7.2446 25.3672C9.98367 30.8855 12.9196 32.8036 24.2248 31.1766Z" fill="#B2B2D4"></path>
<path d="M28.6121 6.5982C31.4816 9.69316 31.2419 12.2695 31.4422 16.5778C26.7242 13.0827 24.0961 11.9322 19.5262 12.0348C15.0156 11.1147 9.0998 18.8865 7.9082 19.7057C8.44491 16.4822 9.49993 14.9699 12.0788 12.6306C15.6833 10.1856 18.0089 9.62443 22.5052 9.94956L27.7929 6.22583L28.6121 6.5982Z" fill="#B1D7FE"></path>
<path fill-rule="evenodd" clip-rule="evenodd" d="M25.8433 6.55127C25.0768 6.93467 24.3614 7.47163 23.4622 8.33866L22.1766 9.57792H20.6846C18.8604 9.57792 17.0549 9.87894 15.4291 10.4543L14.2028 10.8884L13.3511 10.3891C12.2113 9.72121 10.4004 9.12914 9.18543 9.02725C6.8654 8.83273 5.99733 10.1801 6.00001 13.9719C6.00135 15.8801 6.31488 17.6889 6.96207 19.5227L7.42038 20.8209L7.23479 22.2372C6.9144 24.6825 6.88581 26.5641 7.15332 27.6082C7.87706 30.4329 10.316 32.5654 13.907 33.5133C16.0544 34.0802 19.3919 34.1603 22.0552 33.7092C29.3808 32.4681 34.0991 28.5855 34.0936 23.8026C34.0919 22.3412 33.7932 21.1848 33.036 19.7105C31.8668 17.4333 31.7609 17.0888 31.799 15.6848C31.9081 11.678 30.4019 7.11371 28.676 6.2212C27.9448 5.84317 27.0504 5.94743 25.8433 6.55127ZM28.1806 6.88209C28.4349 7.03715 28.7795 7.38881 28.9465 7.66348C29.7273 8.94861 30.4737 11.9417 30.4737 13.7877C30.4737 14.4332 30.5598 14.8209 30.7838 15.1832C30.9542 15.459 31.131 15.6848 31.1766 15.6848C31.3307 15.6848 31.0523 12.7878 30.7752 11.5058C30.2943 9.28285 29.2387 7.12845 28.4556 6.77172C27.8555 6.49825 27.6719 6.57183 28.1806 6.88209ZM25.6701 9.66222C24.8875 10.0696 24.795 10.2531 25.2977 10.4015C25.9835 10.6037 27.6655 11.6993 28.5551 12.5228C29.143 13.0671 29.4425 13.2666 29.3868 13.0769C29.339 12.9138 29.2222 12.4803 29.1272 12.1138C28.8838 11.1733 28.1583 9.79121 27.7628 9.51417C27.2853 9.17978 26.4885 9.23608 25.6701 9.66222ZM17.9034 10.4128C15.186 10.9036 13.2327 11.8917 11.4827 13.6609C9.96384 15.1964 8.82393 17.1447 8.51218 18.7383C8.4386 19.1139 8.4593 19.0964 8.64207 18.6281C10.3474 14.2575 13.6217 11.6998 18.518 10.9137C19.3628 10.778 19.4736 10.7917 19.7468 11.0649C20.1688 11.4868 21.9218 11.5254 22.5429 11.1264C22.8371 10.9374 22.9885 10.9392 23.7646 11.1402C25.8242 11.6739 27.5136 12.724 29.2237 14.5336C30.2404 15.6095 30.3207 15.6683 29.8806 15.0146C29.6047 14.6049 28.9309 13.8341 28.383 13.3016C25.6836 10.6776 22.0235 9.66863 17.9034 10.4128ZM9.13166 12.2603C8.64921 12.6397 8.42758 13.6235 8.43398 15.357C8.4392 16.8069 8.42266 16.8095 9.32291 15.217C9.60964 14.7098 10.2908 13.8329 10.8367 13.2683C11.8194 12.2517 11.8254 12.2404 11.46 12.1014C10.791 11.847 9.54931 11.9318 9.13166 12.2603ZM23.1592 17.0994C22.3344 17.5477 21.9971 18.6501 22.5883 18.9665C23.321 19.3587 24.7637 17.9159 24.3715 17.1833C24.1815 16.8282 23.7175 16.796 23.1592 17.0994ZM14.7149 18.3957C14.0102 19.1004 15.6714 20.5127 16.6126 20.009C17.2034 19.6929 16.8693 18.886 15.971 18.4598C15.3637 18.1715 14.9596 18.151 14.7149 18.3957ZM31.5467 20.0873C31.186 20.3961 30.7592 20.9855 30.4983 21.5351C30.2562 22.045 29.8993 22.6096 29.7054 22.79C28.6887 23.7352 26.9929 23.8668 25.1225 23.1455C24.4567 22.8888 23.6092 22.6372 23.2392 22.5864L22.5666 22.4942L22.7376 22.8695C22.9891 23.422 22.5471 24.2564 21.7274 24.7762L21.0775 25.1885L21.5495 25.5246C22.4063 26.1347 23.9023 26.0661 24.7235 25.3792C24.8789 25.2493 25.147 24.8415 25.3193 24.4728L25.6328 23.8026L25.6792 24.4468C25.7157 24.9542 25.6443 25.1976 25.3433 25.5923C25.0938 25.9193 24.885 26.4909 24.7421 27.2369C24.4599 28.7127 23.7303 30.0609 22.8957 30.6497C22.028 31.2618 20.5327 31.365 19.5341 30.8817C18.6955 30.4756 17.8425 29.5219 17.1931 28.264C16.9196 27.7345 16.5815 27.2644 16.4418 27.2196C16.0308 27.0876 15.4298 26.2697 15.4298 25.8424C15.4298 25.4483 15.4307 25.4486 15.8785 25.992C16.1253 26.2913 16.566 26.615 16.8578 26.7114C17.8721 27.0461 19.2959 26.5685 19.8627 25.7034C20.101 25.3399 20.0954 25.3345 19.2679 25.1534C18.613 25.0099 17.813 24.2165 17.813 23.7102V23.2762L17.1055 23.6414C16.7164 23.8422 16.0295 24.3127 15.5792 24.687C14.5355 25.5545 13.9094 25.8502 12.9418 25.9322C11.5902 26.0471 11.1895 25.8895 9.98022 24.7683C8.81499 23.6879 7.95749 23.3098 7.66064 23.7457C7.58348 23.8589 7.54371 24.7262 7.57231 25.6731C7.62132 27.2981 7.65513 27.4597 8.17571 28.5558C9.58193 31.5169 12.7528 33.1592 17.4612 33.3651C24.3251 33.6654 30.824 30.8067 32.8165 26.611C33.2982 25.5966 33.3745 25.2828 33.425 24.1057C33.4653 23.1637 33.4077 22.4721 33.2328 21.8007C32.9808 20.8328 32.5237 19.7943 32.2847 19.6466C32.2136 19.6026 31.8814 19.8009 31.5467 20.0873ZM20.2707 22.7814C20.1068 22.817 19.8219 22.8782 19.6376 22.9175C19.1279 23.0262 19.2377 23.2832 19.7866 23.2663C20.4442 23.2462 20.9587 23.0891 20.9576 22.9089C20.9566 22.737 20.6976 22.689 20.2707 22.7814Z" fill="#007AFF"></path>
<path d="M21.3125 26.4092C19.2868 25.9325 18.1846 27.6008 17.8867 28.4945L19.1528 30.2819L21.6849 31.0267L23.3978 29.8351L23.9936 28.0477C23.944 27.7001 23.3383 26.8858 21.3125 26.4092Z" fill="#FF69A0"></path>
<path d="M9.32102 10.8428C9.73808 10.7832 11.729 11.4634 12.6724 11.811L10.066 14.6411C9.49507 15.6341 8.32334 17.6052 8.20418 17.5456C8.05523 17.4711 7.75705 15.6093 7.6081 14.939C7.45915 14.2687 7.906 12.1834 8.05495 11.6621C8.2039 11.1408 8.7997 10.9173 9.32102 10.8428Z" fill="#FF69A0"></path>
<path d="M26.8364 7.9926C26.4197 8.05443 24.7053 9.27415 23.9003 9.87628L27.2055 11.8457C28.0359 12.6346 29.7211 14.1897 29.8183 14.0986C29.9398 13.9848 29.6947 12.1152 29.6463 11.4303C29.5979 10.7453 28.575 8.87407 28.2835 8.41687C27.9921 7.95967 27.3573 7.91532 26.8364 7.9926Z" fill="#FF69A0"></path>
<path fill-rule="evenodd" clip-rule="evenodd" d="M25.8627 6.6098C24.9146 7.08643 24.3096 7.53417 23.405 8.42832L22.205 9.6144L20.3431 9.65015C18.2803 9.68977 17.4781 9.82918 15.5021 10.492L14.1616 10.9415L13.2679 10.4035C12.2799 9.80848 10.5626 9.22341 9.3566 9.07073C7.63848 8.85327 6.68908 9.55586 6.28185 11.3462C5.77795 13.5618 6.09075 16.981 7.03628 19.5925C7.4788 20.8146 7.5077 21.7828 7.15216 23.4731C6.90029 24.6699 6.87705 26.049 7.08975 27.1703C7.63356 30.0377 10.1425 32.4306 13.6137 33.3925C17.8881 34.5771 23.5321 33.9659 27.8838 31.8473C31.8734 29.9051 34.0464 27.0878 34.0464 23.8575C34.0464 22.3294 33.806 21.4404 32.8639 19.4832C31.6686 16.9999 31.6148 16.8362 31.7015 15.9438C31.8101 14.826 31.5612 12.2721 31.2061 10.8615C31.0387 10.1966 30.6042 9.03618 30.2405 8.28279C29.4592 6.66476 28.8946 6.1418 27.8215 6.0423C27.2214 5.98674 26.9389 6.06867 25.8627 6.6098ZM26.9243 6.73447C25.4988 7.22466 22.841 9.3101 23.1024 9.73296C23.3175 10.0811 23.9836 9.85525 24.6891 9.19526C26.1116 7.86484 27.6501 7.47579 28.4644 8.24094C29.2803 9.00743 30.1658 11.7286 30.1712 13.4857C30.1733 14.1767 30.2616 14.4826 30.6334 15.0869C30.8862 15.4977 31.1307 15.8339 31.1768 15.8339C31.2229 15.8339 31.2214 15.0799 31.1735 14.1582C31.0621 12.015 30.5427 9.97307 29.7002 8.36606C28.7794 6.6098 28.2285 6.28583 26.9243 6.73447ZM26.1521 8.69419C25.7015 8.94249 25.1185 9.35314 24.8567 9.6068L24.3804 10.0681L25.8445 10.7863C26.9704 11.3388 27.588 11.7675 28.5177 12.6421L29.7269 13.7796V13.1922C29.7269 12.3624 29.1993 10.393 28.7252 9.45294C28.0464 8.10703 27.5068 7.94796 26.1521 8.69419ZM7.66722 9.9187C7.0686 10.3215 6.85828 10.8735 6.6429 12.606C6.42305 14.3756 6.69384 16.7601 7.33924 18.7384L7.58217 19.4832L7.82809 18.7481C8.06134 18.0509 8.05911 17.963 7.784 17.0352C7.35681 15.5941 7.34132 12.5691 7.75689 11.7378C8.20046 10.8507 8.9181 10.5441 10.0745 10.7479C10.5649 10.8343 11.3689 11.0857 11.8612 11.3066C12.6518 11.6614 12.7994 11.6854 13.124 11.5117C13.3261 11.4036 13.4914 11.2674 13.4914 11.209C13.4914 11.0053 11.3235 10.0355 10.3635 9.80997C8.982 9.48541 8.26838 9.51415 7.66722 9.9187ZM19.1843 10.1852C12.6601 10.8131 8.74979 14.7616 7.91091 21.5685C7.78966 22.5515 7.61211 23.8237 7.51619 24.3957C7.01006 27.4126 8.61588 30.496 11.4887 32.0232C15.0949 33.9402 21.1751 33.9439 26.265 32.0321C30.9882 30.258 33.8695 26.768 33.5398 23.2204C33.4332 22.0731 32.8696 20.299 32.4173 19.6874C32.2548 19.4677 31.8311 18.6282 31.4755 17.8216C30.6745 16.0048 30.0246 14.9809 28.9045 13.771C27.0482 11.766 24.6039 10.4741 22.2391 10.2483C21.7288 10.1995 21.1102 10.1387 20.8644 10.1131C20.6186 10.0875 19.8626 10.1198 19.1843 10.1852ZM8.75574 11.2236C8.02232 11.518 7.63594 13.6734 7.96721 15.6229C8.2587 17.3393 8.2511 17.3344 8.85733 16.1823C9.60669 14.7582 10.3709 13.7528 11.4379 12.7873L12.3423 11.9688L11.6836 11.6866C11.0464 11.4134 9.64169 11.0577 9.27632 11.0769C9.17787 11.0821 8.94372 11.1481 8.75574 11.2236ZM25.5387 19.0186C24.6693 19.3292 23.9342 19.8472 23.5406 20.4266C23.3385 20.7241 23.1731 21.0141 23.1731 21.0711C23.1731 21.225 23.6194 21.6429 23.7838 21.6429C23.8622 21.6429 24.2759 21.2673 24.7033 20.8082C25.5064 19.9452 26.1728 19.521 27.0086 19.3406C27.2747 19.2831 27.4926 19.1815 27.4926 19.115C27.4926 18.7773 26.369 18.7219 25.5387 19.0186ZM12.635 21.1203C11.8759 21.4502 12.0468 21.6429 13.0981 21.6429C14.0218 21.6429 14.8333 21.9356 15.9743 22.6802C16.5952 23.0855 17.067 22.2573 16.505 21.7487C15.649 20.974 13.6997 20.6575 12.635 21.1203ZM20.4176 22.1875C18.8009 22.4243 17.811 23.0215 17.811 23.7598C17.811 24.2098 18.6041 24.894 19.36 25.0963C19.7369 25.197 20.0452 25.3501 20.0452 25.4364C20.0452 25.7083 19.278 26.4339 18.7626 26.6493C18.1068 26.9233 17.0104 26.912 16.4564 26.6254C16.2111 26.4987 15.8795 26.1802 15.7197 25.9179C15.5165 25.585 15.4287 25.522 15.4284 25.7092C15.4273 26.175 15.8631 26.8426 16.3237 27.0808C16.614 27.2308 16.9266 27.6252 17.2265 28.2192C17.7929 29.3411 18.8271 30.4683 19.6599 30.8715C20.8537 31.4494 22.4462 31.155 23.3508 30.189C23.9231 29.578 24.5177 28.1925 24.718 27.0036C24.8349 26.3097 25.0009 25.8643 25.2355 25.6145C25.4397 25.397 25.6145 24.9825 25.6635 24.5993C25.759 23.8518 25.6717 23.8873 25.2146 24.7811C24.6078 25.9683 22.9851 26.3782 21.7164 25.6651C21.3707 25.4708 21.0878 25.2588 21.0878 25.1942C21.0878 25.1294 21.2809 24.9766 21.517 24.8546C22.6187 24.2847 23.1109 22.9441 22.3911 22.4732C22.0113 22.2246 21.0822 22.0901 20.4176 22.1875ZM19.7101 22.8587C19.1446 23.0652 19.1969 23.2814 19.8121 23.2814C20.4235 23.2814 21.0878 23.0506 21.0878 22.8382C21.0878 22.6471 20.2552 22.6597 19.7101 22.8587ZM20.208 27.7933C19.9287 27.8824 19.4376 28.2053 19.1163 28.5108C18.431 29.1629 18.4772 29.3849 19.4372 30.0501C20.0629 30.4838 21.0744 30.6902 21.7465 30.5216C22.2738 30.3892 23.1363 29.5976 23.4738 28.9359C23.7406 28.4128 23.7423 28.3677 23.502 28.1502C22.8991 27.6046 21.3312 27.4348 20.208 27.7933Z" fill="#00004F"></path>
</svg>