<svg width="40" height="40" viewBox="0 0 40 40" fill="none" xmlns="http://www.w3.org/2000/svg">
<circle cx="20" cy="20" r="20" fill="#5BCF64"></circle>
<path d="M38.214 17.4504C34.2678 16.861 32.0271 16.6973 28.014 16.6504C25.6637 20.3504 25.8641 24.4004 29.864 25.7504C33.714 26.4004 36.514 23.5004 38.214 17.4504Z" fill="#F9D93A"></path>
<path d="M25.5137 19.8004C25.3417 22.5847 25.6102 23.9425 27.2637 25.7504M28.014 16.6504C32.0271 16.6973 34.2678 16.861 38.214 17.4504C36.514 23.5004 33.714 26.4004 29.864 25.7504C25.8641 24.4004 25.6637 20.3504 28.014 16.6504Z" stroke="black" stroke-width="0.1"></path>
<path d="M8.20608 6C11.5508 8.06368 13.1114 9.38128 15.9561 11.7C15.2109 17.5 11.5109 19.7 8.05608 17.2C4.9508 14.198 5.66093 10.85 8.20608 6Z" fill="#F9D93A"></path>
<path d="M15.9561 16C14.4109 18.45 13.1026 19.336 10.5609 19.35M15.9561 11.7C13.1114 9.38128 11.5508 8.06368 8.20608 6C5.66093 10.85 4.9508 14.198 8.05608 17.2C11.5109 19.7 15.2109 17.5 15.9561 11.7Z" stroke="black" stroke-width="0.1"></path>
<path d="M32.0398 17.1464C32.1592 17.1968 32.2323 17.347 32.249 17.6055C32.2654 17.8596 32.2256 18.198 32.1449 18.5896C32.024 19.1763 31.8119 19.8754 31.5654 20.5761L31.3096 21.2737C30.874 22.3073 30.3662 23.1959 29.9056 23.7987C29.675 24.1005 29.4578 24.3284 29.2689 24.4672C29.0766 24.6086 28.9289 24.6472 28.8284 24.6048C28.7321 24.5641 28.6753 24.4425 28.6726 24.2149C28.67 23.992 28.7201 23.6895 28.8109 23.3258C28.9924 22.5997 29.3308 21.6436 29.7059 20.6181C30.1422 19.5827 30.6136 18.6578 31.0382 18.0194C31.2508 17.6998 31.4509 17.4544 31.6263 17.3029C31.805 17.1486 31.942 17.1054 32.0398 17.1464Z" fill="black" stroke="black" stroke-width="0.1"></path>
<path d="M12.7278 9.8348C12.6984 9.82912 12.65 9.84319 12.5802 9.89882C12.5127 9.95272 12.4342 10.0375 12.3488 10.1496C12.1783 10.3734 11.9837 10.6982 11.7869 11.0775C11.3934 11.8359 10.9955 12.8068 10.7665 13.6137C10.5662 14.3203 10.3433 15.2292 10.2387 15.9735C10.1864 16.3461 10.1642 16.6745 10.1875 16.9144C10.1992 17.0345 10.2224 17.1284 10.2559 17.1941C10.2889 17.2588 10.3294 17.2919 10.3775 17.3011C10.4268 17.3107 10.4945 17.294 10.5812 17.24C10.6667 17.1868 10.764 17.1016 10.8696 16.9873C11.0809 16.7586 11.3203 16.4201 11.5594 16.0104C12.0371 15.1918 12.5118 14.0956 12.7688 13.0402C12.9818 11.9361 13.0655 11.1446 13.0446 10.6209C13.0341 10.3589 12.9978 10.1677 12.941 10.039C12.8847 9.91159 12.8112 9.85099 12.7278 9.8348Z" fill="black" stroke="black" stroke-width="0.1"></path>
<path d="M26.6138 30.6495C24.2638 22.9001 14.1137 21.1004 10.0137 24.8495C9.46255 25.5504 10.0145 27.0611 11.5137 26.7995C14.6626 26.2504 20.7626 27.9004 24.4138 32.3995C24.9825 33.1004 26.9633 31.8021 26.6138 30.6495Z" fill="#04A221"></path>
<path d="M24.7633 30.1004C22.7633 25.9504 16.8633 23.5504 11.6633 25.2504M10.0137 24.8495C14.1137 21.1004 24.2638 22.9001 26.6138 30.6495C26.9633 31.8021 24.9825 33.1004 24.4138 32.3995C20.7626 27.9004 14.6626 26.2504 11.5137 26.7995C10.0145 27.0611 9.46255 25.5504 10.0137 24.8495Z" stroke="black" stroke-width="0.1"></path>
<path d="M21.7084 26.6738C22.6609 27.3206 23.4814 28.1061 24.1103 29C23.4084 31.25 22.6142 31.8293 21.4084 31C20.5289 30.2686 21.1489 28.7872 21.7084 26.6738Z" fill="white" stroke="black" stroke-width="0.1"></path>
<path d="M13.2144 24.8661C14.2667 24.684 15.3288 24.6547 16.3644 24.7599C15.5644 27.251 14.7311 28.3739 13.4144 28.251C12.3641 27.951 12.6142 26.101 13.2144 24.8661Z" fill="white" stroke="black" stroke-width="0.1"></path>
</svg>