<svg width="40" height="40" viewBox="0 0 40 40" fill="none" xmlns="http://www.w3.org/2000/svg">
<circle cx="20" cy="20" r="20" fill="#171412"></circle>
<path fill-rule="evenodd" clip-rule="evenodd" d="M14.843 19.8849C14.9413 19.9017 15.0085 20.0061 14.9944 20.118C14.9793 20.2299 14.8881 20.3073 14.7898 20.2905L9.57652 19.3758C10.1361 20.1516 10.9905 20.7912 11.8609 21.0057L17.9047 22.1805L10.2653 26.5927C11.196 27.03 12.2487 26.9452 13.1128 26.3727L13.2713 26.2607L16.0879 24.2663C16.1658 24.2113 16.2693 24.2384 16.318 24.3269C16.3668 24.4164 16.3429 24.533 16.2649 24.5889L13.3422 26.6589C14.1479 27.0384 15.0643 26.9153 15.7673 26.3447L17.9924 24.3913C18.065 24.3269 18.1703 24.3428 18.2261 24.4258C18.2828 24.5088 18.2686 24.6281 18.196 24.6924L15.9249 26.686C16.7156 26.7848 17.7586 26.534 18.4085 25.9894C19.1602 25.305 20.0988 24.3073 20.9204 23.8523C21.4296 23.5707 21.9962 23.4272 22.7054 23.5306C23.1889 23.7209 23.698 23.8113 24.2089 23.7964C24.5453 23.8617 24.8402 24.0845 25.0234 24.4071C25.1297 23.8887 24.9332 23.2873 24.4851 23.1334C24.4913 22.9451 24.4116 22.7707 24.2797 22.6682L24.1584 22.6001L20.9196 20.7884C19.3993 19.938 17.879 19.0867 16.3588 18.2364C15.6761 17.8746 14.9634 17.5912 14.232 17.3907C13.7893 17.2695 13.3997 17.2042 12.949 17.1221L2 15.123C2.6012 15.9967 3.39542 16.4769 4.34192 16.6475L12.0707 18.0443C12.169 18.062 12.2354 18.1665 12.2195 18.2783C12.2035 18.3902 12.1123 18.4658 12.014 18.448L5.87901 17.3394C6.33234 18.0266 6.99728 18.49 7.73839 18.6383L7.85614 18.6588L14.843 19.8849Z" fill="#EAAC08"></path>
<path fill-rule="evenodd" clip-rule="evenodd" d="M34.3912 17.3273L28.1809 18.4742C28.0853 18.4909 27.9958 18.4154 27.9817 18.3035C27.9666 18.1916 28.0321 18.0872 28.1278 18.0704L36.0699 16.6037C36.8518 16.4238 37.5459 15.8942 38.001 15.123L26.65 17.2853C26.65 17.2853 26.65 17.2853 26.6491 17.2853C25.7389 17.4588 25.1315 17.6993 24.3045 18.1571L20.6035 20.2056L23.6741 21.9055C25.4095 21.5484 27.0033 21.3012 28.7396 20.9441C29.5701 20.7465 30.2997 20.1646 30.7583 19.3264L25.4538 20.3064C25.3582 20.3231 25.2688 20.2476 25.2546 20.1357C25.2395 20.0238 25.3051 19.9194 25.4007 19.9026L32.2928 18.6299C33.0888 18.4592 33.8228 18.0051 34.393 17.3282L34.3912 17.3273Z" fill="#EAAC08"></path>
</svg>