<svg width="40" height="40" viewBox="0 0 40 40" fill="none" xmlns="http://www.w3.org/2000/svg">
<g clip-path="url(#clip0_75669_89555)">
<circle cx="20" cy="20" r="20" fill="#1B1B1B"></circle>
<path d="M36 20.1602C36 20.3237 36 20.487 35.9918 20.6505H28.2095V20.2937H20.7183C20.7183 20.2202 20.7183 20.144 20.7183 20.0731C20.7183 20.0023 20.7183 19.9233 20.7183 19.8525H28.2095V19.4985H35.9863C35.9945 19.7191 36 19.9397 36 20.163V20.1602ZM20.5905 18.5562L27.921 17.6494L27.9646 18.0034L35.706 17.0475C35.6326 16.6662 35.5429 16.2877 35.4448 15.9173L27.8258 16.8596L27.8694 17.2136L20.5034 18.1232C20.536 18.2676 20.5659 18.4119 20.5905 18.559V18.5535V18.5562ZM20.2067 17.1319L27.2136 15.3754L27.3006 15.7212L34.7347 13.8558C34.5822 13.4935 34.4163 13.1395 34.2421 12.7909L27.0259 14.602L27.1128 14.9478L20.049 16.7207C20.1061 16.8569 20.1606 16.9958 20.2122 17.1347L20.2067 17.1319ZM19.5864 15.7975L26.1361 13.3138L26.2611 13.6461L33.1919 11.018C32.9659 10.6885 32.7318 10.3672 32.4816 10.054L25.8585 12.5649L25.9837 12.8971L19.3551 15.4108C19.4367 15.5361 19.5156 15.664 19.5891 15.7948L19.5864 15.7975ZM18.7265 14.5638L24.5116 11.5355L24.6749 11.8514L31.0721 8.50168C30.7782 8.21573 30.4707 7.9434 30.1577 7.67922L24.1469 10.8274L24.3102 11.1433L18.4272 14.2234C18.5306 14.3351 18.6313 14.4467 18.7292 14.5638H18.7265ZM17.3306 13.2321L22.5686 9.88786L22.7591 10.1874L28.5387 6.49458C28.1742 6.2631 27.804 6.04523 27.4203 5.8437L22.1442 9.21519L22.3346 9.51476L16.9469 12.9571C17.0803 13.0442 17.2054 13.1395 17.3333 13.2348L17.3306 13.2321ZM16.0925 12.4532L20.4816 8.83665L20.7074 9.11171L25.6516 5.03759C25.2326 4.87691 24.7999 4.73258 24.3647 4.6073L19.9809 8.22117L20.2067 8.49623L15.6571 12.2435C15.8068 12.3089 15.951 12.3797 16.0952 12.4532H16.0925ZM14.4544 11.8132L17.9211 8.34645L18.1687 8.597L22.5741 4.20153C22.0979 4.12255 21.6136 4.06536 21.1211 4.02723L17.3633 7.78272L17.6109 8.03326L13.9483 11.6934C14.117 11.7288 14.2857 11.767 14.4517 11.8132H14.4544ZM12.5388 11.5219L15.3034 8.15581L15.5782 8.38184L19.1755 4C18.6285 4.02451 18.0898 4.07898 17.5592 4.15795L14.6911 7.64654L14.966 7.87258L11.9728 11.5191C12.0571 11.5191 12.1415 11.5137 12.2258 11.5137C12.332 11.5137 12.4381 11.5137 12.5415 11.5191L12.5388 11.5219ZM10.8816 11.6226L13.0122 8.31104L13.3088 8.5044L15.883 4.50109C15.2952 4.6536 14.7184 4.84151 14.1578 5.05665L12.3456 7.87531L12.6422 8.06867L10.283 11.737C10.4789 11.6907 10.6803 11.6498 10.8816 11.6172V11.6226ZM9.03944 12.1373L10.5714 9.25331L10.8816 9.42216L12.9088 5.60677C12.2585 5.9254 11.6326 6.28761 11.034 6.68793L9.86938 8.88022L10.1823 9.04907L8.37822 12.4423C8.59047 12.3334 8.81088 12.2326 9.03673 12.1428L9.03944 12.1373ZM7.71972 12.8154L8.37006 10.9581L8.70475 11.0779L9.97006 7.46953C9.32789 7.98152 8.72653 8.53981 8.16598 9.14438L7.62176 10.6967L7.95645 10.8165L7.10475 13.2457C7.3034 13.0932 7.50748 12.9516 7.71972 12.8209V12.8154ZM6.09523 14.1444L6.38368 12.7937L6.72925 12.8672L7.30883 10.1493C6.69932 10.9282 6.16053 11.7615 5.69795 12.6439L5.95645 12.7011L5.42857 14.9369C5.63538 14.6591 5.8585 14.395 6.09796 14.1444H6.09523ZM4.90068 15.7212V13.932C4.47075 15.0758 4.16326 16.4974 4 17.8917C4.20136 17.1183 4.50884 16.3912 4.90068 15.7185V15.7212ZM4.01088 22.2954C4.17959 23.4855 4.47619 24.632 4.88979 25.7241V24.4032C4.50884 23.7524 4.20952 23.0443 4.01088 22.2927V22.2954ZM5.48027 25.2857L5.94014 27.4452L5.68164 27.5025C6.14149 28.3874 6.68299 29.2208 7.29252 29.997L6.71292 27.279L6.36735 27.3527L6.07618 25.9855C5.86394 25.7622 5.66259 25.528 5.47755 25.2829L5.48027 25.2857ZM7.0857 26.8923L7.94285 29.3378L7.60816 29.4578L8.15238 31.0101C8.7102 31.6119 9.31428 32.173 9.95645 32.6849L8.69115 29.0765L8.35646 29.1962L7.70339 27.3281C7.49115 27.1919 7.28707 27.0503 7.0857 26.9005V26.8951V26.8923ZM8.36734 27.7011L10.1741 31.1054L9.86121 31.2742L11.0258 33.4666C11.6245 33.8668 12.2503 34.2291 12.9007 34.5476L10.8735 30.7324L10.5605 30.9011L9.02313 28.0089C8.79727 27.9191 8.57686 27.8156 8.36189 27.7066L8.36734 27.7011ZM10.2694 28.4038L12.6313 32.0777L12.3347 32.271L14.1469 35.0896C14.7075 35.3047 15.2816 35.4927 15.8721 35.6451L13.2979 31.6419L13.0013 31.8353L10.868 28.5209C10.6667 28.4882 10.4653 28.4474 10.2667 28.4011L10.2694 28.4038ZM11.9565 28.6271L14.9496 32.2736L14.6748 32.4998L17.5428 35.9883C18.0734 36.0673 18.6149 36.1218 19.1592 36.1463L15.5592 31.7617L15.2843 31.9877L12.5197 28.6216C12.419 28.6271 12.3184 28.6271 12.2149 28.6271C12.1279 28.6271 12.0354 28.6271 11.9483 28.6216V28.6271H11.9565ZM13.9428 28.4556L17.6027 32.113L17.3551 32.3636L21.1129 36.1191C21.6054 36.0809 22.0898 36.0238 22.5659 35.9447L18.1632 31.5439L17.9129 31.797L14.449 28.333C14.2857 28.3765 14.1143 28.4202 13.9456 28.4529L13.9428 28.4556ZM15.649 27.9081L20.1932 31.6527L19.9673 31.9279L24.351 35.5418C24.7864 35.4164 25.2189 35.2721 25.6381 35.1113L20.6911 31.0373L20.4653 31.3123L16.0816 27.6985C15.9374 27.772 15.7932 27.8429 15.6435 27.9081H15.649ZM16.936 27.1947L22.3184 30.6343L22.1279 30.9338L27.4041 34.3053C27.7878 34.1037 28.1605 33.8832 28.5225 33.6544L22.7429 29.9616L22.5524 30.2611L17.3224 26.9196C17.1945 27.015 17.0667 27.1075 16.936 27.1974V27.1947ZM18.419 25.9283L24.2938 29.0029L24.1306 29.3189L30.1415 32.467C30.4572 32.2029 30.7619 31.9306 31.0557 31.6447L24.6585 28.2949L24.4952 28.6109L18.7183 25.5878C18.6204 25.705 18.5224 25.8194 18.4163 25.9283H18.419ZM19.3496 24.7355L25.9673 27.2464L25.8421 27.5786L32.4652 30.0896C32.7129 29.7763 32.9496 29.455 33.1755 29.1255L26.2449 26.4976L26.1197 26.8298L19.5782 24.3487C19.5047 24.4794 19.4258 24.6075 19.3442 24.7327L19.3496 24.7355ZM20.0435 23.4337L27.0966 25.2038L27.0095 25.5497L34.2258 27.3609C34.4054 27.015 34.5687 26.6581 34.7211 26.296L27.2871 24.4304L27.2027 24.7763L20.2067 23.0198C20.1551 23.1587 20.1006 23.2976 20.0435 23.4337ZM20.5007 22.0257L27.853 22.9327L27.8095 23.2866L35.4286 24.229C35.5292 23.8558 35.6163 23.48 35.6898 23.0987L27.9483 22.1429L27.9048 22.497L20.5851 21.59C20.5605 21.737 20.5306 21.8814 20.4979 22.0257H20.5007Z" fill="#569F8C"></path>
</g>
<defs>
<clipPath id="clip0_75669_89555">
<rect width="40" height="40" fill="white"></rect>
</clipPath>
</defs>
</svg>