<svg width="44" height="44" viewBox="0 0 44 44" fill="none" xmlns="http://www.w3.org/2000/svg">
  <rect width="44" height="44" rx="12" fill="#EAF7EE"></rect>
  <path d="M10 22c0-7 5-12 12-12s12 5 12 12v3c0 1-1 2-2 2H12c-1 0-2-1-2-2v-3Z" fill="#27A84B"></path>
  <rect x="14" y="17" width="16" height="20" rx="6" fill="#5FC97E"></rect>
  <rect x="14.5" y="22" width="6.5" height="5" rx="1.6" fill="#1E2A36"></rect>
  <rect x="23" y="22" width="6.5" height="5" rx="1.6" fill="#1E2A36"></rect>
  <rect x="20.8" y="23.4" width="2.4" height="1.4" rx="0.7" fill="#1E2A36"></rect>
  <path d="M19 31c1 1.2 2 1.8 3 1.8s2-.6 3-1.8" stroke="#1E2A36" stroke-width="1.5" stroke-linecap="round" fill="none"></path>
</svg>