<svg width="240" height="210" viewBox="0 0 240 210" fill="none" xmlns="http://www.w3.org/2000/svg">
  
  <g fill="#EEF1F6">
    <ellipse cx="44" cy="78" rx="34" ry="11"></ellipse>
    <ellipse cx="206" cy="70" rx="30" ry="10"></ellipse>
    <ellipse cx="60" cy="150" rx="26" ry="8"></ellipse>
    <ellipse cx="196" cy="152" rx="30" ry="9"></ellipse>
  </g>
  
  <ellipse cx="120" cy="184" rx="58" ry="9" fill="#E4E8EF" opacity="0.7"></ellipse>
  
  <rect x="86" y="56" width="78" height="104" rx="8" fill="#F2F4F8"></rect>
  
  <path d="M74 46h74a8 8 0 0 1 8 8v92a8 8 0 0 1-8 8H74a8 8 0 0 1-8-8V54a8 8 0 0 1 8-8Z" fill="#FBFCFE" stroke="#E4E8EF" stroke-width="1.5"></path>
  
  <path d="M156 134v12a8 8 0 0 1-8 8h-12l20-20Z" fill="#EDF0F5"></path>
  
  <rect x="98" y="38" width="26" height="16" rx="5" fill="#E2E6EE"></rect>
  <circle cx="111" cy="42" r="5" fill="#F2F4F8" stroke="#DCE1EA" stroke-width="1.5"></circle>
  
  <g>
    <rect x="84" y="68" width="14" height="14" rx="3" fill="#E7EBF1"></rect>
    <rect x="104" y="71" width="40" height="5" rx="2.5" fill="#E2E6EE"></rect>
    <rect x="84" y="92" width="14" height="14" rx="3" fill="#E7EBF1"></rect>
    <rect x="104" y="95" width="40" height="5" rx="2.5" fill="#E2E6EE"></rect>
    <rect x="84" y="116" width="14" height="14" rx="3" fill="#E7EBF1"></rect>
    <rect x="104" y="119" width="30" height="5" rx="2.5" fill="#E2E6EE"></rect>
  </g>
</svg>