<svg width="301" height="53" viewBox="0 0 301 53" fill="none" xmlns="http://www.w3.org/2000/svg">
<path d="M81.7939 37.7931C78.5151 37.7931 75.7555 36.6866 73.515 34.4734C71.3019 32.2329 70.1953 29.4733 70.1953 26.1946C70.1953 22.8885 71.3019 20.1289 73.515 17.9158C75.7555 15.7026 78.5288 14.5961 81.8348 14.5961C84.5398 14.5961 86.8896 15.3611 88.8841 16.8912C90.8787 18.4213 92.1765 20.4568 92.7776 22.9978H88.2694C87.6956 21.741 86.8349 20.7574 85.6874 20.047C84.5398 19.3092 83.242 18.9404 81.7939 18.9404C80.5097 18.9404 79.3348 19.2546 78.2692 19.883C77.2036 20.5115 76.3566 21.3858 75.7282 22.506C75.1271 23.5989 74.8265 24.8285 74.8265 26.1946C74.8265 28.2438 75.4959 29.9651 76.8348 31.3586C78.1736 32.7521 79.8266 33.4488 81.7939 33.4488C83.242 33.4488 84.5261 33.0799 85.6464 32.3422C86.7939 31.6045 87.6683 30.5526 88.2694 29.1864H92.8596C92.2312 31.7821 90.906 33.8723 88.8841 35.457C86.8896 37.0144 84.5261 37.7931 81.7939 37.7931Z" fill="#1E1E1E"></path>
<path d="M106.469 37.7931C103.191 37.7931 100.431 36.6866 98.1904 34.4734C95.9773 32.2329 94.8707 29.4733 94.8707 26.1946C94.8707 22.8885 95.9773 20.1289 98.1904 17.9158C100.431 15.7026 103.204 14.5961 106.51 14.5961C109.215 14.5961 111.565 15.3611 113.56 16.8912C115.554 18.4213 116.852 20.4568 117.453 22.9978H112.945C112.371 21.741 111.51 20.7574 110.363 20.047C109.215 19.3092 107.917 18.9404 106.469 18.9404C105.185 18.9404 104.01 19.2546 102.945 19.883C101.879 20.5115 101.032 21.3858 100.404 22.506C99.8025 23.5989 99.5019 24.8285 99.5019 26.1946C99.5019 28.2438 100.171 29.9651 101.51 31.3586C102.849 32.7521 104.502 33.4488 106.469 33.4488C107.917 33.4488 109.202 33.0799 110.322 32.3422C111.469 31.6045 112.344 30.5526 112.945 29.1864H117.535C116.907 31.7821 115.581 33.8723 113.56 35.457C111.565 37.0144 109.202 37.7931 106.469 37.7931Z" fill="#1E1E1E"></path>
<path d="M133.071 14.5961C135.257 14.5961 137.224 15.1015 138.973 16.1125C140.721 17.0961 142.087 18.4759 143.071 20.2519C144.055 22.0279 144.546 24.0088 144.546 26.1946C144.546 29.528 143.454 32.3012 141.268 34.5144C139.109 36.7002 136.377 37.7931 133.071 37.7931C130.229 37.7931 127.784 36.9051 125.735 35.1292V45.2113H121.185V15.1289H124.259L125.12 17.8338C127.251 15.6753 129.901 14.5961 133.071 14.5961ZM127.538 31.3996C128.904 32.7657 130.625 33.4488 132.702 33.4488C134.806 33.4488 136.541 32.7657 137.907 31.3996C139.273 30.0061 139.956 28.2711 139.956 26.1946C139.956 24.1181 139.273 22.3967 137.907 21.0306C136.541 19.6371 134.82 18.9404 132.743 18.9404C131.377 18.9404 130.134 19.2546 129.013 19.883C127.893 20.5115 127.019 21.3858 126.39 22.506C125.789 23.5989 125.489 24.8285 125.489 26.1946C125.489 28.2711 126.172 30.0061 127.538 31.3996Z" fill="#1E1E1E"></path>
<path d="M167.147 15.1289H170.672V37.2603H166.983L166.533 34.5554C164.401 36.7139 161.737 37.7931 158.541 37.7931C155.235 37.7931 152.475 36.6866 150.262 34.4734C148.076 32.2603 146.983 29.5007 146.983 26.1946C146.983 22.8612 148.076 20.1016 150.262 17.9158C152.475 15.7026 155.235 14.5961 158.541 14.5961C161.792 14.5961 164.483 15.689 166.615 17.8748L167.147 15.1289ZM153.664 31.3996C155.057 32.7657 156.792 33.4488 158.869 33.4488C160.972 33.4488 162.694 32.7657 164.033 31.3996C165.399 30.0061 166.082 28.2711 166.082 26.1946C166.082 24.0907 165.399 22.3557 164.033 20.9896C162.694 19.6235 160.972 18.9404 158.869 18.9404C157.502 18.9404 156.259 19.2546 155.139 19.883C154.046 20.5115 153.185 21.3858 152.557 22.506C151.929 23.5989 151.614 24.8285 151.614 26.1946C151.614 28.2711 152.297 30.0061 153.664 31.3996Z" fill="#1E1E1E"></path>
<path d="M192.119 15.1289H196.996L186.832 37.6702C185.547 40.4844 184.236 42.438 182.897 43.5309C181.586 44.6512 179.823 45.2113 177.61 45.2113H175.356V41.1129H177.241C178.689 41.1129 179.755 40.826 180.438 40.2522C181.121 39.6784 181.873 38.4899 182.692 36.6866L183.184 35.662L173.553 15.1289H178.512L185.52 30.5799L192.119 15.1289Z" fill="#1E1E1E"></path>
<path d="M224.569 14.637C226.891 14.637 228.777 15.4294 230.225 17.0141C231.673 18.5989 232.397 20.6617 232.397 23.2027V37.2603H227.848V24.3093C227.848 23.1344 227.67 22.1235 227.315 21.2765C226.987 20.4295 226.495 19.7874 225.839 19.3502C225.211 18.9131 224.446 18.6945 223.544 18.6945C222.041 18.6945 220.798 19.3092 219.815 20.5388C218.831 21.741 218.339 23.2847 218.339 25.17V37.2603H213.872V24.3093C213.872 22.506 213.503 21.1262 212.765 20.1699C212.028 19.1863 210.962 18.6945 209.569 18.6945C208.093 18.6945 206.85 19.3092 205.839 20.5388C204.855 21.741 204.364 23.2847 204.364 25.17V37.2603H199.814V15.1289H203.052L203.831 17.9978C204.678 16.9322 205.702 16.1125 206.905 15.5387C208.107 14.9376 209.377 14.637 210.716 14.637C212.192 14.637 213.503 14.9786 214.651 15.6617C215.798 16.3447 216.7 17.2874 217.356 18.4896C218.148 17.2874 219.186 16.3447 220.47 15.6617C221.755 14.9786 223.121 14.637 224.569 14.637Z" fill="#1E1E1E"></path>
<path d="M258.762 26.2356C258.762 26.6454 258.735 27.1509 258.681 27.752H240.729C241.003 29.528 241.74 30.9351 242.943 31.9734C244.172 33.0116 245.689 33.5308 247.492 33.5308C248.366 33.5308 249.186 33.4078 249.951 33.1619C250.716 32.8887 251.385 32.5198 251.959 32.0553C252.56 31.5635 253.052 30.9761 253.435 30.293H258.23C257.355 32.6428 255.962 34.4871 254.049 35.8259C252.137 37.1374 249.951 37.7931 247.492 37.7931C244.24 37.7931 241.522 36.6866 239.336 34.4734C237.177 32.2603 236.098 29.5007 236.098 26.1946C236.098 22.8885 237.177 20.1289 239.336 17.9158C241.522 15.7026 244.24 14.5961 247.492 14.5961C249.705 14.5961 251.672 15.1289 253.394 16.1944C255.115 17.2327 256.44 18.6398 257.369 20.4158C258.298 22.1645 258.762 24.1044 258.762 26.2356ZM247.492 18.6945C245.798 18.6945 244.35 19.1726 243.147 20.1289C241.973 21.0852 241.194 22.3967 240.811 24.0634H254.213C253.94 22.9432 253.489 21.9869 252.861 21.1945C252.232 20.3748 251.454 19.7601 250.525 19.3502C249.623 18.9131 248.612 18.6945 247.492 18.6945Z" fill="#1E1E1E"></path>
<path d="M274.495 14.637C277.063 14.637 279.099 15.4977 280.601 17.2191C282.131 18.9404 282.896 21.1809 282.896 23.9405V37.2603H278.347V24.8421C278.347 22.8476 277.91 21.3311 277.036 20.2929C276.189 19.2273 274.932 18.6945 273.265 18.6945C271.544 18.6945 270.123 19.3229 269.003 20.5798C267.883 21.8366 267.322 23.4487 267.322 25.4159V37.2603H262.773V15.1289H265.929L266.831 18.2027C267.678 17.0824 268.757 16.2081 270.068 15.5797C271.407 14.9513 272.883 14.637 274.495 14.637Z" fill="#1E1E1E"></path>
<path d="M297.926 33.1209H300.426V37.2603H297.065C295.453 37.2603 294.06 36.9461 292.885 36.3177C291.71 35.6893 290.809 34.7876 290.18 33.6127C289.552 32.4105 289.237 31.0034 289.237 29.3914V19.0224H285.262V18.1617L292.967 9.96484H293.746V15.1289H300.303V19.0224H293.787V29.0225C293.787 30.334 294.142 31.3449 294.852 32.0553C295.563 32.7657 296.587 33.1209 297.926 33.1209Z" fill="#1E1E1E"></path>
<path d="M0 15.5007C0 6.97298 6.91307 0.0599365 15.4408 0.0599365H24.5045V52.1806H15.4408C6.91306 52.1806 0 45.2675 0 36.7398V15.5007Z" fill="#3C6FF5"></path>
<path d="M27.2272 43.1168C27.2272 34.5891 34.1402 27.676 42.6679 27.676H52.8985V36.7398C52.8985 45.2675 45.9855 52.1805 37.4578 52.1805H27.2272V43.1168Z" fill="#3C6FF5"></path>
<path d="M27.2167 9.65054C27.2167 18.1782 34.1297 25.0913 42.6574 25.0913H52.9513V15.4408C52.9513 6.91313 46.0382 6.29425e-05 37.5105 6.29425e-05H27.2167V9.65054Z" fill="#3C6FF5"></path>
</svg>